<svg id="visual" viewBox="0 0 900 600" width="900" height="600" xmlns="http://www.w3.org/2000/svg" xmlns:xlink="http://www.w3.org/1999/xlink" version="1.1"><g stroke-width="1" stroke-linejoin="bevel"><path d="M485.9 284L452.9 231L386.1 278Z" fill="#001f1a" stroke="#001f1a"></path><path d="M452.9 231L379.1 247L386.1 278Z" fill="#83c5be" stroke="#83c5be"></path><path d="M319.3 265L392.1 344L386.1 278Z" fill="#1e625d" stroke="#1e625d"></path><path d="M386.1 278L392.1 344L485.9 284Z" fill="#83c5be" stroke="#83c5be"></path><path d="M452.9 231L366.3 217L379.1 247Z" fill="#003e3a" stroke="#003e3a"></path><path d="M379.1 247L319.3 265L386.1 278Z" fill="#000000" stroke="#000000"></path><path d="M366.3 217L319.3 265L379.1 247Z" fill="#478882" stroke="#478882"></path><path d="M452.9 231L366.3 164L366.3 217Z" fill="#83c5be" stroke="#83c5be"></path><path d="M366.3 217L269.5 214L319.3 265Z" fill="#003e3a" stroke="#003e3a"></path><path d="M485.9 284L561.7 230L452.9 231Z" fill="#478882" stroke="#478882"></path><path d="M433.1 96L369.1 139L366.3 164Z" fill="#000000" stroke="#000000"></path><path d="M392.1 344L505.9 406L485.9 284Z" fill="#83c5be" stroke="#83c5be"></path><path d="M485.9 284L611.7 318L561.7 230Z" fill="#002d2a" stroke="#002d2a"></path><path d="M480.9 115L366.3 164L452.9 231Z" fill="#478882" stroke="#478882"></path><path d="M366.3 164L269.5 214L366.3 217Z" fill="#01504b" stroke="#01504b"></path><path d="M282.5 371L345.3 411L392.1 344Z" fill="#5b9c96" stroke="#5b9c96"></path><path d="M392.1 344L396.1 471L505.9 406Z" fill="#5b9c96" stroke="#5b9c96"></path><path d="M396.1 471L507.9 429L505.9 406Z" fill="#000000" stroke="#000000"></path><path d="M505.9 406L611.7 318L485.9 284Z" fill="#6fb0aa" stroke="#6fb0aa"></path><path d="M558.7 148L480.9 115L452.9 231Z" fill="#01504b" stroke="#01504b"></path><path d="M328.3 104L269.5 214L366.3 164Z" fill="#478882" stroke="#478882"></path><path d="M319.3 265L282.5 371L392.1 344Z" fill="#002d2a" stroke="#002d2a"></path><path d="M561.7 230L558.7 148L452.9 231Z" fill="#1e625d" stroke="#1e625d"></path><path d="M204.5 281L282.5 371L319.3 265Z" fill="#001f1a" stroke="#001f1a"></path><path d="M580.7 407L611.7 318L505.9 406Z" fill="#33756f" stroke="#33756f"></path><path d="M561.7 230L675.5 186L558.7 148Z" fill="#5b9c96" stroke="#5b9c96"></path><path d="M480.9 115L433.1 96L366.3 164Z" fill="#6fb0aa" stroke="#6fb0aa"></path><path d="M507.9 429L580.7 407L505.9 406Z" fill="#003e3a" stroke="#003e3a"></path><path d="M323.3 461L396.1 471L345.3 411Z" fill="#6fb0aa" stroke="#6fb0aa"></path><path d="M345.3 411L396.1 471L392.1 344Z" fill="#33756f" stroke="#33756f"></path><path d="M561.7 489L613.7 400L580.7 407Z" fill="#001f1a" stroke="#001f1a"></path><path d="M433.1 96L328.3 104L369.1 139Z" fill="#002d2a" stroke="#002d2a"></path><path d="M369.1 139L328.3 104L366.3 164Z" fill="#5b9c96" stroke="#5b9c96"></path><path d="M282.5 371L323.3 461L345.3 411Z" fill="#5b9c96" stroke="#5b9c96"></path><path d="M561.7 489L580.7 407L507.9 429Z" fill="#002d2a" stroke="#002d2a"></path><path d="M580.7 407L613.7 400L611.7 318Z" fill="#478882" stroke="#478882"></path><path d="M429.1 561L479.9 495L396.1 471Z" fill="#6fb0aa" stroke="#6fb0aa"></path><path d="M396.1 471L479.9 495L507.9 429Z" fill="#33756f" stroke="#33756f"></path><path d="M199.6 250L204.5 281L269.5 214Z" fill="#01504b" stroke="#01504b"></path><path d="M269.5 214L204.5 281L319.3 265Z" fill="#003e3a" stroke="#003e3a"></path><path d="M282.5 371L224.5 446L323.3 461Z" fill="#000000" stroke="#000000"></path><path d="M558.7 148L557.7 75L480.9 115Z" fill="#5b9c96" stroke="#5b9c96"></path><path d="M480.9 115L471.9 37L433.1 96Z" fill="#5b9c96" stroke="#5b9c96"></path><path d="M433.1 96L360.3 0L328.3 104Z" fill="#001f1a" stroke="#001f1a"></path><path d="M691.5 115L557.7 75L558.7 148Z" fill="#478882" stroke="#478882"></path><path d="M328.3 104L226.5 168L269.5 214Z" fill="#002d2a" stroke="#002d2a"></path><path d="M226.5 168L199.6 250L269.5 214Z" fill="#83c5be" stroke="#83c5be"></path><path d="M613.7 400L674.5 324L611.7 318Z" fill="#478882" stroke="#478882"></path><path d="M702.4 224L675.5 186L561.7 230Z" fill="#1e625d" stroke="#1e625d"></path><path d="M557.7 75L471.9 37L480.9 115Z" fill="#5b9c96" stroke="#5b9c96"></path><path d="M479.9 495L561.7 489L507.9 429Z" fill="#002d2a" stroke="#002d2a"></path><path d="M613.7 400L688.5 400L674.5 324Z" fill="#33756f" stroke="#33756f"></path><path d="M702.4 224L561.7 230L611.7 318Z" fill="#6fb0aa" stroke="#6fb0aa"></path><path d="M148.6 338L186.6 370L204.5 281Z" fill="#002d2a" stroke="#002d2a"></path><path d="M204.5 281L186.6 370L282.5 371Z" fill="#002d2a" stroke="#002d2a"></path><path d="M674.5 324L703.4 272L611.7 318Z" fill="#1e625d" stroke="#1e625d"></path><path d="M186.6 370L224.5 446L282.5 371Z" fill="#6fb0aa" stroke="#6fb0aa"></path><path d="M302.3 541L429.1 561L396.1 471Z" fill="#6fb0aa" stroke="#6fb0aa"></path><path d="M703.4 272L702.4 224L611.7 318Z" fill="#478882" stroke="#478882"></path><path d="M702.4 224L694.5 187L675.5 186Z" fill="#000000" stroke="#000000"></path><path d="M675.5 186L691.5 115L558.7 148Z" fill="#002d2a" stroke="#002d2a"></path><path d="M525.9 0L448.1 0L471.9 37Z" fill="#001f1a" stroke="#001f1a"></path><path d="M471.9 37L448.1 0L433.1 96Z" fill="#5b9c96" stroke="#5b9c96"></path><path d="M328.3 104L243.5 77L226.5 168Z" fill="#33756f" stroke="#33756f"></path><path d="M263.5 0L243.5 77L328.3 104Z" fill="#000000" stroke="#000000"></path><path d="M96.8 328L148.6 338L90.8 250Z" fill="#01504b" stroke="#01504b"></path><path d="M695.5 461L688.5 400L613.7 400Z" fill="#5b9c96" stroke="#5b9c96"></path><path d="M674.5 324L721.4 343L703.4 272Z" fill="#003e3a" stroke="#003e3a"></path><path d="M302.3 541L396.1 471L323.3 461Z" fill="#6fb0aa" stroke="#6fb0aa"></path><path d="M479.9 495L516.9 600L561.7 489Z" fill="#83c5be" stroke="#83c5be"></path><path d="M788.2 224L699.4 161L694.5 187Z" fill="#5b9c96" stroke="#5b9c96"></path><path d="M694.5 187L699.4 161L675.5 186Z" fill="#1e625d" stroke="#1e625d"></path><path d="M557.7 75L525.9 0L471.9 37Z" fill="#83c5be" stroke="#83c5be"></path><path d="M448.1 0L360.3 0L433.1 96Z" fill="#5b9c96" stroke="#5b9c96"></path><path d="M573.7 0L525.9 0L557.7 75Z" fill="#83c5be" stroke="#83c5be"></path><path d="M688.5 400L721.4 343L674.5 324Z" fill="#000000" stroke="#000000"></path><path d="M703.4 272L788.2 224L702.4 224Z" fill="#1e625d" stroke="#1e625d"></path><path d="M702.4 224L788.2 224L694.5 187Z" fill="#01504b" stroke="#01504b"></path><path d="M90.8 250L148.6 338L204.5 281Z" fill="#1e625d" stroke="#1e625d"></path><path d="M122.6 478L203.5 486L224.5 446Z" fill="#002d2a" stroke="#002d2a"></path><path d="M110.8 187L199.6 250L226.5 168Z" fill="#001f1a" stroke="#001f1a"></path><path d="M224.5 446L302.3 541L323.3 461Z" fill="#83c5be" stroke="#83c5be"></path><path d="M699.4 161L691.5 115L675.5 186Z" fill="#6fb0aa" stroke="#6fb0aa"></path><path d="M123.6 103L177.6 117L192.6 0Z" fill="#33756f" stroke="#33756f"></path><path d="M243.5 77L177.6 117L226.5 168Z" fill="#000000" stroke="#000000"></path><path d="M615.5 0L573.7 0L557.7 75Z" fill="#83c5be" stroke="#83c5be"></path><path d="M122.6 478L224.5 446L186.6 370Z" fill="#01504b" stroke="#01504b"></path><path d="M224.5 446L203.5 486L302.3 541Z" fill="#478882" stroke="#478882"></path><path d="M561.7 489L695.5 461L613.7 400Z" fill="#01504b" stroke="#01504b"></path><path d="M688.5 400L800.2 454L721.4 343Z" fill="#000000" stroke="#000000"></path><path d="M661.5 566L695.5 461L561.7 489Z" fill="#478882" stroke="#478882"></path><path d="M360.3 0L263.5 0L328.3 104Z" fill="#01504b" stroke="#01504b"></path><path d="M302.3 541L371.1 600L429.1 561Z" fill="#003e3a" stroke="#003e3a"></path><path d="M429.1 561L516.9 600L479.9 495Z" fill="#003e3a" stroke="#003e3a"></path><path d="M328.3 600L371.1 600L302.3 541Z" fill="#002d2a" stroke="#002d2a"></path><path d="M691.5 115L615.5 0L557.7 75Z" fill="#001f1a" stroke="#001f1a"></path><path d="M371.1 600L516.9 600L429.1 561Z" fill="#5b9c96" stroke="#5b9c96"></path><path d="M123.6 103L110.8 187L177.6 117Z" fill="#003e3a" stroke="#003e3a"></path><path d="M177.6 117L110.8 187L226.5 168Z" fill="#478882" stroke="#478882"></path><path d="M287.5 600L328.3 600L302.3 541Z" fill="#6fb0aa" stroke="#6fb0aa"></path><path d="M90.8 250L204.5 281L199.6 250Z" fill="#6fb0aa" stroke="#6fb0aa"></path><path d="M148.6 338L85.8 354L186.6 370Z" fill="#01504b" stroke="#01504b"></path><path d="M110.8 187L90.8 250L199.6 250Z" fill="#003e3a" stroke="#003e3a"></path><path d="M203.5 486L287.5 600L302.3 541Z" fill="#83c5be" stroke="#83c5be"></path><path d="M516.9 600L587.7 600L561.7 489Z" fill="#478882" stroke="#478882"></path><path d="M815.2 303L703.4 272L721.4 343Z" fill="#478882" stroke="#478882"></path><path d="M815.2 303L788.2 224L703.4 272Z" fill="#002d2a" stroke="#002d2a"></path><path d="M834.2 119L775.4 51L691.5 115Z" fill="#003e3a" stroke="#003e3a"></path><path d="M691.5 115L728.4 0L615.5 0Z" fill="#01504b" stroke="#01504b"></path><path d="M192.6 0L177.6 117L243.5 77Z" fill="#1e625d" stroke="#1e625d"></path><path d="M0 215L0 314L90.8 250Z" fill="#6fb0aa" stroke="#6fb0aa"></path><path d="M0 314L85.8 354L96.8 328Z" fill="#003e3a" stroke="#003e3a"></path><path d="M96.8 328L85.8 354L148.6 338Z" fill="#83c5be" stroke="#83c5be"></path><path d="M203.5 486L125.6 540L287.5 600Z" fill="#01504b" stroke="#01504b"></path><path d="M587.7 600L661.5 566L561.7 489Z" fill="#6fb0aa" stroke="#6fb0aa"></path><path d="M844.2 411L815.2 303L721.4 343Z" fill="#003e3a" stroke="#003e3a"></path><path d="M263.5 0L192.6 0L243.5 77Z" fill="#1e625d" stroke="#1e625d"></path><path d="M60.8 410L122.6 478L186.6 370Z" fill="#1e625d" stroke="#1e625d"></path><path d="M800.2 454L688.5 400L695.5 461Z" fill="#5b9c96" stroke="#5b9c96"></path><path d="M587.7 600L654.5 600L661.5 566Z" fill="#000000" stroke="#000000"></path><path d="M755.4 524L764.4 487L695.5 461Z" fill="#001f1a" stroke="#001f1a"></path><path d="M755.4 524L695.5 461L661.5 566Z" fill="#5b9c96" stroke="#5b9c96"></path><path d="M0 403L60.8 410L85.8 354Z" fill="#002d2a" stroke="#002d2a"></path><path d="M85.8 354L60.8 410L186.6 370Z" fill="#1e625d" stroke="#1e625d"></path><path d="M716.4 600L755.4 524L661.5 566Z" fill="#003e3a" stroke="#003e3a"></path><path d="M764.4 487L800.2 454L695.5 461Z" fill="#003e3a" stroke="#003e3a"></path><path d="M691.5 115L699.4 161L834.2 119Z" fill="#33756f" stroke="#33756f"></path><path d="M775.4 51L728.4 0L691.5 115Z" fill="#83c5be" stroke="#83c5be"></path><path d="M850.2 508L800.2 454L764.4 487Z" fill="#478882" stroke="#478882"></path><path d="M110.8 566L125.6 540L0 504Z" fill="#33756f" stroke="#33756f"></path><path d="M122.6 478L125.6 540L203.5 486Z" fill="#478882" stroke="#478882"></path><path d="M834.2 119L699.4 161L788.2 224Z" fill="#33756f" stroke="#33756f"></path><path d="M654.5 600L716.4 600L661.5 566Z" fill="#83c5be" stroke="#83c5be"></path><path d="M850.2 508L844.2 411L800.2 454Z" fill="#001f1a" stroke="#001f1a"></path><path d="M900 204L834.2 119L788.2 224Z" fill="#001f1a" stroke="#001f1a"></path><path d="M900 289L788.2 224L815.2 303Z" fill="#33756f" stroke="#33756f"></path><path d="M850.2 508L764.4 487L755.4 524Z" fill="#000000" stroke="#000000"></path><path d="M800.2 454L844.2 411L721.4 343Z" fill="#5b9c96" stroke="#5b9c96"></path><path d="M0 504L125.6 540L122.6 478Z" fill="#000000" stroke="#000000"></path><path d="M125.6 540L120.6 600L287.5 600Z" fill="#01504b" stroke="#01504b"></path><path d="M90.8 250L0 314L96.8 328Z" fill="#83c5be" stroke="#83c5be"></path><path d="M60.8 410L0 454L122.6 478Z" fill="#003e3a" stroke="#003e3a"></path><path d="M0 215L90.8 250L110.8 187Z" fill="#002d2a" stroke="#002d2a"></path><path d="M40.8 82L110.8 187L123.6 103Z" fill="#5b9c96" stroke="#5b9c96"></path><path d="M0 107L0 215L110.8 187Z" fill="#001f1a" stroke="#001f1a"></path><path d="M85.8 0L40.8 82L123.6 103Z" fill="#83c5be" stroke="#83c5be"></path><path d="M192.6 0L85.8 0L123.6 103Z" fill="#001f1a" stroke="#001f1a"></path><path d="M82.8 600L120.6 600L110.8 566Z" fill="#5b9c96" stroke="#5b9c96"></path><path d="M110.8 566L120.6 600L125.6 540Z" fill="#000000" stroke="#000000"></path><path d="M0 314L0 403L85.8 354Z" fill="#33756f" stroke="#33756f"></path><path d="M853.2 39L799.2 0L775.4 51Z" fill="#6fb0aa" stroke="#6fb0aa"></path><path d="M775.4 51L799.2 0L728.4 0Z" fill="#5b9c96" stroke="#5b9c96"></path><path d="M900 384L900 289L815.2 303Z" fill="#002d2a" stroke="#002d2a"></path><path d="M834.2 119L853.2 39L775.4 51Z" fill="#002d2a" stroke="#002d2a"></path><path d="M0 62L0 107L40.8 82Z" fill="#002d2a" stroke="#002d2a"></path><path d="M40.8 82L0 107L110.8 187Z" fill="#5b9c96" stroke="#5b9c96"></path><path d="M900 289L900 204L788.2 224Z" fill="#000000" stroke="#000000"></path><path d="M0 403L0 454L60.8 410Z" fill="#01504b" stroke="#01504b"></path><path d="M836.2 600L850.2 508L755.4 524Z" fill="#003e3a" stroke="#003e3a"></path><path d="M844.2 411L900 384L815.2 303Z" fill="#478882" stroke="#478882"></path><path d="M900 427L900 384L844.2 411Z" fill="#5b9c96" stroke="#5b9c96"></path><path d="M0 504L82.8 600L110.8 566Z" fill="#33756f" stroke="#33756f"></path><path d="M900 115L853.2 39L834.2 119Z" fill="#5b9c96" stroke="#5b9c96"></path><path d="M0 0L0 62L40.8 82Z" fill="#01504b" stroke="#01504b"></path><path d="M850.2 508L900 427L844.2 411Z" fill="#478882" stroke="#478882"></path><path d="M0 454L0 504L122.6 478Z" fill="#6fb0aa" stroke="#6fb0aa"></path><path d="M900 204L900 115L834.2 119Z" fill="#5b9c96" stroke="#5b9c96"></path><path d="M716.4 600L836.2 600L755.4 524Z" fill="#1e625d" stroke="#1e625d"></path><path d="M850.2 508L900 517L900 427Z" fill="#6fb0aa" stroke="#6fb0aa"></path><path d="M85.8 0L0 0L40.8 82Z" fill="#33756f" stroke="#33756f"></path><path d="M836.2 600L900 517L850.2 508Z" fill="#5b9c96" stroke="#5b9c96"></path><path d="M900 115L900 39L853.2 39Z" fill="#6fb0aa" stroke="#6fb0aa"></path><path d="M853.2 39L900 0L799.2 0Z" fill="#000000" stroke="#000000"></path><path d="M900 39L900 0L853.2 39Z" fill="#6fb0aa" stroke="#6fb0aa"></path><path d="M0 504L0 600L82.8 600Z" fill="#6fb0aa" stroke="#6fb0aa"></path><path d="M836.2 600L900 600L900 517Z" fill="#478882" stroke="#478882"></path></g></svg>