<svg id="visual" viewBox="0 0 900 600" width="900" height="600" xmlns="http://www.w3.org/2000/svg" xmlns:xlink="http://www.w3.org/1999/xlink" version="1.1"><g stroke-width="1" stroke-linejoin="bevel"><path d="M429.1 331L446.1 342L472.9 341Z" fill="#724f42" stroke="#724f42"></path><path d="M446.1 342L499.9 353L472.9 341Z" fill="#e29578" stroke="#e29578"></path><path d="M499.9 353L484.9 243L472.9 341Z" fill="#231d1b" stroke="#231d1b"></path><path d="M472.9 341L484.9 243L429.1 331Z" fill="#231d1b" stroke="#231d1b"></path><path d="M484.9 243L402.1 222L429.1 331Z" fill="#111111" stroke="#111111"></path><path d="M402.1 222L351.3 318L429.1 331Z" fill="#5d4238" stroke="#5d4238"></path><path d="M429.1 331L361.3 388L446.1 342Z" fill="#9d6a57" stroke="#9d6a57"></path><path d="M351.3 318L361.3 388L429.1 331Z" fill="#724f42" stroke="#724f42"></path><path d="M451.9 480L539.7 417L499.9 353Z" fill="#875c4c" stroke="#875c4c"></path><path d="M499.9 353L587.7 274L484.9 243Z" fill="#9d6a57" stroke="#9d6a57"></path><path d="M484.9 243L405.1 179L402.1 222Z" fill="#231d1b" stroke="#231d1b"></path><path d="M402.1 222L327.3 232L351.3 318Z" fill="#49352e" stroke="#49352e"></path><path d="M467.9 146L405.1 179L484.9 243Z" fill="#cb866d" stroke="#cb866d"></path><path d="M451.9 480L499.9 353L446.1 342Z" fill="#49352e" stroke="#49352e"></path><path d="M499.9 353L539.7 417L587.7 274Z" fill="#724f42" stroke="#724f42"></path><path d="M645.5 251L592.7 262L587.7 274Z" fill="#231d1b" stroke="#231d1b"></path><path d="M587.7 274L592.7 262L484.9 243Z" fill="#724f42" stroke="#724f42"></path><path d="M361.3 388L394.1 434L446.1 342Z" fill="#724f42" stroke="#724f42"></path><path d="M405.1 179L327.3 232L402.1 222Z" fill="#49352e" stroke="#49352e"></path><path d="M245.5 335L320.3 435L361.3 388Z" fill="#111111" stroke="#111111"></path><path d="M598.7 177L467.9 146L484.9 243Z" fill="#9d6a57" stroke="#9d6a57"></path><path d="M394.1 434L451.9 480L446.1 342Z" fill="#b47862" stroke="#b47862"></path><path d="M394.1 434L413.1 486L451.9 480Z" fill="#5d4238" stroke="#5d4238"></path><path d="M320.3 435L413.1 486L394.1 434Z" fill="#9d6a57" stroke="#9d6a57"></path><path d="M245.5 335L361.3 388L351.3 318Z" fill="#cb866d" stroke="#cb866d"></path><path d="M361.3 388L320.3 435L394.1 434Z" fill="#5d4238" stroke="#5d4238"></path><path d="M592.7 262L598.7 177L484.9 243Z" fill="#49352e" stroke="#49352e"></path><path d="M672.5 333L645.5 251L587.7 274Z" fill="#5d4238" stroke="#5d4238"></path><path d="M592.7 262L645.5 251L598.7 177Z" fill="#724f42" stroke="#724f42"></path><path d="M599.7 465L638.5 413L539.7 417Z" fill="#cb866d" stroke="#cb866d"></path><path d="M539.7 417L638.5 413L587.7 274Z" fill="#5d4238" stroke="#5d4238"></path><path d="M534.7 66L452.9 91L467.9 146Z" fill="#9d6a57" stroke="#9d6a57"></path><path d="M467.9 146L413.1 90L405.1 179Z" fill="#49352e" stroke="#49352e"></path><path d="M405.1 179L338.3 97L327.3 232Z" fill="#362924" stroke="#362924"></path><path d="M574.7 490L599.7 465L539.7 417Z" fill="#e29578" stroke="#e29578"></path><path d="M574.7 490L539.7 417L517.9 517Z" fill="#362924" stroke="#362924"></path><path d="M327.3 232L245.5 335L351.3 318Z" fill="#724f42" stroke="#724f42"></path><path d="M638.5 413L672.5 333L587.7 274Z" fill="#231d1b" stroke="#231d1b"></path><path d="M517.9 517L539.7 417L451.9 480Z" fill="#362924" stroke="#362924"></path><path d="M452.9 91L413.1 90L467.9 146Z" fill="#e29578" stroke="#e29578"></path><path d="M327.3 232L218.5 258L245.5 335Z" fill="#e29578" stroke="#e29578"></path><path d="M479.9 600L517.9 517L451.9 480Z" fill="#362924" stroke="#362924"></path><path d="M638.5 413L679.5 341L672.5 333Z" fill="#362924" stroke="#362924"></path><path d="M672.5 333L701.4 227L645.5 251Z" fill="#724f42" stroke="#724f42"></path><path d="M245.5 335L232.5 356L320.3 435Z" fill="#b47862" stroke="#b47862"></path><path d="M645.5 251L645.5 161L598.7 177Z" fill="#cb866d" stroke="#cb866d"></path><path d="M598.7 177L534.7 66L467.9 146Z" fill="#5d4238" stroke="#5d4238"></path><path d="M701.4 227L645.5 161L645.5 251Z" fill="#111111" stroke="#111111"></path><path d="M413.1 90L338.3 97L405.1 179Z" fill="#cb866d" stroke="#cb866d"></path><path d="M245.5 335L171.6 253L232.5 356Z" fill="#5d4238" stroke="#5d4238"></path><path d="M247.5 132L218.5 258L327.3 232Z" fill="#e29578" stroke="#e29578"></path><path d="M629.5 74L534.7 66L598.7 177Z" fill="#9d6a57" stroke="#9d6a57"></path><path d="M452.9 91L477.9 0L413.1 90Z" fill="#362924" stroke="#362924"></path><path d="M413.1 90L372.1 0L338.3 97Z" fill="#cb866d" stroke="#cb866d"></path><path d="M338.3 97L291.3 113L327.3 232Z" fill="#362924" stroke="#362924"></path><path d="M757.4 265L701.4 227L672.5 333Z" fill="#9d6a57" stroke="#9d6a57"></path><path d="M228.5 447L273.5 501L320.3 435Z" fill="#9d6a57" stroke="#9d6a57"></path><path d="M320.3 435L304.3 529L413.1 486Z" fill="#111111" stroke="#111111"></path><path d="M420.1 600L479.9 600L451.9 480Z" fill="#e29578" stroke="#e29578"></path><path d="M232.5 356L228.5 447L320.3 435Z" fill="#9d6a57" stroke="#9d6a57"></path><path d="M150.6 384L228.5 447L232.5 356Z" fill="#e29578" stroke="#e29578"></path><path d="M273.5 501L304.3 529L320.3 435Z" fill="#111111" stroke="#111111"></path><path d="M291.3 113L247.5 132L327.3 232Z" fill="#49352e" stroke="#49352e"></path><path d="M291.3 0L257.5 101L291.3 113Z" fill="#111111" stroke="#111111"></path><path d="M291.3 113L257.5 101L247.5 132Z" fill="#231d1b" stroke="#231d1b"></path><path d="M291.3 0L291.3 113L338.3 97Z" fill="#875c4c" stroke="#875c4c"></path><path d="M645.5 161L629.5 74L598.7 177Z" fill="#231d1b" stroke="#231d1b"></path><path d="M737.4 40L629.5 74L645.5 161Z" fill="#b47862" stroke="#b47862"></path><path d="M181.6 183L171.6 253L218.5 258Z" fill="#49352e" stroke="#49352e"></path><path d="M218.5 258L171.6 253L245.5 335Z" fill="#231d1b" stroke="#231d1b"></path><path d="M181.6 183L218.5 258L247.5 132Z" fill="#362924" stroke="#362924"></path><path d="M420.1 600L451.9 480L413.1 486Z" fill="#875c4c" stroke="#875c4c"></path><path d="M588.7 600L652.5 551L574.7 490Z" fill="#b47862" stroke="#b47862"></path><path d="M652.5 551L638.5 413L599.7 465Z" fill="#111111" stroke="#111111"></path><path d="M368.3 600L420.1 600L413.1 486Z" fill="#362924" stroke="#362924"></path><path d="M757.4 357L757.4 265L679.5 341Z" fill="#e29578" stroke="#e29578"></path><path d="M679.5 341L757.4 265L672.5 333Z" fill="#5d4238" stroke="#5d4238"></path><path d="M701.4 227L748.4 177L645.5 161Z" fill="#e29578" stroke="#e29578"></path><path d="M757.4 357L679.5 341L638.5 413Z" fill="#231d1b" stroke="#231d1b"></path><path d="M149.6 96L181.6 183L247.5 132Z" fill="#231d1b" stroke="#231d1b"></path><path d="M789.2 376L757.4 357L777.4 480Z" fill="#b47862" stroke="#b47862"></path><path d="M652.5 551L599.7 465L574.7 490Z" fill="#875c4c" stroke="#875c4c"></path><path d="M536.7 0L477.9 0L534.7 66Z" fill="#111111" stroke="#111111"></path><path d="M534.7 66L477.9 0L452.9 91Z" fill="#724f42" stroke="#724f42"></path><path d="M282.5 600L368.3 600L304.3 529Z" fill="#cb866d" stroke="#cb866d"></path><path d="M304.3 529L368.3 600L413.1 486Z" fill="#875c4c" stroke="#875c4c"></path><path d="M588.7 600L574.7 490L517.9 517Z" fill="#b47862" stroke="#b47862"></path><path d="M618.5 0L536.7 0L534.7 66Z" fill="#724f42" stroke="#724f42"></path><path d="M477.9 0L372.1 0L413.1 90Z" fill="#111111" stroke="#111111"></path><path d="M757.4 265L748.4 177L701.4 227Z" fill="#362924" stroke="#362924"></path><path d="M121.8 335L232.5 356L171.6 253Z" fill="#b47862" stroke="#b47862"></path><path d="M121.8 335L150.6 384L232.5 356Z" fill="#5d4238" stroke="#5d4238"></path><path d="M135.6 600L282.5 600L273.5 501Z" fill="#e29578" stroke="#e29578"></path><path d="M273.5 501L282.5 600L304.3 529Z" fill="#362924" stroke="#362924"></path><path d="M479.9 600L588.7 600L517.9 517Z" fill="#231d1b" stroke="#231d1b"></path><path d="M817.2 333L785.2 259L757.4 265Z" fill="#231d1b" stroke="#231d1b"></path><path d="M757.4 265L785.2 259L748.4 177Z" fill="#e29578" stroke="#e29578"></path><path d="M181.6 183L124.6 269L171.6 253Z" fill="#724f42" stroke="#724f42"></path><path d="M124.6 269L121.8 335L171.6 253Z" fill="#362924" stroke="#362924"></path><path d="M777.4 480L757.4 357L638.5 413Z" fill="#111111" stroke="#111111"></path><path d="M757.4 357L817.2 333L757.4 265Z" fill="#111111" stroke="#111111"></path><path d="M133.6 477L273.5 501L228.5 447Z" fill="#111111" stroke="#111111"></path><path d="M737.4 40L618.5 0L629.5 74Z" fill="#724f42" stroke="#724f42"></path><path d="M629.5 74L618.5 0L534.7 66Z" fill="#875c4c" stroke="#875c4c"></path><path d="M785.2 259L778.2 172L748.4 177Z" fill="#cb866d" stroke="#cb866d"></path><path d="M748.4 177L737.4 40L645.5 161Z" fill="#5d4238" stroke="#5d4238"></path><path d="M372.1 0L291.3 0L338.3 97Z" fill="#49352e" stroke="#49352e"></path><path d="M257.5 101L149.6 96L247.5 132Z" fill="#b47862" stroke="#b47862"></path><path d="M181.6 183L72.8 214L124.6 269Z" fill="#724f42" stroke="#724f42"></path><path d="M669.5 600L747.4 513L652.5 551Z" fill="#362924" stroke="#362924"></path><path d="M652.5 551L747.4 513L638.5 413Z" fill="#9d6a57" stroke="#9d6a57"></path><path d="M789.2 376L817.2 333L757.4 357Z" fill="#b47862" stroke="#b47862"></path><path d="M785.2 259L900 250L778.2 172Z" fill="#231d1b" stroke="#231d1b"></path><path d="M900 380L817.2 333L789.2 376Z" fill="#231d1b" stroke="#231d1b"></path><path d="M121.8 335L112.8 415L150.6 384Z" fill="#e29578" stroke="#e29578"></path><path d="M150.6 384L133.6 477L228.5 447Z" fill="#b47862" stroke="#b47862"></path><path d="M102.8 466L0 423L53.8 512Z" fill="#9d6a57" stroke="#9d6a57"></path><path d="M588.7 600L669.5 600L652.5 551Z" fill="#231d1b" stroke="#231d1b"></path><path d="M851.2 445L777.4 480L789.2 564Z" fill="#875c4c" stroke="#875c4c"></path><path d="M747.4 513L777.4 480L638.5 413Z" fill="#b47862" stroke="#b47862"></path><path d="M112.8 415L133.6 477L150.6 384Z" fill="#231d1b" stroke="#231d1b"></path><path d="M291.3 0L245.5 0L257.5 101Z" fill="#231d1b" stroke="#231d1b"></path><path d="M173.6 0L149.6 96L257.5 101Z" fill="#875c4c" stroke="#875c4c"></path><path d="M102.8 466L120.6 484L133.6 477Z" fill="#724f42" stroke="#724f42"></path><path d="M133.6 477L135.6 600L273.5 501Z" fill="#49352e" stroke="#49352e"></path><path d="M778.2 172L737.4 40L748.4 177Z" fill="#724f42" stroke="#724f42"></path><path d="M0 367L112.8 415L121.8 335Z" fill="#724f42" stroke="#724f42"></path><path d="M112.8 415L102.8 466L133.6 477Z" fill="#724f42" stroke="#724f42"></path><path d="M91.8 94L72.8 214L181.6 183Z" fill="#875c4c" stroke="#875c4c"></path><path d="M124.6 269L0 325L121.8 335Z" fill="#9d6a57" stroke="#9d6a57"></path><path d="M245.5 0L173.6 0L257.5 101Z" fill="#9d6a57" stroke="#9d6a57"></path><path d="M149.6 96L91.8 94L181.6 183Z" fill="#9d6a57" stroke="#9d6a57"></path><path d="M789.2 564L777.4 480L747.4 513Z" fill="#e29578" stroke="#e29578"></path><path d="M777.4 480L851.2 445L789.2 376Z" fill="#724f42" stroke="#724f42"></path><path d="M810.2 49L737.4 40L778.2 172Z" fill="#9d6a57" stroke="#9d6a57"></path><path d="M774.4 600L789.2 564L747.4 513Z" fill="#111111" stroke="#111111"></path><path d="M173.6 0L91.8 94L149.6 96Z" fill="#875c4c" stroke="#875c4c"></path><path d="M810.2 49L778.2 172L900 163Z" fill="#231d1b" stroke="#231d1b"></path><path d="M810.2 49L751.4 0L737.4 40Z" fill="#724f42" stroke="#724f42"></path><path d="M737.4 40L751.4 0L618.5 0Z" fill="#e29578" stroke="#e29578"></path><path d="M900 414L900 380L851.2 445Z" fill="#724f42" stroke="#724f42"></path><path d="M669.5 600L774.4 600L747.4 513Z" fill="#362924" stroke="#362924"></path><path d="M900 250L785.2 259L817.2 333Z" fill="#9d6a57" stroke="#9d6a57"></path><path d="M120.6 484L135.6 600L133.6 477Z" fill="#362924" stroke="#362924"></path><path d="M53.8 512L135.6 600L120.6 484Z" fill="#cb866d" stroke="#cb866d"></path><path d="M900 380L900 319L817.2 333Z" fill="#b47862" stroke="#b47862"></path><path d="M900 319L900 250L817.2 333Z" fill="#111111" stroke="#111111"></path><path d="M91.8 94L46.8 131L72.8 214Z" fill="#5d4238" stroke="#5d4238"></path><path d="M0 423L102.8 466L112.8 415Z" fill="#111111" stroke="#111111"></path><path d="M0 157L46.8 131L0 79Z" fill="#5d4238" stroke="#5d4238"></path><path d="M851.2 445L900 380L789.2 376Z" fill="#9d6a57" stroke="#9d6a57"></path><path d="M900 414L851.2 445L900 566Z" fill="#b47862" stroke="#b47862"></path><path d="M0 325L124.6 269L72.8 214Z" fill="#49352e" stroke="#49352e"></path><path d="M102.8 466L53.8 512L120.6 484Z" fill="#9d6a57" stroke="#9d6a57"></path><path d="M900 566L851.2 445L789.2 564Z" fill="#e29578" stroke="#e29578"></path><path d="M0 212L0 325L72.8 214Z" fill="#5d4238" stroke="#5d4238"></path><path d="M900 0L803.2 0L810.2 49Z" fill="#362924" stroke="#362924"></path><path d="M810.2 49L803.2 0L751.4 0Z" fill="#724f42" stroke="#724f42"></path><path d="M0 325L0 367L121.8 335Z" fill="#231d1b" stroke="#231d1b"></path><path d="M900 250L900 163L778.2 172Z" fill="#5d4238" stroke="#5d4238"></path><path d="M0 157L0 212L72.8 214Z" fill="#875c4c" stroke="#875c4c"></path><path d="M774.4 600L822.2 600L789.2 564Z" fill="#875c4c" stroke="#875c4c"></path><path d="M0 367L0 423L112.8 415Z" fill="#875c4c" stroke="#875c4c"></path><path d="M0 79L46.8 131L91.8 94Z" fill="#9d6a57" stroke="#9d6a57"></path><path d="M46.8 131L0 157L72.8 214Z" fill="#49352e" stroke="#49352e"></path><path d="M0 423L0 488L53.8 512Z" fill="#875c4c" stroke="#875c4c"></path><path d="M53.8 512L47.8 600L135.6 600Z" fill="#5d4238" stroke="#5d4238"></path><path d="M173.6 0L64.8 0L91.8 94Z" fill="#49352e" stroke="#49352e"></path><path d="M0 600L47.8 600L53.8 512Z" fill="#5d4238" stroke="#5d4238"></path><path d="M64.8 0L0 79L91.8 94Z" fill="#724f42" stroke="#724f42"></path><path d="M900 163L900 45L810.2 49Z" fill="#e29578" stroke="#e29578"></path><path d="M822.2 600L900 566L789.2 564Z" fill="#b47862" stroke="#b47862"></path><path d="M822.2 600L900 600L900 566Z" fill="#cb866d" stroke="#cb866d"></path><path d="M900 45L900 0L810.2 49Z" fill="#362924" stroke="#362924"></path><path d="M0 488L0 600L53.8 512Z" fill="#49352e" stroke="#49352e"></path><path d="M64.8 0L0 0L0 79Z" fill="#362924" stroke="#362924"></path></g></svg>