<svg id="visual" viewBox="0 0 900 600" width="900" height="600" xmlns="http://www.w3.org/2000/svg" xmlns:xlink="http://www.w3.org/1999/xlink" version="1.1"><g stroke-width="1" stroke-linejoin="bevel"><path d="M455.9 340L426.1 418L470.9 338Z" fill="#5e3426" stroke="#5e3426"></path><path d="M426.1 418L480.9 442L470.9 338Z" fill="#874630" stroke="#874630"></path><path d="M480.9 442L541.7 392L470.9 338Z" fill="#5e3426" stroke="#5e3426"></path><path d="M455.9 340L397.1 377L426.1 418Z" fill="#c9633f" stroke="#c9633f"></path><path d="M405.1 231L379.1 305L455.9 340Z" fill="#37231c" stroke="#37231c"></path><path d="M455.9 340L379.1 305L397.1 377Z" fill="#5e3426" stroke="#5e3426"></path><path d="M480.9 442L576.7 462L541.7 392Z" fill="#4a2b21" stroke="#4a2b21"></path><path d="M627.5 288L550.7 279L541.7 392Z" fill="#b3593a" stroke="#b3593a"></path><path d="M541.7 392L550.7 279L470.9 338Z" fill="#111111" stroke="#111111"></path><path d="M470.9 338L405.1 231L455.9 340Z" fill="#241a17" stroke="#241a17"></path><path d="M344.3 319L329.3 375L397.1 377Z" fill="#9d5035" stroke="#9d5035"></path><path d="M397.1 377L324.3 482L426.1 418Z" fill="#723d2b" stroke="#723d2b"></path><path d="M379.1 305L344.3 319L397.1 377Z" fill="#723d2b" stroke="#723d2b"></path><path d="M381.1 532L507.9 535L480.9 442Z" fill="#b3593a" stroke="#b3593a"></path><path d="M480.9 442L507.9 535L576.7 462Z" fill="#9d5035" stroke="#9d5035"></path><path d="M381.1 532L480.9 442L426.1 418Z" fill="#9d5035" stroke="#9d5035"></path><path d="M507.9 535L598.7 490L576.7 462Z" fill="#241a17" stroke="#241a17"></path><path d="M576.7 462L631.5 445L541.7 392Z" fill="#5e3426" stroke="#5e3426"></path><path d="M324.3 482L381.1 532L426.1 418Z" fill="#b3593a" stroke="#b3593a"></path><path d="M598.7 490L631.5 445L576.7 462Z" fill="#37231c" stroke="#37231c"></path><path d="M505.9 220L405.1 231L470.9 338Z" fill="#9d5035" stroke="#9d5035"></path><path d="M379.1 305L358.3 213L344.3 319Z" fill="#874630" stroke="#874630"></path><path d="M329.3 375L324.3 482L397.1 377Z" fill="#4a2b21" stroke="#4a2b21"></path><path d="M550.7 279L505.9 220L470.9 338Z" fill="#723d2b" stroke="#723d2b"></path><path d="M627.5 288L572.7 243L550.7 279Z" fill="#723d2b" stroke="#723d2b"></path><path d="M550.7 279L572.7 243L505.9 220Z" fill="#37231c" stroke="#37231c"></path><path d="M652.5 340L627.5 288L541.7 392Z" fill="#e06d44" stroke="#e06d44"></path><path d="M631.5 445L652.5 340L541.7 392Z" fill="#4a2b21" stroke="#4a2b21"></path><path d="M537.7 101L450.9 187L505.9 220Z" fill="#723d2b" stroke="#723d2b"></path><path d="M505.9 220L450.9 187L405.1 231Z" fill="#874630" stroke="#874630"></path><path d="M407.1 190L358.3 213L405.1 231Z" fill="#4a2b21" stroke="#4a2b21"></path><path d="M405.1 231L358.3 213L379.1 305Z" fill="#5e3426" stroke="#5e3426"></path><path d="M232.5 340L240.5 392L329.3 375Z" fill="#9d5035" stroke="#9d5035"></path><path d="M450.9 187L407.1 190L405.1 231Z" fill="#c9633f" stroke="#c9633f"></path><path d="M381.1 532L463.9 600L507.9 535Z" fill="#e06d44" stroke="#e06d44"></path><path d="M507.9 535L596.7 600L598.7 490Z" fill="#241a17" stroke="#241a17"></path><path d="M381.1 532L411.1 600L463.9 600Z" fill="#c9633f" stroke="#c9633f"></path><path d="M329.3 600L411.1 600L381.1 532Z" fill="#5e3426" stroke="#5e3426"></path><path d="M226.5 485L287.3 528L324.3 482Z" fill="#723d2b" stroke="#723d2b"></path><path d="M324.3 482L287.3 528L381.1 532Z" fill="#5e3426" stroke="#5e3426"></path><path d="M240.5 392L324.3 482L329.3 375Z" fill="#e06d44" stroke="#e06d44"></path><path d="M232.5 340L329.3 375L344.3 319Z" fill="#9d5035" stroke="#9d5035"></path><path d="M696.4 257L620.5 215L627.5 288Z" fill="#9d5035" stroke="#9d5035"></path><path d="M627.5 288L620.5 215L572.7 243Z" fill="#241a17" stroke="#241a17"></path><path d="M572.7 243L591.7 151L505.9 220Z" fill="#723d2b" stroke="#723d2b"></path><path d="M267.5 252L232.5 340L344.3 319Z" fill="#111111" stroke="#111111"></path><path d="M463.9 600L596.7 600L507.9 535Z" fill="#241a17" stroke="#241a17"></path><path d="M598.7 490L685.5 564L631.5 445Z" fill="#4a2b21" stroke="#4a2b21"></path><path d="M344.3 163L267.5 252L358.3 213Z" fill="#c9633f" stroke="#c9633f"></path><path d="M358.3 213L267.5 252L344.3 319Z" fill="#37231c" stroke="#37231c"></path><path d="M287.3 528L329.3 600L381.1 532Z" fill="#e06d44" stroke="#e06d44"></path><path d="M407.1 190L344.3 163L358.3 213Z" fill="#241a17" stroke="#241a17"></path><path d="M416.1 70L344.3 163L407.1 190Z" fill="#111111" stroke="#111111"></path><path d="M416.1 70L407.1 190L450.9 187Z" fill="#5e3426" stroke="#5e3426"></path><path d="M182.6 397L218.5 455L240.5 392Z" fill="#c9633f" stroke="#c9633f"></path><path d="M240.5 392L218.5 455L324.3 482Z" fill="#c9633f" stroke="#c9633f"></path><path d="M287.3 528L270.5 600L329.3 600Z" fill="#874630" stroke="#874630"></path><path d="M218.5 455L226.5 485L324.3 482Z" fill="#9d5035" stroke="#9d5035"></path><path d="M652.5 340L696.4 257L627.5 288Z" fill="#37231c" stroke="#37231c"></path><path d="M736.4 299L696.4 257L652.5 340Z" fill="#111111" stroke="#111111"></path><path d="M736.4 299L652.5 340L766.4 369Z" fill="#e06d44" stroke="#e06d44"></path><path d="M630.5 162L591.7 151L620.5 215Z" fill="#b3593a" stroke="#b3593a"></path><path d="M620.5 215L591.7 151L572.7 243Z" fill="#723d2b" stroke="#723d2b"></path><path d="M596.7 600L650.5 600L598.7 490Z" fill="#111111" stroke="#111111"></path><path d="M650.5 600L685.5 564L598.7 490Z" fill="#9d5035" stroke="#9d5035"></path><path d="M696.4 257L630.5 162L620.5 215Z" fill="#9d5035" stroke="#9d5035"></path><path d="M766.4 369L652.5 340L631.5 445Z" fill="#874630" stroke="#874630"></path><path d="M696.4 257L707.4 116L630.5 162Z" fill="#4a2b21" stroke="#4a2b21"></path><path d="M197.6 234L189.6 339L232.5 340Z" fill="#723d2b" stroke="#723d2b"></path><path d="M232.5 340L189.6 339L240.5 392Z" fill="#4a2b21" stroke="#4a2b21"></path><path d="M197.6 234L232.5 340L267.5 252Z" fill="#9d5035" stroke="#9d5035"></path><path d="M189.6 339L182.6 397L240.5 392Z" fill="#874630" stroke="#874630"></path><path d="M218.5 455L136.6 443L226.5 485Z" fill="#874630" stroke="#874630"></path><path d="M173.6 600L270.5 600L226.5 485Z" fill="#37231c" stroke="#37231c"></path><path d="M226.5 485L270.5 600L287.3 528Z" fill="#874630" stroke="#874630"></path><path d="M685.5 564L737.4 503L631.5 445Z" fill="#111111" stroke="#111111"></path><path d="M775.2 407L766.4 369L631.5 445Z" fill="#4a2b21" stroke="#4a2b21"></path><path d="M672.5 62L537.7 101L591.7 151Z" fill="#b3593a" stroke="#b3593a"></path><path d="M591.7 151L537.7 101L505.9 220Z" fill="#4a2b21" stroke="#4a2b21"></path><path d="M737.4 503L775.2 407L631.5 445Z" fill="#874630" stroke="#874630"></path><path d="M221.5 119L197.6 234L267.5 252Z" fill="#9d5035" stroke="#9d5035"></path><path d="M79.8 347L136.6 443L182.6 397Z" fill="#111111" stroke="#111111"></path><path d="M834.2 545L776.4 482L737.4 503Z" fill="#e06d44" stroke="#e06d44"></path><path d="M737.4 503L776.4 482L775.2 407Z" fill="#9d5035" stroke="#9d5035"></path><path d="M778.4 600L737.4 503L685.5 564Z" fill="#111111" stroke="#111111"></path><path d="M487.9 61L416.1 70L450.9 187Z" fill="#241a17" stroke="#241a17"></path><path d="M344.3 163L221.5 119L267.5 252Z" fill="#e06d44" stroke="#e06d44"></path><path d="M537.7 101L487.9 61L450.9 187Z" fill="#c9633f" stroke="#c9633f"></path><path d="M516.9 0L487.9 61L537.7 101Z" fill="#37231c" stroke="#37231c"></path><path d="M79.8 347L182.6 397L189.6 339Z" fill="#874630" stroke="#874630"></path><path d="M182.6 397L136.6 443L218.5 455Z" fill="#874630" stroke="#874630"></path><path d="M707.4 116L696.4 257L776.2 145Z" fill="#4a2b21" stroke="#4a2b21"></path><path d="M740.4 118L707.4 116L776.2 145Z" fill="#b3593a" stroke="#b3593a"></path><path d="M630.5 162L672.5 62L591.7 151Z" fill="#874630" stroke="#874630"></path><path d="M136.6 443L135.6 531L226.5 485Z" fill="#5e3426" stroke="#5e3426"></path><path d="M135.6 531L173.6 600L226.5 485Z" fill="#4a2b21" stroke="#4a2b21"></path><path d="M775.2 407L833.2 414L766.4 369Z" fill="#9d5035" stroke="#9d5035"></path><path d="M766.4 369L849.2 289L736.4 299Z" fill="#241a17" stroke="#241a17"></path><path d="M776.4 482L833.2 414L775.2 407Z" fill="#4a2b21" stroke="#4a2b21"></path><path d="M284.3 58L221.5 119L344.3 163Z" fill="#37231c" stroke="#37231c"></path><path d="M69.8 296L79.8 347L189.6 339Z" fill="#e06d44" stroke="#e06d44"></path><path d="M650.5 600L778.4 600L685.5 564Z" fill="#5e3426" stroke="#5e3426"></path><path d="M776.4 482L900 472L833.2 414Z" fill="#37231c" stroke="#37231c"></path><path d="M136.6 443L118.8 515L135.6 531Z" fill="#b3593a" stroke="#b3593a"></path><path d="M135.6 531L97.8 600L173.6 600Z" fill="#c9633f" stroke="#c9633f"></path><path d="M778.4 600L834.2 545L737.4 503Z" fill="#241a17" stroke="#241a17"></path><path d="M416.1 70L284.3 58L344.3 163Z" fill="#241a17" stroke="#241a17"></path><path d="M365.3 0L284.3 58L416.1 70Z" fill="#111111" stroke="#111111"></path><path d="M776.2 145L696.4 257L839.2 246Z" fill="#4a2b21" stroke="#4a2b21"></path><path d="M707.4 116L672.5 62L630.5 162Z" fill="#e06d44" stroke="#e06d44"></path><path d="M740.4 118L672.5 62L707.4 116Z" fill="#723d2b" stroke="#723d2b"></path><path d="M487.9 61L416.1 0L416.1 70Z" fill="#111111" stroke="#111111"></path><path d="M839.2 246L696.4 257L736.4 299Z" fill="#723d2b" stroke="#723d2b"></path><path d="M764.4 0L622.5 0L672.5 62Z" fill="#874630" stroke="#874630"></path><path d="M833.2 414L849.2 289L766.4 369Z" fill="#e06d44" stroke="#e06d44"></path><path d="M69.8 296L189.6 339L197.6 234Z" fill="#b3593a" stroke="#b3593a"></path><path d="M136.6 443L52.8 485L118.8 515Z" fill="#241a17" stroke="#241a17"></path><path d="M588.7 0L516.9 0L537.7 101Z" fill="#e06d44" stroke="#e06d44"></path><path d="M516.9 0L416.1 0L487.9 61Z" fill="#5e3426" stroke="#5e3426"></path><path d="M780.2 600L834.2 545L778.4 600Z" fill="#b3593a" stroke="#b3593a"></path><path d="M833.2 414L900 341L849.2 289Z" fill="#241a17" stroke="#241a17"></path><path d="M849.2 289L839.2 246L736.4 299Z" fill="#37231c" stroke="#37231c"></path><path d="M416.1 0L365.3 0L416.1 70Z" fill="#874630" stroke="#874630"></path><path d="M672.5 62L588.7 0L537.7 101Z" fill="#874630" stroke="#874630"></path><path d="M41.8 246L69.8 296L197.6 234Z" fill="#37231c" stroke="#37231c"></path><path d="M764.4 0L672.5 62L740.4 118Z" fill="#874630" stroke="#874630"></path><path d="M672.5 62L622.5 0L588.7 0Z" fill="#4a2b21" stroke="#4a2b21"></path><path d="M155.6 68L120.6 152L221.5 119Z" fill="#b3593a" stroke="#b3593a"></path><path d="M221.5 119L120.6 152L197.6 234Z" fill="#9d5035" stroke="#9d5035"></path><path d="M228.5 33L221.5 119L284.3 58Z" fill="#241a17" stroke="#241a17"></path><path d="M52.8 485L136.6 443L79.8 347Z" fill="#9d5035" stroke="#9d5035"></path><path d="M52.8 485L97.8 600L118.8 515Z" fill="#241a17" stroke="#241a17"></path><path d="M118.8 515L97.8 600L135.6 531Z" fill="#37231c" stroke="#37231c"></path><path d="M0 409L52.8 485L79.8 347Z" fill="#723d2b" stroke="#723d2b"></path><path d="M900 472L900 379L833.2 414Z" fill="#b3593a" stroke="#b3593a"></path><path d="M849.2 289L900 264L839.2 246Z" fill="#5e3426" stroke="#5e3426"></path><path d="M223.5 0L228.5 33L284.3 58Z" fill="#37231c" stroke="#37231c"></path><path d="M900 379L900 341L833.2 414Z" fill="#37231c" stroke="#37231c"></path><path d="M900 137L839.2 77L776.2 145Z" fill="#723d2b" stroke="#723d2b"></path><path d="M834.2 545L900 472L776.4 482Z" fill="#9d5035" stroke="#9d5035"></path><path d="M900 600L900 511L834.2 545Z" fill="#9d5035" stroke="#9d5035"></path><path d="M834.2 545L900 511L900 472Z" fill="#37231c" stroke="#37231c"></path><path d="M900 341L900 264L849.2 289Z" fill="#b3593a" stroke="#b3593a"></path><path d="M228.5 33L155.6 68L221.5 119Z" fill="#241a17" stroke="#241a17"></path><path d="M120.6 152L41.8 246L197.6 234Z" fill="#37231c" stroke="#37231c"></path><path d="M0 270L0 409L79.8 347Z" fill="#5e3426" stroke="#5e3426"></path><path d="M79.8 151L41.8 246L120.6 152Z" fill="#241a17" stroke="#241a17"></path><path d="M101.8 63L79.8 151L120.6 152Z" fill="#723d2b" stroke="#723d2b"></path><path d="M228.5 33L201.6 0L155.6 68Z" fill="#4a2b21" stroke="#4a2b21"></path><path d="M365.3 0L223.5 0L284.3 58Z" fill="#e06d44" stroke="#e06d44"></path><path d="M0 270L79.8 347L69.8 296Z" fill="#111111" stroke="#111111"></path><path d="M52.8 485L0 523L97.8 600Z" fill="#37231c" stroke="#37231c"></path><path d="M223.5 0L201.6 0L228.5 33Z" fill="#b3593a" stroke="#b3593a"></path><path d="M155.6 68L101.8 63L120.6 152Z" fill="#723d2b" stroke="#723d2b"></path><path d="M0 409L0 471L52.8 485Z" fill="#4a2b21" stroke="#4a2b21"></path><path d="M780.2 600L900 600L834.2 545Z" fill="#723d2b" stroke="#723d2b"></path><path d="M900 137L776.2 145L839.2 246Z" fill="#723d2b" stroke="#723d2b"></path><path d="M776.2 145L839.2 77L740.4 118Z" fill="#b3593a" stroke="#b3593a"></path><path d="M0 232L0 270L41.8 246Z" fill="#111111" stroke="#111111"></path><path d="M41.8 246L0 270L69.8 296Z" fill="#37231c" stroke="#37231c"></path><path d="M839.2 77L764.4 0L740.4 118Z" fill="#37231c" stroke="#37231c"></path><path d="M0 471L0 523L52.8 485Z" fill="#b3593a" stroke="#b3593a"></path><path d="M73.8 0L101.8 63L155.6 68Z" fill="#723d2b" stroke="#723d2b"></path><path d="M0 189L0 232L41.8 246Z" fill="#e06d44" stroke="#e06d44"></path><path d="M0 189L41.8 246L79.8 151Z" fill="#241a17" stroke="#241a17"></path><path d="M900 264L900 137L839.2 246Z" fill="#723d2b" stroke="#723d2b"></path><path d="M839.2 77L809.2 0L764.4 0Z" fill="#874630" stroke="#874630"></path><path d="M0 112L0 189L79.8 151Z" fill="#e06d44" stroke="#e06d44"></path><path d="M0 523L0 600L97.8 600Z" fill="#4a2b21" stroke="#4a2b21"></path><path d="M900 0L809.2 0L839.2 77Z" fill="#c9633f" stroke="#c9633f"></path><path d="M900 137L900 103L839.2 77Z" fill="#b3593a" stroke="#b3593a"></path><path d="M0 0L0 112L101.8 63Z" fill="#e06d44" stroke="#e06d44"></path><path d="M101.8 63L0 112L79.8 151Z" fill="#e06d44" stroke="#e06d44"></path><path d="M201.6 0L73.8 0L155.6 68Z" fill="#5e3426" stroke="#5e3426"></path><path d="M900 103L900 0L839.2 77Z" fill="#4a2b21" stroke="#4a2b21"></path><path d="M73.8 0L0 0L101.8 63Z" fill="#b3593a" stroke="#b3593a"></path></g></svg>