<svg id="visual" viewBox="0 0 900 600" width="900" height="600" xmlns="http://www.w3.org/2000/svg" xmlns:xlink="http://www.w3.org/1999/xlink" version="1.1"><g stroke-width="1" stroke-linejoin="bevel"><path d="M459.9 267L472.9 251L436.1 186Z" fill="#004e59" stroke="#004e59"></path><path d="M436.1 186L392.1 278L459.9 267Z" fill="#002831" stroke="#002831"></path><path d="M472.9 251L473.9 173L436.1 186Z" fill="#00171f" stroke="#00171f"></path><path d="M473.9 173L417.1 143L436.1 186Z" fill="#001f28" stroke="#001f28"></path><path d="M436.1 186L335.3 188L392.1 278Z" fill="#00313b" stroke="#00313b"></path><path d="M417.1 143L335.3 188L436.1 186Z" fill="#000000" stroke="#000000"></path><path d="M473.9 173L451.1 115L417.1 143Z" fill="#00171f" stroke="#00171f"></path><path d="M331.3 61L260.5 146L335.3 188Z" fill="#002831" stroke="#002831"></path><path d="M472.9 251L534.7 173L473.9 173Z" fill="#001f28" stroke="#001f28"></path><path d="M473.9 173L534.7 173L451.1 115Z" fill="#001f28" stroke="#001f28"></path><path d="M335.3 188L303.3 257L392.1 278Z" fill="#000000" stroke="#000000"></path><path d="M291.3 307L371.1 348L392.1 278Z" fill="#00454f" stroke="#00454f"></path><path d="M392.1 278L371.1 348L459.9 267Z" fill="#003b45" stroke="#003b45"></path><path d="M566.7 298L576.7 218L472.9 251Z" fill="#006d77" stroke="#006d77"></path><path d="M472.9 251L576.7 218L534.7 173Z" fill="#000000" stroke="#000000"></path><path d="M566.7 298L472.9 251L459.9 267Z" fill="#004e59" stroke="#004e59"></path><path d="M531.7 380L566.7 298L459.9 267Z" fill="#000000" stroke="#000000"></path><path d="M558.7 94L451.1 115L534.7 173Z" fill="#000000" stroke="#000000"></path><path d="M558.7 94L455.9 76L451.1 115Z" fill="#00313b" stroke="#00313b"></path><path d="M451.1 115L455.9 76L417.1 143Z" fill="#00454f" stroke="#00454f"></path><path d="M303.3 257L291.3 307L392.1 278Z" fill="#00171f" stroke="#00171f"></path><path d="M371.1 348L487.9 400L459.9 267Z" fill="#006d77" stroke="#006d77"></path><path d="M291.3 307L342.3 385L371.1 348Z" fill="#001f28" stroke="#001f28"></path><path d="M371.1 348L417.1 470L487.9 400Z" fill="#004e59" stroke="#004e59"></path><path d="M487.9 400L531.7 380L459.9 267Z" fill="#005863" stroke="#005863"></path><path d="M655.5 151L558.7 94L534.7 173Z" fill="#00313b" stroke="#00313b"></path><path d="M331.3 61L335.3 188L417.1 143Z" fill="#006d77" stroke="#006d77"></path><path d="M335.3 188L229.5 206L303.3 257Z" fill="#00171f" stroke="#00171f"></path><path d="M303.3 257L221.5 271L291.3 307Z" fill="#000000" stroke="#000000"></path><path d="M455.9 76L331.3 61L417.1 143Z" fill="#006d77" stroke="#006d77"></path><path d="M291.3 307L270.5 353L342.3 385Z" fill="#003b45" stroke="#003b45"></path><path d="M221.5 271L270.5 353L291.3 307Z" fill="#00171f" stroke="#00171f"></path><path d="M260.5 146L229.5 206L335.3 188Z" fill="#00636d" stroke="#00636d"></path><path d="M229.5 206L221.5 271L303.3 257Z" fill="#00313b" stroke="#00313b"></path><path d="M566.7 298L650.5 223L576.7 218Z" fill="#00171f" stroke="#00171f"></path><path d="M576.7 218L655.5 151L534.7 173Z" fill="#002831" stroke="#002831"></path><path d="M634.5 331L650.5 223L566.7 298Z" fill="#001f28" stroke="#001f28"></path><path d="M531.7 380L634.5 331L566.7 298Z" fill="#004e59" stroke="#004e59"></path><path d="M527.9 0L432.1 0L455.9 76Z" fill="#006d77" stroke="#006d77"></path><path d="M455.9 76L432.1 0L331.3 61Z" fill="#00313b" stroke="#00313b"></path><path d="M650.5 223L655.5 151L576.7 218Z" fill="#002831" stroke="#002831"></path><path d="M558.7 94L527.9 0L455.9 76Z" fill="#00636d" stroke="#00636d"></path><path d="M258.5 424L288.3 422L270.5 353Z" fill="#000000" stroke="#000000"></path><path d="M270.5 353L288.3 422L342.3 385Z" fill="#00313b" stroke="#00313b"></path><path d="M342.3 385L417.1 470L371.1 348Z" fill="#002831" stroke="#002831"></path><path d="M361.3 504L417.1 470L342.3 385Z" fill="#00636d" stroke="#00636d"></path><path d="M487.9 400L547.7 458L531.7 380Z" fill="#006d77" stroke="#006d77"></path><path d="M531.7 380L664.5 410L634.5 331Z" fill="#003b45" stroke="#003b45"></path><path d="M603.7 0L527.9 0L558.7 94Z" fill="#000000" stroke="#000000"></path><path d="M417.1 470L487.9 477L487.9 400Z" fill="#000000" stroke="#000000"></path><path d="M487.9 477L547.7 458L487.9 400Z" fill="#000000" stroke="#000000"></path><path d="M154.6 392L258.5 424L270.5 353Z" fill="#00171f" stroke="#00171f"></path><path d="M288.3 422L361.3 504L342.3 385Z" fill="#003b45" stroke="#003b45"></path><path d="M260.5 146L200.6 110L229.5 206Z" fill="#001f28" stroke="#001f28"></path><path d="M229.5 206L160.6 205L221.5 271Z" fill="#00636d" stroke="#00636d"></path><path d="M224.5 32L200.6 110L260.5 146Z" fill="#00171f" stroke="#00171f"></path><path d="M224.5 32L260.5 146L331.3 61Z" fill="#00454f" stroke="#00454f"></path><path d="M402.1 545L450.9 497L417.1 470Z" fill="#00454f" stroke="#00454f"></path><path d="M417.1 470L450.9 497L487.9 477Z" fill="#005863" stroke="#005863"></path><path d="M487.9 477L606.7 529L547.7 458Z" fill="#001f28" stroke="#001f28"></path><path d="M664.5 410L682.5 336L634.5 331Z" fill="#00313b" stroke="#00313b"></path><path d="M634.5 331L682.5 336L650.5 223Z" fill="#00171f" stroke="#00171f"></path><path d="M650.5 223L705.4 189L655.5 151Z" fill="#00313b" stroke="#00313b"></path><path d="M432.1 0L288.3 0L331.3 61Z" fill="#004e59" stroke="#004e59"></path><path d="M200.6 110L160.6 205L229.5 206Z" fill="#005863" stroke="#005863"></path><path d="M221.5 271L154.6 392L270.5 353Z" fill="#000000" stroke="#000000"></path><path d="M716.4 337L705.4 189L650.5 223Z" fill="#005863" stroke="#005863"></path><path d="M614.5 0L603.7 0L558.7 94Z" fill="#00313b" stroke="#00313b"></path><path d="M283.5 564L361.3 504L288.3 422Z" fill="#002831" stroke="#002831"></path><path d="M288.3 0L224.5 32L331.3 61Z" fill="#003b45" stroke="#003b45"></path><path d="M200.6 110L161.6 103L160.6 205Z" fill="#002831" stroke="#002831"></path><path d="M614.5 0L558.7 94L675.5 60Z" fill="#005863" stroke="#005863"></path><path d="M288.3 0L260.5 0L224.5 32Z" fill="#004e59" stroke="#004e59"></path><path d="M786.2 187L713.4 167L705.4 189Z" fill="#002831" stroke="#002831"></path><path d="M705.4 189L713.4 167L655.5 151Z" fill="#006d77" stroke="#006d77"></path><path d="M547.7 458L664.5 410L531.7 380Z" fill="#005863" stroke="#005863"></path><path d="M675.5 60L558.7 94L655.5 151Z" fill="#002831" stroke="#002831"></path><path d="M713.4 167L675.5 60L655.5 151Z" fill="#00636d" stroke="#00636d"></path><path d="M224.5 32L161.6 103L200.6 110Z" fill="#00171f" stroke="#00171f"></path><path d="M664.5 410L716.4 337L682.5 336Z" fill="#004e59" stroke="#004e59"></path><path d="M682.5 336L716.4 337L650.5 223Z" fill="#00171f" stroke="#00171f"></path><path d="M385.1 600L402.1 545L361.3 504Z" fill="#002831" stroke="#002831"></path><path d="M361.3 504L402.1 545L417.1 470Z" fill="#00313b" stroke="#00313b"></path><path d="M510.9 600L606.7 529L487.9 477Z" fill="#003b45" stroke="#003b45"></path><path d="M547.7 458L606.7 529L664.5 410Z" fill="#002831" stroke="#002831"></path><path d="M124.6 338L154.6 392L221.5 271Z" fill="#001f28" stroke="#001f28"></path><path d="M258.5 424L283.5 564L288.3 422Z" fill="#003b45" stroke="#003b45"></path><path d="M124.6 338L221.5 271L96.8 278Z" fill="#002831" stroke="#002831"></path><path d="M96.8 278L221.5 271L160.6 205Z" fill="#004e59" stroke="#004e59"></path><path d="M72.8 409L186.6 457L154.6 392Z" fill="#00171f" stroke="#00171f"></path><path d="M154.6 392L186.6 457L258.5 424Z" fill="#00454f" stroke="#00454f"></path><path d="M53.8 206L96.8 278L160.6 205Z" fill="#00171f" stroke="#00171f"></path><path d="M776.2 70L718.4 47L713.4 167Z" fill="#00171f" stroke="#00171f"></path><path d="M713.4 167L718.4 47L675.5 60Z" fill="#00454f" stroke="#00454f"></path><path d="M675.5 60L718.4 47L614.5 0Z" fill="#001f28" stroke="#001f28"></path><path d="M510.9 600L487.9 477L450.9 497Z" fill="#00313b" stroke="#00313b"></path><path d="M664.5 410L736.4 415L716.4 337Z" fill="#006d77" stroke="#006d77"></path><path d="M260.5 0L168.6 0L224.5 32Z" fill="#006d77" stroke="#006d77"></path><path d="M224.5 32L168.6 0L161.6 103Z" fill="#005863" stroke="#005863"></path><path d="M161.6 103L78.8 169L160.6 205Z" fill="#00313b" stroke="#00313b"></path><path d="M711.4 567L736.4 415L664.5 410Z" fill="#000000" stroke="#000000"></path><path d="M716.4 337L786.2 187L705.4 189Z" fill="#000000" stroke="#000000"></path><path d="M819.2 327L786.2 187L716.4 337Z" fill="#003b45" stroke="#003b45"></path><path d="M96.8 278L100.8 368L124.6 338Z" fill="#002831" stroke="#002831"></path><path d="M124.6 338L100.8 368L154.6 392Z" fill="#005863" stroke="#005863"></path><path d="M75.8 102L78.8 169L161.6 103Z" fill="#004e59" stroke="#004e59"></path><path d="M0 368L72.8 409L100.8 368Z" fill="#00454f" stroke="#00454f"></path><path d="M200.6 532L258.5 424L186.6 457Z" fill="#002831" stroke="#002831"></path><path d="M200.6 532L283.5 564L258.5 424Z" fill="#005863" stroke="#005863"></path><path d="M402.1 545L510.9 600L450.9 497Z" fill="#004e59" stroke="#004e59"></path><path d="M283.5 564L385.1 600L361.3 504Z" fill="#001f28" stroke="#001f28"></path><path d="M385.1 600L510.9 600L402.1 545Z" fill="#003b45" stroke="#003b45"></path><path d="M98.8 0L75.8 102L161.6 103Z" fill="#00313b" stroke="#00313b"></path><path d="M0 191L53.8 206L0 158Z" fill="#00171f" stroke="#00171f"></path><path d="M78.8 169L53.8 206L160.6 205Z" fill="#00171f" stroke="#00171f"></path><path d="M149.6 600L200.6 532L84.8 559Z" fill="#00636d" stroke="#00636d"></path><path d="M813.2 158L776.2 70L713.4 167Z" fill="#006d77" stroke="#006d77"></path><path d="M718.4 47L761.4 0L614.5 0Z" fill="#006d77" stroke="#006d77"></path><path d="M574.7 600L635.5 555L606.7 529Z" fill="#000000" stroke="#000000"></path><path d="M606.7 529L635.5 555L664.5 410Z" fill="#001f28" stroke="#001f28"></path><path d="M711.4 567L765.4 421L736.4 415Z" fill="#005863" stroke="#005863"></path><path d="M736.4 415L786.2 395L716.4 337Z" fill="#005863" stroke="#005863"></path><path d="M900 244L813.2 158L786.2 187Z" fill="#00171f" stroke="#00171f"></path><path d="M786.2 187L813.2 158L713.4 167Z" fill="#004e59" stroke="#004e59"></path><path d="M765.4 421L786.2 395L736.4 415Z" fill="#00313b" stroke="#00313b"></path><path d="M510.9 600L574.7 600L606.7 529Z" fill="#00313b" stroke="#00313b"></path><path d="M287.3 600L287.5 600L283.5 564Z" fill="#004e59" stroke="#004e59"></path><path d="M283.5 564L287.5 600L385.1 600Z" fill="#004e59" stroke="#004e59"></path><path d="M200.6 532L287.3 600L283.5 564Z" fill="#003b45" stroke="#003b45"></path><path d="M786.2 395L819.2 327L716.4 337Z" fill="#00454f" stroke="#00454f"></path><path d="M0 342L100.8 368L96.8 278Z" fill="#00454f" stroke="#00454f"></path><path d="M100.8 368L72.8 409L154.6 392Z" fill="#00636d" stroke="#00636d"></path><path d="M838.2 0L761.4 0L776.2 70Z" fill="#006d77" stroke="#006d77"></path><path d="M776.2 70L761.4 0L718.4 47Z" fill="#006d77" stroke="#006d77"></path><path d="M168.6 0L98.8 0L161.6 103Z" fill="#006d77" stroke="#006d77"></path><path d="M0 158L53.8 206L78.8 169Z" fill="#001f28" stroke="#001f28"></path><path d="M53.8 206L0 342L96.8 278Z" fill="#001f28" stroke="#001f28"></path><path d="M0 158L78.8 169L75.8 102Z" fill="#003b45" stroke="#003b45"></path><path d="M678.5 600L711.4 567L635.5 555Z" fill="#006d77" stroke="#006d77"></path><path d="M635.5 555L711.4 567L664.5 410Z" fill="#002831" stroke="#002831"></path><path d="M765.4 421L813.2 448L786.2 395Z" fill="#002831" stroke="#002831"></path><path d="M786.2 395L900 363L819.2 327Z" fill="#004e59" stroke="#004e59"></path><path d="M0 40L0 158L75.8 102Z" fill="#004e59" stroke="#004e59"></path><path d="M711.4 567L813.2 448L765.4 421Z" fill="#00454f" stroke="#00454f"></path><path d="M574.7 600L678.5 600L635.5 555Z" fill="#00313b" stroke="#00313b"></path><path d="M0 191L0 342L53.8 206Z" fill="#003b45" stroke="#003b45"></path><path d="M84.8 559L200.6 532L186.6 457Z" fill="#000000" stroke="#000000"></path><path d="M678.5 600L694.4 600L711.4 567Z" fill="#00313b" stroke="#00313b"></path><path d="M711.4 567L854.2 517L813.2 448Z" fill="#002831" stroke="#002831"></path><path d="M0 342L0 368L100.8 368Z" fill="#004e59" stroke="#004e59"></path><path d="M84.8 559L186.6 457L72.8 409Z" fill="#005863" stroke="#005863"></path><path d="M200.6 532L149.6 600L287.3 600Z" fill="#00636d" stroke="#00636d"></path><path d="M900 110L838.2 0L776.2 70Z" fill="#00171f" stroke="#00171f"></path><path d="M900 110L776.2 70L813.2 158Z" fill="#004e59" stroke="#004e59"></path><path d="M900 244L786.2 187L819.2 327Z" fill="#00313b" stroke="#00313b"></path><path d="M900 323L900 244L819.2 327Z" fill="#001f28" stroke="#001f28"></path><path d="M98.8 0L0 40L75.8 102Z" fill="#00313b" stroke="#00313b"></path><path d="M900 363L900 323L819.2 327Z" fill="#00454f" stroke="#00454f"></path><path d="M0 483L84.8 559L72.8 409Z" fill="#005863" stroke="#005863"></path><path d="M900 244L900 125L813.2 158Z" fill="#00171f" stroke="#00171f"></path><path d="M900 125L900 110L813.2 158Z" fill="#005863" stroke="#005863"></path><path d="M900 461L900 363L813.2 448Z" fill="#00171f" stroke="#00171f"></path><path d="M813.2 448L900 363L786.2 395Z" fill="#00171f" stroke="#00171f"></path><path d="M98.8 0L0 0L0 40Z" fill="#00636d" stroke="#00636d"></path><path d="M0 368L0 470L72.8 409Z" fill="#00171f" stroke="#00171f"></path><path d="M0 470L0 483L72.8 409Z" fill="#002831" stroke="#002831"></path><path d="M694.4 600L778.2 600L711.4 567Z" fill="#000000" stroke="#000000"></path><path d="M778.2 600L854.2 517L711.4 567Z" fill="#004e59" stroke="#004e59"></path><path d="M854.2 517L900 461L813.2 448Z" fill="#00171f" stroke="#00171f"></path><path d="M900 110L900 0L838.2 0Z" fill="#005863" stroke="#005863"></path><path d="M0 483L38.8 600L84.8 559Z" fill="#003b45" stroke="#003b45"></path><path d="M84.8 559L38.8 600L149.6 600Z" fill="#00171f" stroke="#00171f"></path><path d="M900 600L900 517L854.2 517Z" fill="#004e59" stroke="#004e59"></path><path d="M854.2 517L900 517L900 461Z" fill="#006d77" stroke="#006d77"></path><path d="M0 483L0 600L38.8 600Z" fill="#003b45" stroke="#003b45"></path><path d="M778.2 600L900 600L854.2 517Z" fill="#004e59" stroke="#004e59"></path></g></svg>