<svg id="visual" viewBox="0 0 900 600" width="900" height="600" xmlns="http://www.w3.org/2000/svg" xmlns:xlink="http://www.w3.org/1999/xlink" version="1.1"><g stroke-width="1" stroke-linejoin="bevel"><path d="M486.9 340L512.9 394L533.7 344Z" fill="#393733" stroke="#393733"></path><path d="M486.9 340L401.1 343L512.9 394Z" fill="#fff3d8" stroke="#fff3d8"></path><path d="M376.1 442L523.9 472L512.9 394Z" fill="#fff3d8" stroke="#fff3d8"></path><path d="M512.9 394L596.7 437L533.7 344Z" fill="#968f80" stroke="#968f80"></path><path d="M523.9 472L596.7 437L512.9 394Z" fill="#252422" stroke="#252422"></path><path d="M659.5 380L599.7 281L533.7 344Z" fill="#111111" stroke="#111111"></path><path d="M533.7 344L533.7 205L486.9 340Z" fill="#afa796" stroke="#afa796"></path><path d="M486.9 340L387.1 296L401.1 343Z" fill="#252422" stroke="#252422"></path><path d="M483.9 198L387.1 296L486.9 340Z" fill="#111111" stroke="#111111"></path><path d="M387.1 296L369.3 335L401.1 343Z" fill="#7d786c" stroke="#7d786c"></path><path d="M401.1 343L376.1 442L512.9 394Z" fill="#4f4c45" stroke="#4f4c45"></path><path d="M596.7 437L659.5 380L533.7 344Z" fill="#fff3d8" stroke="#fff3d8"></path><path d="M369.3 335L376.1 442L401.1 343Z" fill="#7d786c" stroke="#7d786c"></path><path d="M599.7 281L533.7 205L533.7 344Z" fill="#4f4c45" stroke="#4f4c45"></path><path d="M685.5 257L624.5 252L599.7 281Z" fill="#111111" stroke="#111111"></path><path d="M599.7 281L624.5 252L533.7 205Z" fill="#393733" stroke="#393733"></path><path d="M533.7 205L483.9 198L486.9 340Z" fill="#968f80" stroke="#968f80"></path><path d="M376.1 442L436.1 521L523.9 472Z" fill="#4f4c45" stroke="#4f4c45"></path><path d="M612.7 513L672.5 421L596.7 437Z" fill="#968f80" stroke="#968f80"></path><path d="M612.7 513L596.7 437L523.9 472Z" fill="#7d786c" stroke="#7d786c"></path><path d="M596.7 437L672.5 421L659.5 380Z" fill="#111111" stroke="#111111"></path><path d="M659.5 380L685.5 257L599.7 281Z" fill="#e4d9c1" stroke="#e4d9c1"></path><path d="M510.9 557L612.7 513L523.9 472Z" fill="#393733" stroke="#393733"></path><path d="M369.3 335L336.3 429L376.1 442Z" fill="#4f4c45" stroke="#4f4c45"></path><path d="M376.1 442L318.3 551L436.1 521Z" fill="#c9c0ab" stroke="#c9c0ab"></path><path d="M745.4 467L700.4 385L672.5 421Z" fill="#393733" stroke="#393733"></path><path d="M672.5 421L700.4 385L659.5 380Z" fill="#656258" stroke="#656258"></path><path d="M483.9 198L369.1 229L387.1 296Z" fill="#afa796" stroke="#afa796"></path><path d="M387.1 296L328.3 272L369.3 335Z" fill="#252422" stroke="#252422"></path><path d="M369.3 335L256.5 373L336.3 429Z" fill="#4f4c45" stroke="#4f4c45"></path><path d="M436.1 521L510.9 557L523.9 472Z" fill="#252422" stroke="#252422"></path><path d="M369.1 229L328.3 272L387.1 296Z" fill="#968f80" stroke="#968f80"></path><path d="M712.4 262L685.5 257L659.5 380Z" fill="#393733" stroke="#393733"></path><path d="M624.5 252L603.7 147L533.7 205Z" fill="#656258" stroke="#656258"></path><path d="M559.7 600L632.5 546L612.7 513Z" fill="#afa796" stroke="#afa796"></path><path d="M717.4 544L745.4 467L672.5 421Z" fill="#111111" stroke="#111111"></path><path d="M700.4 385L712.4 262L659.5 380Z" fill="#fff3d8" stroke="#fff3d8"></path><path d="M641.5 159L603.7 147L624.5 252Z" fill="#afa796" stroke="#afa796"></path><path d="M483.9 198L371.1 180L369.1 229Z" fill="#968f80" stroke="#968f80"></path><path d="M369.1 229L342.3 186L328.3 272Z" fill="#7d786c" stroke="#7d786c"></path><path d="M413.1 65L371.1 180L483.9 198Z" fill="#c9c0ab" stroke="#c9c0ab"></path><path d="M641.5 159L624.5 252L685.5 257Z" fill="#afa796" stroke="#afa796"></path><path d="M533.7 205L523.9 127L483.9 198Z" fill="#7d786c" stroke="#7d786c"></path><path d="M603.7 147L523.9 127L533.7 205Z" fill="#e4d9c1" stroke="#e4d9c1"></path><path d="M367.1 600L523.9 600L510.9 557Z" fill="#968f80" stroke="#968f80"></path><path d="M510.9 557L559.7 600L612.7 513Z" fill="#fff3d8" stroke="#fff3d8"></path><path d="M523.9 600L559.7 600L510.9 557Z" fill="#252422" stroke="#252422"></path><path d="M342.3 174L342.3 186L371.1 180Z" fill="#fff3d8" stroke="#fff3d8"></path><path d="M371.1 180L342.3 186L369.1 229Z" fill="#4f4c45" stroke="#4f4c45"></path><path d="M733.4 212L641.5 159L685.5 257Z" fill="#fff3d8" stroke="#fff3d8"></path><path d="M358.3 63L342.3 174L371.1 180Z" fill="#656258" stroke="#656258"></path><path d="M261.5 258L256.5 373L328.3 272Z" fill="#968f80" stroke="#968f80"></path><path d="M328.3 272L256.5 373L369.3 335Z" fill="#656258" stroke="#656258"></path><path d="M336.3 429L318.3 551L376.1 442Z" fill="#111111" stroke="#111111"></path><path d="M436.1 521L367.1 600L510.9 557Z" fill="#111111" stroke="#111111"></path><path d="M261.5 258L328.3 272L342.3 186Z" fill="#968f80" stroke="#968f80"></path><path d="M717.4 544L612.7 513L632.5 546Z" fill="#e4d9c1" stroke="#e4d9c1"></path><path d="M717.4 544L672.5 421L612.7 513Z" fill="#393733" stroke="#393733"></path><path d="M700.4 385L831.2 389L712.4 262Z" fill="#393733" stroke="#393733"></path><path d="M263.5 493L318.3 551L336.3 429Z" fill="#968f80" stroke="#968f80"></path><path d="M224.5 245L261.5 258L219.5 139Z" fill="#252422" stroke="#252422"></path><path d="M847.2 244L733.4 212L712.4 262Z" fill="#968f80" stroke="#968f80"></path><path d="M712.4 262L733.4 212L685.5 257Z" fill="#968f80" stroke="#968f80"></path><path d="M178.6 344L240.5 425L256.5 373Z" fill="#393733" stroke="#393733"></path><path d="M256.5 373L240.5 425L336.3 429Z" fill="#4f4c45" stroke="#4f4c45"></path><path d="M318.3 551L367.1 600L436.1 521Z" fill="#e4d9c1" stroke="#e4d9c1"></path><path d="M658.5 600L717.4 544L632.5 546Z" fill="#e4d9c1" stroke="#e4d9c1"></path><path d="M240.5 425L263.5 493L336.3 429Z" fill="#968f80" stroke="#968f80"></path><path d="M559.7 600L658.5 600L632.5 546Z" fill="#afa796" stroke="#afa796"></path><path d="M282.5 600L352.3 600L318.3 551Z" fill="#656258" stroke="#656258"></path><path d="M318.3 551L352.3 600L367.1 600Z" fill="#4f4c45" stroke="#4f4c45"></path><path d="M847.2 244L737.4 192L733.4 212Z" fill="#7d786c" stroke="#7d786c"></path><path d="M733.4 212L737.4 192L641.5 159Z" fill="#968f80" stroke="#968f80"></path><path d="M219.5 139L261.5 258L342.3 186Z" fill="#e4d9c1" stroke="#e4d9c1"></path><path d="M261.5 258L178.6 344L256.5 373Z" fill="#4f4c45" stroke="#4f4c45"></path><path d="M603.7 147L534.7 53L523.9 127Z" fill="#968f80" stroke="#968f80"></path><path d="M523.9 127L413.1 65L483.9 198Z" fill="#c9c0ab" stroke="#c9c0ab"></path><path d="M342.3 174L219.5 139L342.3 186Z" fill="#fff3d8" stroke="#fff3d8"></path><path d="M635.5 69L534.7 53L603.7 147Z" fill="#656258" stroke="#656258"></path><path d="M635.5 69L603.7 147L641.5 159Z" fill="#393733" stroke="#393733"></path><path d="M494.9 48L413.1 65L523.9 127Z" fill="#968f80" stroke="#968f80"></path><path d="M853.2 521L825.2 421L745.4 467Z" fill="#111111" stroke="#111111"></path><path d="M658.5 600L715.4 600L717.4 544Z" fill="#968f80" stroke="#968f80"></path><path d="M534.7 53L494.9 48L523.9 127Z" fill="#e4d9c1" stroke="#e4d9c1"></path><path d="M722.4 115L635.5 69L641.5 159Z" fill="#c9c0ab" stroke="#c9c0ab"></path><path d="M853.2 521L745.4 467L717.4 544Z" fill="#afa796" stroke="#afa796"></path><path d="M745.4 467L825.2 421L700.4 385Z" fill="#fff3d8" stroke="#fff3d8"></path><path d="M825.2 421L831.2 389L700.4 385Z" fill="#252422" stroke="#252422"></path><path d="M795.2 110L722.4 115L737.4 192Z" fill="#7d786c" stroke="#7d786c"></path><path d="M737.4 192L722.4 115L641.5 159Z" fill="#c9c0ab" stroke="#c9c0ab"></path><path d="M263.5 493L282.5 600L318.3 551Z" fill="#e4d9c1" stroke="#e4d9c1"></path><path d="M204.6 565L282.5 600L263.5 493Z" fill="#fff3d8" stroke="#fff3d8"></path><path d="M224.5 245L178.6 344L261.5 258Z" fill="#393733" stroke="#393733"></path><path d="M124.6 472L204.6 565L263.5 493Z" fill="#111111" stroke="#111111"></path><path d="M395.1 0L358.3 63L413.1 65Z" fill="#7d786c" stroke="#7d786c"></path><path d="M413.1 65L358.3 63L371.1 180Z" fill="#7d786c" stroke="#7d786c"></path><path d="M859.2 258L847.2 244L712.4 262Z" fill="#252422" stroke="#252422"></path><path d="M124.6 472L263.5 493L240.5 425Z" fill="#fff3d8" stroke="#fff3d8"></path><path d="M534.7 53L468.9 0L494.9 48Z" fill="#afa796" stroke="#afa796"></path><path d="M494.9 48L468.9 0L413.1 65Z" fill="#111111" stroke="#111111"></path><path d="M610.7 0L468.9 0L534.7 53Z" fill="#252422" stroke="#252422"></path><path d="M248.5 77L342.3 174L358.3 63Z" fill="#111111" stroke="#111111"></path><path d="M248.5 77L219.5 139L342.3 174Z" fill="#968f80" stroke="#968f80"></path><path d="M224.5 245L147.6 284L178.6 344Z" fill="#252422" stroke="#252422"></path><path d="M831.2 389L859.2 258L712.4 262Z" fill="#c9c0ab" stroke="#c9c0ab"></path><path d="M900 298L859.2 258L831.2 389Z" fill="#111111" stroke="#111111"></path><path d="M164.6 210L147.6 284L224.5 245Z" fill="#393733" stroke="#393733"></path><path d="M178.6 344L117.8 369L240.5 425Z" fill="#111111" stroke="#111111"></path><path d="M219.5 139L164.6 210L224.5 245Z" fill="#252422" stroke="#252422"></path><path d="M680.5 0L610.7 0L635.5 69Z" fill="#7d786c" stroke="#7d786c"></path><path d="M635.5 69L610.7 0L534.7 53Z" fill="#393733" stroke="#393733"></path><path d="M859.2 600L853.2 521L717.4 544Z" fill="#656258" stroke="#656258"></path><path d="M825.2 421L900 412L831.2 389Z" fill="#252422" stroke="#252422"></path><path d="M468.9 0L395.1 0L413.1 65Z" fill="#968f80" stroke="#968f80"></path><path d="M836.2 158L795.2 110L737.4 192Z" fill="#afa796" stroke="#afa796"></path><path d="M709.4 0L680.5 0L635.5 69Z" fill="#393733" stroke="#393733"></path><path d="M836.2 158L737.4 192L847.2 244Z" fill="#fff3d8" stroke="#fff3d8"></path><path d="M900 208L836.2 158L847.2 244Z" fill="#c9c0ab" stroke="#c9c0ab"></path><path d="M344.3 0L248.5 77L358.3 63Z" fill="#c9c0ab" stroke="#c9c0ab"></path><path d="M219.5 139L156.6 159L164.6 210Z" fill="#393733" stroke="#393733"></path><path d="M83.8 600L202.6 600L204.6 565Z" fill="#e4d9c1" stroke="#e4d9c1"></path><path d="M204.6 565L202.6 600L282.5 600Z" fill="#111111" stroke="#111111"></path><path d="M67.8 330L117.8 369L147.6 284Z" fill="#c9c0ab" stroke="#c9c0ab"></path><path d="M147.6 284L117.8 369L178.6 344Z" fill="#afa796" stroke="#afa796"></path><path d="M900 458L900 412L825.2 421Z" fill="#968f80" stroke="#968f80"></path><path d="M859.2 258L900 208L847.2 244Z" fill="#252422" stroke="#252422"></path><path d="M900 412L900 298L831.2 389Z" fill="#fff3d8" stroke="#fff3d8"></path><path d="M395.1 0L344.3 0L358.3 63Z" fill="#e4d9c1" stroke="#e4d9c1"></path><path d="M117.8 369L124.6 472L240.5 425Z" fill="#4f4c45" stroke="#4f4c45"></path><path d="M709.4 0L635.5 69L722.4 115Z" fill="#7d786c" stroke="#7d786c"></path><path d="M853.2 521L900 458L825.2 421Z" fill="#afa796" stroke="#afa796"></path><path d="M152.6 81L156.6 159L219.5 139Z" fill="#4f4c45" stroke="#4f4c45"></path><path d="M164.6 210L96.8 254L147.6 284Z" fill="#393733" stroke="#393733"></path><path d="M795.2 110L709.4 0L722.4 115Z" fill="#fff3d8" stroke="#fff3d8"></path><path d="M813.2 0L709.4 0L795.2 110Z" fill="#968f80" stroke="#968f80"></path><path d="M900 600L900 513L853.2 521Z" fill="#e4d9c1" stroke="#e4d9c1"></path><path d="M853.2 521L900 513L900 458Z" fill="#c9c0ab" stroke="#c9c0ab"></path><path d="M900 298L900 208L859.2 258Z" fill="#fff3d8" stroke="#fff3d8"></path><path d="M836.2 158L900 124L795.2 110Z" fill="#252422" stroke="#252422"></path><path d="M715.4 600L859.2 600L717.4 544Z" fill="#afa796" stroke="#afa796"></path><path d="M156.6 159L96.8 254L164.6 210Z" fill="#4f4c45" stroke="#4f4c45"></path><path d="M117.8 369L76.8 436L124.6 472Z" fill="#393733" stroke="#393733"></path><path d="M67.8 330L76.8 436L117.8 369Z" fill="#e4d9c1" stroke="#e4d9c1"></path><path d="M124.6 472L68.8 549L204.6 565Z" fill="#c9c0ab" stroke="#c9c0ab"></path><path d="M96.8 254L67.8 330L147.6 284Z" fill="#7d786c" stroke="#7d786c"></path><path d="M248.5 77L152.6 81L219.5 139Z" fill="#252422" stroke="#252422"></path><path d="M156.6 159L97.8 107L96.8 254Z" fill="#252422" stroke="#252422"></path><path d="M0 314L0 393L67.8 330Z" fill="#7d786c" stroke="#7d786c"></path><path d="M214.5 0L152.6 81L248.5 77Z" fill="#4f4c45" stroke="#4f4c45"></path><path d="M859.2 600L900 600L853.2 521Z" fill="#c9c0ab" stroke="#c9c0ab"></path><path d="M900 208L900 124L836.2 158Z" fill="#968f80" stroke="#968f80"></path><path d="M344.3 0L214.5 0L248.5 77Z" fill="#fff3d8" stroke="#fff3d8"></path><path d="M900 45L813.2 0L795.2 110Z" fill="#4f4c45" stroke="#4f4c45"></path><path d="M0 489L68.8 549L76.8 436Z" fill="#111111" stroke="#111111"></path><path d="M76.8 436L68.8 549L124.6 472Z" fill="#afa796" stroke="#afa796"></path><path d="M90.8 0L97.8 107L152.6 81Z" fill="#4f4c45" stroke="#4f4c45"></path><path d="M152.6 81L97.8 107L156.6 159Z" fill="#252422" stroke="#252422"></path><path d="M68.8 549L83.8 600L204.6 565Z" fill="#4f4c45" stroke="#4f4c45"></path><path d="M900 124L900 45L795.2 110Z" fill="#252422" stroke="#252422"></path><path d="M67.8 330L0 393L76.8 436Z" fill="#393733" stroke="#393733"></path><path d="M68.8 549L0 600L83.8 600Z" fill="#4f4c45" stroke="#4f4c45"></path><path d="M0 314L67.8 330L0 254Z" fill="#e4d9c1" stroke="#e4d9c1"></path><path d="M0 254L67.8 330L96.8 254Z" fill="#968f80" stroke="#968f80"></path><path d="M214.5 0L137.6 0L152.6 81Z" fill="#7d786c" stroke="#7d786c"></path><path d="M0 149L0 254L96.8 254Z" fill="#e4d9c1" stroke="#e4d9c1"></path><path d="M0 149L96.8 254L97.8 107Z" fill="#252422" stroke="#252422"></path><path d="M0 393L0 489L76.8 436Z" fill="#7d786c" stroke="#7d786c"></path><path d="M90.8 0L54.8 84L97.8 107Z" fill="#afa796" stroke="#afa796"></path><path d="M900 45L900 0L813.2 0Z" fill="#c9c0ab" stroke="#c9c0ab"></path><path d="M0 489L0 550L68.8 549Z" fill="#111111" stroke="#111111"></path><path d="M54.8 84L0 149L97.8 107Z" fill="#fff3d8" stroke="#fff3d8"></path><path d="M137.6 0L90.8 0L152.6 81Z" fill="#4f4c45" stroke="#4f4c45"></path><path d="M54.8 84L0 107L0 149Z" fill="#111111" stroke="#111111"></path><path d="M0 550L0 600L68.8 549Z" fill="#fff3d8" stroke="#fff3d8"></path><path d="M0 0L0 107L54.8 84Z" fill="#968f80" stroke="#968f80"></path><path d="M90.8 0L0 0L54.8 84Z" fill="#7d786c" stroke="#7d786c"></path></g></svg>