<svg id="visual" viewBox="0 0 900 600" width="900" height="600" xmlns="http://www.w3.org/2000/svg" xmlns:xlink="http://www.w3.org/1999/xlink" version="1.1"><g stroke-width="1" stroke-linejoin="bevel"><path d="M472.9 318L538.7 339L508.9 265Z" fill="#121d35" stroke="#121d35"></path><path d="M472.9 318L511.9 376L538.7 339Z" fill="#b3c1c9" stroke="#b3c1c9"></path><path d="M511.9 376L596.7 358L538.7 339Z" fill="#b3c1c9" stroke="#b3c1c9"></path><path d="M538.7 339L568.7 204L508.9 265Z" fill="#121d35" stroke="#121d35"></path><path d="M596.7 358L568.7 204L538.7 339Z" fill="#cfdbe1" stroke="#cfdbe1"></path><path d="M472.9 318L429.1 393L511.9 376Z" fill="#39475d" stroke="#39475d"></path><path d="M422.1 198L387.1 313L472.9 318Z" fill="#121d35" stroke="#121d35"></path><path d="M472.9 318L387.1 313L429.1 393Z" fill="#4e5e72" stroke="#4e5e72"></path><path d="M422.1 198L472.9 318L508.9 265Z" fill="#121d35" stroke="#121d35"></path><path d="M634.5 434L630.5 378L596.7 358Z" fill="#97a8b3" stroke="#97a8b3"></path><path d="M596.7 358L684.5 310L568.7 204Z" fill="#4e5e72" stroke="#4e5e72"></path><path d="M586.7 472L596.7 358L511.9 376Z" fill="#cfdbe1" stroke="#cfdbe1"></path><path d="M473.9 149L422.1 198L508.9 265Z" fill="#97a8b3" stroke="#97a8b3"></path><path d="M568.7 204L473.9 149L508.9 265Z" fill="#4e5e72" stroke="#4e5e72"></path><path d="M674.5 188L551.7 146L568.7 204Z" fill="#39475d" stroke="#39475d"></path><path d="M568.7 204L551.7 146L473.9 149Z" fill="#121d35" stroke="#121d35"></path><path d="M429.1 393L522.9 475L511.9 376Z" fill="#121d35" stroke="#121d35"></path><path d="M630.5 378L684.5 310L596.7 358Z" fill="#39475d" stroke="#39475d"></path><path d="M473.9 149L419.1 158L422.1 198Z" fill="#b3c1c9" stroke="#b3c1c9"></path><path d="M422.1 198L311.3 222L387.1 313Z" fill="#b3c1c9" stroke="#b3c1c9"></path><path d="M586.7 472L634.5 434L596.7 358Z" fill="#000222" stroke="#000222"></path><path d="M630.5 378L709.4 360L684.5 310Z" fill="#121d35" stroke="#121d35"></path><path d="M522.9 475L586.7 472L511.9 376Z" fill="#7d8f9d" stroke="#7d8f9d"></path><path d="M391.1 473L526.9 501L522.9 475Z" fill="#657687" stroke="#657687"></path><path d="M522.9 475L554.7 504L586.7 472Z" fill="#657687" stroke="#657687"></path><path d="M684.5 310L674.5 188L568.7 204Z" fill="#121d35" stroke="#121d35"></path><path d="M709.4 360L710.4 266L684.5 310Z" fill="#4e5e72" stroke="#4e5e72"></path><path d="M684.5 310L710.4 266L674.5 188Z" fill="#4e5e72" stroke="#4e5e72"></path><path d="M526.9 501L554.7 504L522.9 475Z" fill="#253149" stroke="#253149"></path><path d="M586.7 472L678.5 491L634.5 434Z" fill="#7d8f9d" stroke="#7d8f9d"></path><path d="M634.5 434L709.4 360L630.5 378Z" fill="#edf6f9" stroke="#edf6f9"></path><path d="M672.5 71L537.7 104L551.7 146Z" fill="#97a8b3" stroke="#97a8b3"></path><path d="M551.7 146L537.7 104L473.9 149Z" fill="#253149" stroke="#253149"></path><path d="M473.9 149L469.9 106L419.1 158Z" fill="#39475d" stroke="#39475d"></path><path d="M537.7 104L469.9 106L473.9 149Z" fill="#edf6f9" stroke="#edf6f9"></path><path d="M320.3 422L391.1 473L429.1 393Z" fill="#7d8f9d" stroke="#7d8f9d"></path><path d="M429.1 393L391.1 473L522.9 475Z" fill="#b3c1c9" stroke="#b3c1c9"></path><path d="M744.4 183L679.5 177L674.5 188Z" fill="#cfdbe1" stroke="#cfdbe1"></path><path d="M674.5 188L679.5 177L551.7 146Z" fill="#b3c1c9" stroke="#b3c1c9"></path><path d="M297.3 152L311.3 222L419.1 158Z" fill="#121d35" stroke="#121d35"></path><path d="M419.1 158L311.3 222L422.1 198Z" fill="#4e5e72" stroke="#4e5e72"></path><path d="M387.1 313L320.3 422L429.1 393Z" fill="#000222" stroke="#000222"></path><path d="M311.3 222L290.3 283L387.1 313Z" fill="#b3c1c9" stroke="#b3c1c9"></path><path d="M280.5 350L320.3 422L387.1 313Z" fill="#97a8b3" stroke="#97a8b3"></path><path d="M290.3 283L280.5 350L387.1 313Z" fill="#cfdbe1" stroke="#cfdbe1"></path><path d="M489.9 0L434.1 80L469.9 106Z" fill="#000222" stroke="#000222"></path><path d="M469.9 106L434.1 80L419.1 158Z" fill="#b3c1c9" stroke="#b3c1c9"></path><path d="M280.5 350L286.3 405L320.3 422Z" fill="#39475d" stroke="#39475d"></path><path d="M315.3 547L396.1 536L391.1 473Z" fill="#edf6f9" stroke="#edf6f9"></path><path d="M554.7 504L678.5 491L586.7 472Z" fill="#000222" stroke="#000222"></path><path d="M634.5 434L758.4 439L709.4 360Z" fill="#7d8f9d" stroke="#7d8f9d"></path><path d="M744.4 183L698.4 138L679.5 177Z" fill="#cfdbe1" stroke="#cfdbe1"></path><path d="M679.5 177L672.5 71L551.7 146Z" fill="#39475d" stroke="#39475d"></path><path d="M537.7 104L489.9 0L469.9 106Z" fill="#7d8f9d" stroke="#7d8f9d"></path><path d="M315.3 547L391.1 473L320.3 422Z" fill="#657687" stroke="#657687"></path><path d="M391.1 473L396.1 536L526.9 501Z" fill="#97a8b3" stroke="#97a8b3"></path><path d="M526.9 501L538.7 600L554.7 504Z" fill="#121d35" stroke="#121d35"></path><path d="M554.7 504L697.4 523L678.5 491Z" fill="#cfdbe1" stroke="#cfdbe1"></path><path d="M710.4 266L744.4 183L674.5 188Z" fill="#4e5e72" stroke="#4e5e72"></path><path d="M807.2 235L744.4 183L710.4 266Z" fill="#edf6f9" stroke="#edf6f9"></path><path d="M308.3 56L297.3 152L419.1 158Z" fill="#253149" stroke="#253149"></path><path d="M206.5 185L211.5 293L290.3 283Z" fill="#121d35" stroke="#121d35"></path><path d="M290.3 283L211.5 293L280.5 350Z" fill="#cfdbe1" stroke="#cfdbe1"></path><path d="M678.5 491L758.4 439L634.5 434Z" fill="#4e5e72" stroke="#4e5e72"></path><path d="M856.2 338L807.2 235L710.4 266Z" fill="#edf6f9" stroke="#edf6f9"></path><path d="M727.4 63L672.5 71L698.4 138Z" fill="#4e5e72" stroke="#4e5e72"></path><path d="M698.4 138L672.5 71L679.5 177Z" fill="#7d8f9d" stroke="#7d8f9d"></path><path d="M683.5 600L697.4 523L554.7 504Z" fill="#000222" stroke="#000222"></path><path d="M678.5 491L697.4 523L758.4 439Z" fill="#b3c1c9" stroke="#b3c1c9"></path><path d="M396.1 536L512.9 600L526.9 501Z" fill="#edf6f9" stroke="#edf6f9"></path><path d="M512.9 600L538.7 600L526.9 501Z" fill="#97a8b3" stroke="#97a8b3"></path><path d="M206.5 185L290.3 283L311.3 222Z" fill="#121d35" stroke="#121d35"></path><path d="M280.5 350L196.6 405L286.3 405Z" fill="#edf6f9" stroke="#edf6f9"></path><path d="M849.2 268L807.2 235L856.2 338Z" fill="#657687" stroke="#657687"></path><path d="M781.2 108L727.4 63L698.4 138Z" fill="#b3c1c9" stroke="#b3c1c9"></path><path d="M544.7 0L489.9 0L537.7 104Z" fill="#253149" stroke="#253149"></path><path d="M434.1 80L308.3 56L419.1 158Z" fill="#253149" stroke="#253149"></path><path d="M396.1 536L422.1 600L512.9 600Z" fill="#657687" stroke="#657687"></path><path d="M315.3 547L422.1 600L396.1 536Z" fill="#4e5e72" stroke="#4e5e72"></path><path d="M625.5 0L544.7 0L537.7 104Z" fill="#edf6f9" stroke="#edf6f9"></path><path d="M259.5 493L320.3 422L286.3 405Z" fill="#657687" stroke="#657687"></path><path d="M259.5 493L315.3 547L320.3 422Z" fill="#cfdbe1" stroke="#cfdbe1"></path><path d="M230.5 485L259.5 493L286.3 405Z" fill="#97a8b3" stroke="#97a8b3"></path><path d="M394.1 0L308.3 56L434.1 80Z" fill="#7d8f9d" stroke="#7d8f9d"></path><path d="M297.3 152L206.5 185L311.3 222Z" fill="#657687" stroke="#657687"></path><path d="M781.2 108L698.4 138L744.4 183Z" fill="#253149" stroke="#253149"></path><path d="M672.5 71L625.5 0L537.7 104Z" fill="#97a8b3" stroke="#97a8b3"></path><path d="M722.4 0L625.5 0L672.5 71Z" fill="#000222" stroke="#000222"></path><path d="M489.9 0L394.1 0L434.1 80Z" fill="#121d35" stroke="#121d35"></path><path d="M225.5 115L206.5 185L297.3 152Z" fill="#97a8b3" stroke="#97a8b3"></path><path d="M95.8 308L196.6 405L211.5 293Z" fill="#cfdbe1" stroke="#cfdbe1"></path><path d="M211.5 293L196.6 405L280.5 350Z" fill="#97a8b3" stroke="#97a8b3"></path><path d="M807.2 235L781.2 108L744.4 183Z" fill="#cfdbe1" stroke="#cfdbe1"></path><path d="M196.6 405L230.5 485L286.3 405Z" fill="#7d8f9d" stroke="#7d8f9d"></path><path d="M248.5 600L285.3 600L315.3 547Z" fill="#edf6f9" stroke="#edf6f9"></path><path d="M856.2 338L710.4 266L709.4 360Z" fill="#cfdbe1" stroke="#cfdbe1"></path><path d="M900 116L790.2 89L781.2 108Z" fill="#edf6f9" stroke="#edf6f9"></path><path d="M697.4 523L792.2 498L758.4 439Z" fill="#97a8b3" stroke="#97a8b3"></path><path d="M758.4 439L856.2 338L709.4 360Z" fill="#cfdbe1" stroke="#cfdbe1"></path><path d="M809.2 600L792.2 498L697.4 523Z" fill="#253149" stroke="#253149"></path><path d="M538.7 600L683.5 600L554.7 504Z" fill="#000222" stroke="#000222"></path><path d="M858.2 486L856.2 338L758.4 439Z" fill="#657687" stroke="#657687"></path><path d="M308.3 56L225.5 115L297.3 152Z" fill="#253149" stroke="#253149"></path><path d="M683.5 600L702.4 600L697.4 523Z" fill="#253149" stroke="#253149"></path><path d="M900 191L781.2 108L807.2 235Z" fill="#253149" stroke="#253149"></path><path d="M781.2 108L790.2 89L727.4 63Z" fill="#7d8f9d" stroke="#7d8f9d"></path><path d="M727.4 63L722.4 0L672.5 71Z" fill="#edf6f9" stroke="#edf6f9"></path><path d="M232.5 0L225.5 115L308.3 56Z" fill="#cfdbe1" stroke="#cfdbe1"></path><path d="M232.5 0L203.5 105L225.5 115Z" fill="#657687" stroke="#657687"></path><path d="M225.5 115L167.6 148L206.5 185Z" fill="#edf6f9" stroke="#edf6f9"></path><path d="M159.6 465L180.6 482L196.6 405Z" fill="#657687" stroke="#657687"></path><path d="M835.2 0L722.4 0L727.4 63Z" fill="#b3c1c9" stroke="#b3c1c9"></path><path d="M248.5 600L315.3 547L259.5 493Z" fill="#cfdbe1" stroke="#cfdbe1"></path><path d="M315.3 547L285.3 600L422.1 600Z" fill="#cfdbe1" stroke="#cfdbe1"></path><path d="M394.1 0L300.3 0L308.3 56Z" fill="#cfdbe1" stroke="#cfdbe1"></path><path d="M149.6 205L211.5 293L206.5 185Z" fill="#cfdbe1" stroke="#cfdbe1"></path><path d="M196.6 405L180.6 482L230.5 485Z" fill="#253149" stroke="#253149"></path><path d="M230.5 485L248.5 600L259.5 493Z" fill="#cfdbe1" stroke="#cfdbe1"></path><path d="M167.6 148L149.6 205L206.5 185Z" fill="#657687" stroke="#657687"></path><path d="M203.5 105L167.6 148L225.5 115Z" fill="#39475d" stroke="#39475d"></path><path d="M95.8 308L130.6 264L76.8 194Z" fill="#121d35" stroke="#121d35"></path><path d="M149.6 205L130.6 264L211.5 293Z" fill="#657687" stroke="#657687"></path><path d="M109.8 414L159.6 465L196.6 405Z" fill="#253149" stroke="#253149"></path><path d="M180.6 482L248.5 600L230.5 485Z" fill="#97a8b3" stroke="#97a8b3"></path><path d="M856.2 338L900 333L849.2 268Z" fill="#000222" stroke="#000222"></path><path d="M849.2 268L900 191L807.2 235Z" fill="#39475d" stroke="#39475d"></path><path d="M900 344L900 333L856.2 338Z" fill="#657687" stroke="#657687"></path><path d="M900 473L900 344L856.2 338Z" fill="#121d35" stroke="#121d35"></path><path d="M809.2 600L858.2 486L792.2 498Z" fill="#b3c1c9" stroke="#b3c1c9"></path><path d="M792.2 498L858.2 486L758.4 439Z" fill="#7d8f9d" stroke="#7d8f9d"></path><path d="M147.6 600L248.5 600L180.6 482Z" fill="#7d8f9d" stroke="#7d8f9d"></path><path d="M900 333L900 191L849.2 268Z" fill="#b3c1c9" stroke="#b3c1c9"></path><path d="M790.2 89L835.2 0L727.4 63Z" fill="#39475d" stroke="#39475d"></path><path d="M300.3 0L232.5 0L308.3 56Z" fill="#39475d" stroke="#39475d"></path><path d="M203.5 105L125.6 92L167.6 148Z" fill="#edf6f9" stroke="#edf6f9"></path><path d="M130.6 264L95.8 308L211.5 293Z" fill="#4e5e72" stroke="#4e5e72"></path><path d="M76.8 194L130.6 264L149.6 205Z" fill="#97a8b3" stroke="#97a8b3"></path><path d="M76.8 194L149.6 205L89.8 129Z" fill="#97a8b3" stroke="#97a8b3"></path><path d="M702.4 600L809.2 600L697.4 523Z" fill="#253149" stroke="#253149"></path><path d="M95.8 308L109.8 414L196.6 405Z" fill="#97a8b3" stroke="#97a8b3"></path><path d="M159.6 465L147.6 600L180.6 482Z" fill="#7d8f9d" stroke="#7d8f9d"></path><path d="M900 550L900 473L858.2 486Z" fill="#b3c1c9" stroke="#b3c1c9"></path><path d="M858.2 486L900 473L856.2 338Z" fill="#000222" stroke="#000222"></path><path d="M900 191L900 116L781.2 108Z" fill="#253149" stroke="#253149"></path><path d="M190.6 0L125.6 92L203.5 105Z" fill="#253149" stroke="#253149"></path><path d="M232.5 0L190.6 0L203.5 105Z" fill="#edf6f9" stroke="#edf6f9"></path><path d="M900 59L835.2 0L790.2 89Z" fill="#97a8b3" stroke="#97a8b3"></path><path d="M89.8 129L149.6 205L167.6 148Z" fill="#b3c1c9" stroke="#b3c1c9"></path><path d="M0 406L58.8 486L109.8 414Z" fill="#b3c1c9" stroke="#b3c1c9"></path><path d="M809.2 600L900 550L858.2 486Z" fill="#cfdbe1" stroke="#cfdbe1"></path><path d="M86.8 87L89.8 129L125.6 92Z" fill="#121d35" stroke="#121d35"></path><path d="M125.6 92L89.8 129L167.6 148Z" fill="#edf6f9" stroke="#edf6f9"></path><path d="M900 116L900 59L790.2 89Z" fill="#cfdbe1" stroke="#cfdbe1"></path><path d="M58.8 486L147.6 600L159.6 465Z" fill="#edf6f9" stroke="#edf6f9"></path><path d="M67.8 0L86.8 87L125.6 92Z" fill="#cfdbe1" stroke="#cfdbe1"></path><path d="M0 177L0 250L76.8 194Z" fill="#121d35" stroke="#121d35"></path><path d="M809.2 600L900 600L900 550Z" fill="#edf6f9" stroke="#edf6f9"></path><path d="M0 406L109.8 414L95.8 308Z" fill="#657687" stroke="#657687"></path><path d="M109.8 414L58.8 486L159.6 465Z" fill="#b3c1c9" stroke="#b3c1c9"></path><path d="M900 59L900 0L835.2 0Z" fill="#000222" stroke="#000222"></path><path d="M0 250L95.8 308L76.8 194Z" fill="#97a8b3" stroke="#97a8b3"></path><path d="M0 250L0 304L95.8 308Z" fill="#97a8b3" stroke="#97a8b3"></path><path d="M0 177L76.8 194L89.8 129Z" fill="#b3c1c9" stroke="#b3c1c9"></path><path d="M0 304L0 406L95.8 308Z" fill="#cfdbe1" stroke="#cfdbe1"></path><path d="M0 56L0 177L89.8 129Z" fill="#657687" stroke="#657687"></path><path d="M0 544L47.8 565L58.8 486Z" fill="#cfdbe1" stroke="#cfdbe1"></path><path d="M58.8 486L47.8 565L147.6 600Z" fill="#121d35" stroke="#121d35"></path><path d="M190.6 0L67.8 0L125.6 92Z" fill="#b3c1c9" stroke="#b3c1c9"></path><path d="M86.8 87L0 56L89.8 129Z" fill="#97a8b3" stroke="#97a8b3"></path><path d="M0 406L0 479L58.8 486Z" fill="#4e5e72" stroke="#4e5e72"></path><path d="M47.8 565L50.8 600L147.6 600Z" fill="#121d35" stroke="#121d35"></path><path d="M0 600L50.8 600L47.8 565Z" fill="#cfdbe1" stroke="#cfdbe1"></path><path d="M0 479L0 544L58.8 486Z" fill="#edf6f9" stroke="#edf6f9"></path><path d="M67.8 0L0 56L86.8 87Z" fill="#b3c1c9" stroke="#b3c1c9"></path><path d="M0 544L0 600L47.8 565Z" fill="#97a8b3" stroke="#97a8b3"></path><path d="M67.8 0L0 0L0 56Z" fill="#b3c1c9" stroke="#b3c1c9"></path></g></svg>