<svg id="visual" viewBox="0 0 900 600" width="900" height="600" xmlns="http://www.w3.org/2000/svg" xmlns:xlink="http://www.w3.org/1999/xlink" version="1.1"><g stroke-width="1" stroke-linejoin="bevel"><path d="M424 338.9L392 281.1L381 342.9Z" fill="#fce8da" stroke="#fce8da"></path><path d="M424 338.9L409 254.1L392 281.1Z" fill="#fbeadd" stroke="#fbeadd"></path><path d="M527 326.9L454 211.4L409 254.1Z" fill="#fde5d8" stroke="#fde5d8"></path><path d="M424 338.9L527 326.9L409 254.1Z" fill="#faefe3" stroke="#faefe3"></path><path d="M267 302.9L355 436.6L381 342.9Z" fill="#faf1e6" stroke="#faf1e6"></path><path d="M381 342.9L355 436.6L424 338.9Z" fill="#faf6ed" stroke="#faf6ed"></path><path d="M424 338.9L485 431.6L527 326.9Z" fill="#faf1e6" stroke="#faf1e6"></path><path d="M261 243.1L267 302.9L392 281.1Z" fill="#faefe3" stroke="#faefe3"></path><path d="M392 281.1L267 302.9L381 342.9Z" fill="#faf1e6" stroke="#faf1e6"></path><path d="M391 177.4L392 281.1L409 254.1Z" fill="#fde2d6" stroke="#fde2d6"></path><path d="M454 211.4L391 177.4L409 254.1Z" fill="#fde5d8" stroke="#fde5d8"></path><path d="M355 436.6L485 431.6L424 338.9Z" fill="#fde5d8" stroke="#fde5d8"></path><path d="M391 177.4L261 243.1L392 281.1Z" fill="#fce8da" stroke="#fce8da"></path><path d="M569 400.6L557 298.1L527 326.9Z" fill="#fee0d4" stroke="#fee0d4"></path><path d="M527 326.9L557 298.1L454 211.4Z" fill="#faefe3" stroke="#faefe3"></path><path d="M485 431.6L569 400.6L527 326.9Z" fill="#fee0d4" stroke="#fee0d4"></path><path d="M267 302.9L262 456.6L355 436.6Z" fill="#fce8da" stroke="#fce8da"></path><path d="M355 436.6L457 523.3L485 431.6Z" fill="#ffddd2" stroke="#ffddd2"></path><path d="M213 429.6L262 456.6L267 302.9Z" fill="#faf1e6" stroke="#faf1e6"></path><path d="M391 177.4L266 160.4L261 243.1Z" fill="#faf1e6" stroke="#faf1e6"></path><path d="M391 177.4L318 121.7L266 160.4Z" fill="#faf1e6" stroke="#faf1e6"></path><path d="M420 50.7L318 121.7L391 177.4Z" fill="#fbeadd" stroke="#fbeadd"></path><path d="M345 547.3L457 523.3L355 436.6Z" fill="#faefe3" stroke="#faefe3"></path><path d="M498 540.3L609 412.6L569 400.6Z" fill="#faf4e9" stroke="#faf4e9"></path><path d="M168 352.9L267 302.9L148 263.1Z" fill="#fde5d8" stroke="#fde5d8"></path><path d="M168 352.9L213 429.6L267 302.9Z" fill="#fde2d6" stroke="#fde2d6"></path><path d="M653 348.9L620 268.1L557 298.1Z" fill="#fee0d4" stroke="#fee0d4"></path><path d="M557 298.1L578 142.4L454 211.4Z" fill="#fee0d4" stroke="#fee0d4"></path><path d="M454 211.4L506 109.7L391 177.4Z" fill="#fbeadd" stroke="#fbeadd"></path><path d="M578 142.4L506 109.7L454 211.4Z" fill="#faf1e6" stroke="#faf1e6"></path><path d="M498 540.3L569 400.6L485 431.6Z" fill="#fde5d8" stroke="#fde5d8"></path><path d="M569 400.6L653 348.9L557 298.1Z" fill="#faf6ed" stroke="#faf6ed"></path><path d="M148 263.1L267 302.9L261 243.1Z" fill="#ffddd2" stroke="#ffddd2"></path><path d="M243 497.3L345 547.3L262 456.6Z" fill="#fde2d6" stroke="#fde2d6"></path><path d="M262 456.6L345 547.3L355 436.6Z" fill="#fce8da" stroke="#fce8da"></path><path d="M191 489.3L243 497.3L213 429.6Z" fill="#faefe3" stroke="#faefe3"></path><path d="M213 429.6L243 497.3L262 456.6Z" fill="#faf6ed" stroke="#faf6ed"></path><path d="M416 600L498 540.3L457 523.3Z" fill="#faefe3" stroke="#faefe3"></path><path d="M457 523.3L498 540.3L485 431.6Z" fill="#faf4e9" stroke="#faf4e9"></path><path d="M620 268.1L578 142.4L557 298.1Z" fill="#faede0" stroke="#faede0"></path><path d="M609 412.6L653 348.9L569 400.6Z" fill="#fce8da" stroke="#fce8da"></path><path d="M620 268.1L663 209.4L578 142.4Z" fill="#faf1e6" stroke="#faf1e6"></path><path d="M142 196.4L148 263.1L261 243.1Z" fill="#fbeadd" stroke="#fbeadd"></path><path d="M491 0L420 50.7L506 109.7Z" fill="#faf4e9" stroke="#faf4e9"></path><path d="M506 109.7L420 50.7L391 177.4Z" fill="#faf4e9" stroke="#faf4e9"></path><path d="M119 493.3L191 489.3L213 429.6Z" fill="#fde2d6" stroke="#fde2d6"></path><path d="M256 600L384 600L345 547.3Z" fill="#faf1e6" stroke="#faf1e6"></path><path d="M119 493.3L213 429.6L78 423.6Z" fill="#fde5d8" stroke="#fde5d8"></path><path d="M686 275.1L663 209.4L620 268.1Z" fill="#fbeadd" stroke="#fbeadd"></path><path d="M266 160.4L142 196.4L261 243.1Z" fill="#fee0d4" stroke="#fee0d4"></path><path d="M209 75.7L142 196.4L266 160.4Z" fill="#fde2d6" stroke="#fde2d6"></path><path d="M228 74.7L266 160.4L318 121.7Z" fill="#fde2d6" stroke="#fde2d6"></path><path d="M384 600L416 600L345 547.3Z" fill="#faf4e9" stroke="#faf4e9"></path><path d="M345 547.3L416 600L457 523.3Z" fill="#ffddd2" stroke="#ffddd2"></path><path d="M256 600L345 547.3L243 497.3Z" fill="#fde5d8" stroke="#fde5d8"></path><path d="M653 348.9L686 275.1L620 268.1Z" fill="#fce8da" stroke="#fce8da"></path><path d="M332 0L228 74.7L318 121.7Z" fill="#faf6ed" stroke="#faf6ed"></path><path d="M245 0L209 75.7L228 74.7Z" fill="#faf4e9" stroke="#faf4e9"></path><path d="M228 74.7L209 75.7L266 160.4Z" fill="#fce8da" stroke="#fce8da"></path><path d="M611 600L660 491.3L498 540.3Z" fill="#faf1e6" stroke="#faf1e6"></path><path d="M498 540.3L660 491.3L609 412.6Z" fill="#fde5d8" stroke="#fde5d8"></path><path d="M609 412.6L699 455.6L653 348.9Z" fill="#faefe3" stroke="#faefe3"></path><path d="M653 348.9L733 352.9L686 275.1Z" fill="#fbeadd" stroke="#fbeadd"></path><path d="M188 600L256 600L243 497.3Z" fill="#fce8da" stroke="#fce8da"></path><path d="M420 50.7L332 0L318 121.7Z" fill="#faf4e9" stroke="#faf4e9"></path><path d="M416 600L549 600L498 540.3Z" fill="#faede0" stroke="#faede0"></path><path d="M528 0L506 109.7L589 0Z" fill="#fde2d6" stroke="#fde2d6"></path><path d="M528 0L491 0L506 109.7Z" fill="#ffddd2" stroke="#ffddd2"></path><path d="M420 50.7L491 0L332 0Z" fill="#fce8da" stroke="#fce8da"></path><path d="M710 550.3L699 455.6L660 491.3Z" fill="#fce8da" stroke="#fce8da"></path><path d="M660 491.3L699 455.6L609 412.6Z" fill="#fde2d6" stroke="#fde2d6"></path><path d="M78 423.6L168 352.9L54 365.9Z" fill="#ffddd2" stroke="#ffddd2"></path><path d="M78 423.6L213 429.6L168 352.9Z" fill="#faefe3" stroke="#faefe3"></path><path d="M191 489.3L188 600L243 497.3Z" fill="#fbeadd" stroke="#fbeadd"></path><path d="M699 455.6L733 352.9L653 348.9Z" fill="#faefe3" stroke="#faefe3"></path><path d="M743 147.4L670 105.7L663 209.4Z" fill="#faf4e9" stroke="#faf4e9"></path><path d="M589 0L506 109.7L578 142.4Z" fill="#fbeadd" stroke="#fbeadd"></path><path d="M54 365.9L168 352.9L148 263.1Z" fill="#faf4e9" stroke="#faf4e9"></path><path d="M663 209.4L670 105.7L578 142.4Z" fill="#faf4e9" stroke="#faf4e9"></path><path d="M743 147.4L663 209.4L686 275.1Z" fill="#fbeadd" stroke="#fbeadd"></path><path d="M107 113.7L69 217.1L142 196.4Z" fill="#faf4e9" stroke="#faf4e9"></path><path d="M142 196.4L69 217.1L148 263.1Z" fill="#fee0d4" stroke="#fee0d4"></path><path d="M69 217.1L54 365.9L148 263.1Z" fill="#fee0d4" stroke="#fee0d4"></path><path d="M332 0L245 0L228 74.7Z" fill="#faede0" stroke="#faede0"></path><path d="M209 75.7L107 113.7L142 196.4Z" fill="#faf4e9" stroke="#faf4e9"></path><path d="M549 600L611 600L498 540.3Z" fill="#fbeadd" stroke="#fbeadd"></path><path d="M111 0L107 113.7L209 75.7Z" fill="#faede0" stroke="#faede0"></path><path d="M119 493.3L188 600L191 489.3Z" fill="#fbeadd" stroke="#fbeadd"></path><path d="M670 105.7L589 0L578 142.4Z" fill="#faefe3" stroke="#faefe3"></path><path d="M831 229.1L743 147.4L686 275.1Z" fill="#fee0d4" stroke="#fee0d4"></path><path d="M670 105.7L696 0L589 0Z" fill="#faf1e6" stroke="#faf1e6"></path><path d="M245 0L184 0L209 75.7Z" fill="#fce8da" stroke="#fce8da"></path><path d="M611 600L710 550.3L660 491.3Z" fill="#faf4e9" stroke="#faf4e9"></path><path d="M699 455.6L787 384.9L733 352.9Z" fill="#fde2d6" stroke="#fde2d6"></path><path d="M832 438.6L787 384.9L699 455.6Z" fill="#fde2d6" stroke="#fde2d6"></path><path d="M733 352.9L831 229.1L686 275.1Z" fill="#ffddd2" stroke="#ffddd2"></path><path d="M792 117.7L744 122.7L743 147.4Z" fill="#fce8da" stroke="#fce8da"></path><path d="M743 147.4L744 122.7L670 105.7Z" fill="#ffddd2" stroke="#ffddd2"></path><path d="M107 113.7L47 133.4L69 217.1Z" fill="#faf4e9" stroke="#faf4e9"></path><path d="M69 217.1L0 306.9L54 365.9Z" fill="#fce8da" stroke="#fce8da"></path><path d="M0 102.7L47 133.4L107 113.7Z" fill="#fee0d4" stroke="#fee0d4"></path><path d="M0 256.1L0 306.9L69 217.1Z" fill="#faefe3" stroke="#faefe3"></path><path d="M54 365.9L0 403.6L78 423.6Z" fill="#fde2d6" stroke="#fde2d6"></path><path d="M78 423.6L0 534.3L119 493.3Z" fill="#faf6ed" stroke="#faf6ed"></path><path d="M0 158.4L0 256.1L69 217.1Z" fill="#fde2d6" stroke="#fde2d6"></path><path d="M0 306.9L0 403.6L54 365.9Z" fill="#faefe3" stroke="#faefe3"></path><path d="M119 493.3L93 600L188 600Z" fill="#faf1e6" stroke="#faf1e6"></path><path d="M0 534.3L93 600L119 493.3Z" fill="#faede0" stroke="#faede0"></path><path d="M184 0L111 0L209 75.7Z" fill="#faf1e6" stroke="#faf1e6"></path><path d="M0 102.7L0 158.4L47 133.4Z" fill="#faede0" stroke="#faede0"></path><path d="M47 133.4L0 158.4L69 217.1Z" fill="#faefe3" stroke="#faefe3"></path><path d="M744 122.7L696 0L670 105.7Z" fill="#faf1e6" stroke="#faf1e6"></path><path d="M848 160.4L792 117.7L743 147.4Z" fill="#fce8da" stroke="#fce8da"></path><path d="M744 122.7L823 0L696 0Z" fill="#faefe3" stroke="#faefe3"></path><path d="M710 550.3L774 544.3L699 455.6Z" fill="#fce8da" stroke="#fce8da"></path><path d="M748 600L774 544.3L710 550.3Z" fill="#fbeadd" stroke="#fbeadd"></path><path d="M787 384.9L831 229.1L733 352.9Z" fill="#faf6ed" stroke="#faf6ed"></path><path d="M900 317.9L831 229.1L787 384.9Z" fill="#fbeadd" stroke="#fbeadd"></path><path d="M774 544.3L832 438.6L699 455.6Z" fill="#faefe3" stroke="#faefe3"></path><path d="M611 600L748 600L710 550.3Z" fill="#faefe3" stroke="#faefe3"></path><path d="M774 544.3L900 556.3L832 438.6Z" fill="#fde5d8" stroke="#fde5d8"></path><path d="M111 0L0 102.7L107 113.7Z" fill="#faefe3" stroke="#faefe3"></path><path d="M0 403.6L0 534.3L78 423.6Z" fill="#ffddd2" stroke="#ffddd2"></path><path d="M900 186.4L848 160.4L831 229.1Z" fill="#fde5d8" stroke="#fde5d8"></path><path d="M831 229.1L848 160.4L743 147.4Z" fill="#fbeadd" stroke="#fbeadd"></path><path d="M792 117.7L823 0L744 122.7Z" fill="#faf6ed" stroke="#faf6ed"></path><path d="M0 534.3L0 600L93 600Z" fill="#faf6ed" stroke="#faf6ed"></path><path d="M900 428.6L900 317.9L832 438.6Z" fill="#faf1e6" stroke="#faf1e6"></path><path d="M832 438.6L900 317.9L787 384.9Z" fill="#fde5d8" stroke="#fde5d8"></path><path d="M748 600L811 600L774 544.3Z" fill="#ffddd2" stroke="#ffddd2"></path><path d="M900 317.9L900 281.1L831 229.1Z" fill="#faf1e6" stroke="#faf1e6"></path><path d="M111 0L0 0L0 102.7Z" fill="#ffddd2" stroke="#ffddd2"></path><path d="M900 556.3L900 428.6L832 438.6Z" fill="#fee0d4" stroke="#fee0d4"></path><path d="M900 281.1L900 186.4L831 229.1Z" fill="#faefe3" stroke="#faefe3"></path><path d="M900 100.7L823 0L792 117.7Z" fill="#ffddd2" stroke="#ffddd2"></path><path d="M900 100.7L792 117.7L848 160.4Z" fill="#faf6ed" stroke="#faf6ed"></path><path d="M900 186.4L900 100.7L848 160.4Z" fill="#fce8da" stroke="#fce8da"></path><path d="M811 600L900 556.3L774 544.3Z" fill="#faefe3" stroke="#faefe3"></path><path d="M811 600L900 600L900 556.3Z" fill="#faefe3" stroke="#faefe3"></path><path d="M900 100.7L900 0L823 0Z" fill="#faf4e9" stroke="#faf4e9"></path></g></svg>