<svg id="visual" viewBox="0 0 900 600" width="900" height="600" xmlns="http://www.w3.org/2000/svg" xmlns:xlink="http://www.w3.org/1999/xlink" version="1.1"><g stroke-width="1" stroke-linejoin="bevel"><path d="M428 300.9L437 269.1L338 249.1Z" fill="#e2f1f5" stroke="#e2f1f5"></path><path d="M338 249.1L353 364.9L428 300.9Z" fill="#b7dde1" stroke="#b7dde1"></path><path d="M300 282.1L302 320.9L338 249.1Z" fill="#d8ecf1" stroke="#d8ecf1"></path><path d="M302 320.9L353 364.9L338 249.1Z" fill="#cde7ec" stroke="#cde7ec"></path><path d="M437 269.1L397 167.4L338 249.1Z" fill="#c2e2e7" stroke="#c2e2e7"></path><path d="M338 249.1L279 140.4L300 282.1Z" fill="#e2f1f5" stroke="#e2f1f5"></path><path d="M525 246.1L479 191.4L437 269.1Z" fill="#a2d3d4" stroke="#a2d3d4"></path><path d="M437 269.1L479 191.4L397 167.4Z" fill="#cde7ec" stroke="#cde7ec"></path><path d="M581 302.9L525 246.1L428 300.9Z" fill="#edf6f9" stroke="#edf6f9"></path><path d="M428 300.9L525 246.1L437 269.1Z" fill="#d8ecf1" stroke="#d8ecf1"></path><path d="M397 167.4L279 140.4L338 249.1Z" fill="#edf6f9" stroke="#edf6f9"></path><path d="M300 282.1L211 311.9L302 320.9Z" fill="#97cfcd" stroke="#97cfcd"></path><path d="M353 364.9L473 417.6L428 300.9Z" fill="#e2f1f5" stroke="#e2f1f5"></path><path d="M307 469.6L365 442.6L353 364.9Z" fill="#97cfcd" stroke="#97cfcd"></path><path d="M353 364.9L365 442.6L473 417.6Z" fill="#97cfcd" stroke="#97cfcd"></path><path d="M185 246.1L211 311.9L300 282.1Z" fill="#edf6f9" stroke="#edf6f9"></path><path d="M302 320.9L307 469.6L353 364.9Z" fill="#b7dde1" stroke="#b7dde1"></path><path d="M525 246.1L521 154.4L479 191.4Z" fill="#e2f1f5" stroke="#e2f1f5"></path><path d="M431 68.7L402 72.7L397 167.4Z" fill="#97cfcd" stroke="#97cfcd"></path><path d="M402 72.7L262 116.7L279 140.4Z" fill="#c2e2e7" stroke="#c2e2e7"></path><path d="M402 72.7L279 140.4L397 167.4Z" fill="#8dcac6" stroke="#8dcac6"></path><path d="M279 140.4L185 246.1L300 282.1Z" fill="#e2f1f5" stroke="#e2f1f5"></path><path d="M473 417.6L581 302.9L428 300.9Z" fill="#e2f1f5" stroke="#e2f1f5"></path><path d="M525 246.1L609 203.4L521 154.4Z" fill="#acd8db" stroke="#acd8db"></path><path d="M431 68.7L397 167.4L479 191.4Z" fill="#c2e2e7" stroke="#c2e2e7"></path><path d="M218 124.7L185 246.1L279 140.4Z" fill="#edf6f9" stroke="#edf6f9"></path><path d="M505 79.7L431 68.7L479 191.4Z" fill="#8dcac6" stroke="#8dcac6"></path><path d="M194 432.6L307 469.6L302 320.9Z" fill="#cde7ec" stroke="#cde7ec"></path><path d="M365 442.6L436 496.3L473 417.6Z" fill="#cde7ec" stroke="#cde7ec"></path><path d="M261 0L218 124.7L262 116.7Z" fill="#a2d3d4" stroke="#a2d3d4"></path><path d="M262 116.7L218 124.7L279 140.4Z" fill="#c2e2e7" stroke="#c2e2e7"></path><path d="M604 49.7L505 79.7L521 154.4Z" fill="#8dcac6" stroke="#8dcac6"></path><path d="M521 154.4L505 79.7L479 191.4Z" fill="#edf6f9" stroke="#edf6f9"></path><path d="M581 302.9L613 263.1L525 246.1Z" fill="#83c5be" stroke="#83c5be"></path><path d="M376 520.3L436 496.3L365 442.6Z" fill="#a2d3d4" stroke="#a2d3d4"></path><path d="M473 417.6L579 425.6L581 302.9Z" fill="#edf6f9" stroke="#edf6f9"></path><path d="M581 302.9L635 376.9L613 263.1Z" fill="#acd8db" stroke="#acd8db"></path><path d="M613 263.1L609 203.4L525 246.1Z" fill="#e2f1f5" stroke="#e2f1f5"></path><path d="M525 548.3L579 425.6L473 417.6Z" fill="#edf6f9" stroke="#edf6f9"></path><path d="M307 469.6L376 520.3L365 442.6Z" fill="#cde7ec" stroke="#cde7ec"></path><path d="M211 311.9L194 432.6L302 320.9Z" fill="#b7dde1" stroke="#b7dde1"></path><path d="M307 469.6L291 542.3L376 520.3Z" fill="#d8ecf1" stroke="#d8ecf1"></path><path d="M119 392.6L194 432.6L211 311.9Z" fill="#d8ecf1" stroke="#d8ecf1"></path><path d="M218 124.7L142 194.4L185 246.1Z" fill="#acd8db" stroke="#acd8db"></path><path d="M68 364.9L119 392.6L211 311.9Z" fill="#edf6f9" stroke="#edf6f9"></path><path d="M579 425.6L635 376.9L581 302.9Z" fill="#97cfcd" stroke="#97cfcd"></path><path d="M740 217.1L713 163.4L609 203.4Z" fill="#cde7ec" stroke="#cde7ec"></path><path d="M431 68.7L435 0L402 72.7Z" fill="#edf6f9" stroke="#edf6f9"></path><path d="M402 72.7L333 0L262 116.7Z" fill="#b7dde1" stroke="#b7dde1"></path><path d="M505 79.7L435 0L431 68.7Z" fill="#8dcac6" stroke="#8dcac6"></path><path d="M435 0L333 0L402 72.7Z" fill="#e2f1f5" stroke="#e2f1f5"></path><path d="M72 92.7L104 212.4L142 194.4Z" fill="#d8ecf1" stroke="#d8ecf1"></path><path d="M193 511.3L291 542.3L307 469.6Z" fill="#cde7ec" stroke="#cde7ec"></path><path d="M72 92.7L142 194.4L218 124.7Z" fill="#edf6f9" stroke="#edf6f9"></path><path d="M142 194.4L104 212.4L185 246.1Z" fill="#c2e2e7" stroke="#c2e2e7"></path><path d="M68 364.9L211 311.9L185 246.1Z" fill="#97cfcd" stroke="#97cfcd"></path><path d="M194 432.6L193 511.3L307 469.6Z" fill="#acd8db" stroke="#acd8db"></path><path d="M333 0L261 0L262 116.7Z" fill="#b7dde1" stroke="#b7dde1"></path><path d="M119 392.6L193 511.3L194 432.6Z" fill="#97cfcd" stroke="#97cfcd"></path><path d="M436 496.3L525 548.3L473 417.6Z" fill="#8dcac6" stroke="#8dcac6"></path><path d="M579 425.6L667 422.6L635 376.9Z" fill="#a2d3d4" stroke="#a2d3d4"></path><path d="M427 600L525 548.3L436 496.3Z" fill="#cde7ec" stroke="#cde7ec"></path><path d="M427 600L436 496.3L376 520.3Z" fill="#d8ecf1" stroke="#d8ecf1"></path><path d="M609 203.4L604 49.7L521 154.4Z" fill="#e2f1f5" stroke="#e2f1f5"></path><path d="M505 79.7L565 0L435 0Z" fill="#b7dde1" stroke="#b7dde1"></path><path d="M713 163.4L604 49.7L609 203.4Z" fill="#cde7ec" stroke="#cde7ec"></path><path d="M600 547.3L667 422.6L579 425.6Z" fill="#e2f1f5" stroke="#e2f1f5"></path><path d="M635 376.9L722 343.9L613 263.1Z" fill="#e2f1f5" stroke="#e2f1f5"></path><path d="M604 49.7L565 0L505 79.7Z" fill="#a2d3d4" stroke="#a2d3d4"></path><path d="M239 600L371 600L291 542.3Z" fill="#a2d3d4" stroke="#a2d3d4"></path><path d="M291 542.3L371 600L376 520.3Z" fill="#8dcac6" stroke="#8dcac6"></path><path d="M104 212.4L68 364.9L185 246.1Z" fill="#83c5be" stroke="#83c5be"></path><path d="M119 392.6L111 552.3L193 511.3Z" fill="#edf6f9" stroke="#edf6f9"></path><path d="M371 600L427 600L376 520.3Z" fill="#d8ecf1" stroke="#d8ecf1"></path><path d="M72 92.7L56 231.1L104 212.4Z" fill="#8dcac6" stroke="#8dcac6"></path><path d="M104 212.4L56 231.1L68 364.9Z" fill="#cde7ec" stroke="#cde7ec"></path><path d="M261 0L188 0L218 124.7Z" fill="#edf6f9" stroke="#edf6f9"></path><path d="M667 422.6L722 343.9L635 376.9Z" fill="#b7dde1" stroke="#b7dde1"></path><path d="M740 217.1L609 203.4L613 263.1Z" fill="#acd8db" stroke="#acd8db"></path><path d="M604 49.7L630 0L565 0Z" fill="#b7dde1" stroke="#b7dde1"></path><path d="M568 600L600 547.3L525 548.3Z" fill="#cde7ec" stroke="#cde7ec"></path><path d="M525 548.3L600 547.3L579 425.6Z" fill="#cde7ec" stroke="#cde7ec"></path><path d="M667 422.6L701 459.6L722 343.9Z" fill="#8dcac6" stroke="#8dcac6"></path><path d="M722 343.9L740 217.1L613 263.1Z" fill="#edf6f9" stroke="#edf6f9"></path><path d="M139 600L239 600L193 511.3Z" fill="#8dcac6" stroke="#8dcac6"></path><path d="M193 511.3L239 600L291 542.3Z" fill="#b7dde1" stroke="#b7dde1"></path><path d="M188 0L72 92.7L218 124.7Z" fill="#b7dde1" stroke="#b7dde1"></path><path d="M700 0L630 0L604 49.7Z" fill="#97cfcd" stroke="#97cfcd"></path><path d="M600 547.3L701 459.6L667 422.6Z" fill="#cde7ec" stroke="#cde7ec"></path><path d="M427 600L568 600L525 548.3Z" fill="#83c5be" stroke="#83c5be"></path><path d="M600 547.3L738 547.3L701 459.6Z" fill="#83c5be" stroke="#83c5be"></path><path d="M188 0L116 0L72 92.7Z" fill="#d8ecf1" stroke="#d8ecf1"></path><path d="M0 211.4L0 260.1L56 231.1Z" fill="#83c5be" stroke="#83c5be"></path><path d="M56 231.1L0 335.9L68 364.9Z" fill="#83c5be" stroke="#83c5be"></path><path d="M0 44.7L0 211.4L72 92.7Z" fill="#cde7ec" stroke="#cde7ec"></path><path d="M72 92.7L0 211.4L56 231.1Z" fill="#83c5be" stroke="#83c5be"></path><path d="M0 260.1L0 335.9L56 231.1Z" fill="#acd8db" stroke="#acd8db"></path><path d="M0 505.3L111 552.3L119 392.6Z" fill="#97cfcd" stroke="#97cfcd"></path><path d="M0 395.6L119 392.6L68 364.9Z" fill="#edf6f9" stroke="#edf6f9"></path><path d="M791 154.4L743 99.7L713 163.4Z" fill="#83c5be" stroke="#83c5be"></path><path d="M713 163.4L743 99.7L604 49.7Z" fill="#c2e2e7" stroke="#c2e2e7"></path><path d="M0 335.9L0 395.6L68 364.9Z" fill="#edf6f9" stroke="#edf6f9"></path><path d="M701 459.6L784 355.9L722 343.9Z" fill="#acd8db" stroke="#acd8db"></path><path d="M722 343.9L784 355.9L740 217.1Z" fill="#b7dde1" stroke="#b7dde1"></path><path d="M740 217.1L791 154.4L713 163.4Z" fill="#cde7ec" stroke="#cde7ec"></path><path d="M568 600L629 600L600 547.3Z" fill="#d8ecf1" stroke="#d8ecf1"></path><path d="M701 459.6L796 459.6L784 355.9Z" fill="#e2f1f5" stroke="#e2f1f5"></path><path d="M84 600L139 600L111 552.3Z" fill="#97cfcd" stroke="#97cfcd"></path><path d="M111 552.3L139 600L193 511.3Z" fill="#e2f1f5" stroke="#e2f1f5"></path><path d="M743 99.7L700 0L604 49.7Z" fill="#97cfcd" stroke="#97cfcd"></path><path d="M828 236.1L791 154.4L740 217.1Z" fill="#c2e2e7" stroke="#c2e2e7"></path><path d="M743 99.7L817 0L700 0Z" fill="#cde7ec" stroke="#cde7ec"></path><path d="M791 154.4L783 103.7L743 99.7Z" fill="#acd8db" stroke="#acd8db"></path><path d="M784 355.9L828 236.1L740 217.1Z" fill="#83c5be" stroke="#83c5be"></path><path d="M900 80.7L817 0L783 103.7Z" fill="#b7dde1" stroke="#b7dde1"></path><path d="M0 505.3L84 600L111 552.3Z" fill="#edf6f9" stroke="#edf6f9"></path><path d="M116 0L0 44.7L72 92.7Z" fill="#d8ecf1" stroke="#d8ecf1"></path><path d="M629 600L738 547.3L600 547.3Z" fill="#e2f1f5" stroke="#e2f1f5"></path><path d="M900 333.9L900 232.1L828 236.1Z" fill="#a2d3d4" stroke="#a2d3d4"></path><path d="M0 395.6L0 505.3L119 392.6Z" fill="#83c5be" stroke="#83c5be"></path><path d="M738 547.3L796 459.6L701 459.6Z" fill="#b7dde1" stroke="#b7dde1"></path><path d="M116 0L0 0L0 44.7Z" fill="#97cfcd" stroke="#97cfcd"></path><path d="M758 600L772 554.3L738 547.3Z" fill="#c2e2e7" stroke="#c2e2e7"></path><path d="M738 547.3L772 554.3L796 459.6Z" fill="#d8ecf1" stroke="#d8ecf1"></path><path d="M629 600L758 600L738 547.3Z" fill="#edf6f9" stroke="#edf6f9"></path><path d="M0 505.3L0 600L84 600Z" fill="#8dcac6" stroke="#8dcac6"></path><path d="M900 128.4L783 103.7L791 154.4Z" fill="#c2e2e7" stroke="#c2e2e7"></path><path d="M783 103.7L817 0L743 99.7Z" fill="#d8ecf1" stroke="#d8ecf1"></path><path d="M900 333.9L828 236.1L784 355.9Z" fill="#edf6f9" stroke="#edf6f9"></path><path d="M828 236.1L900 128.4L791 154.4Z" fill="#d8ecf1" stroke="#d8ecf1"></path><path d="M900 333.9L784 355.9L900 417.6Z" fill="#8dcac6" stroke="#8dcac6"></path><path d="M784 355.9L796 459.6L900 417.6Z" fill="#e2f1f5" stroke="#e2f1f5"></path><path d="M900 417.6L796 459.6L900 551.3Z" fill="#edf6f9" stroke="#edf6f9"></path><path d="M900 232.1L900 128.4L828 236.1Z" fill="#e2f1f5" stroke="#e2f1f5"></path><path d="M900 551.3L796 459.6L772 554.3Z" fill="#d8ecf1" stroke="#d8ecf1"></path><path d="M758 600L808 600L772 554.3Z" fill="#cde7ec" stroke="#cde7ec"></path><path d="M900 128.4L900 80.7L783 103.7Z" fill="#d8ecf1" stroke="#d8ecf1"></path><path d="M900 80.7L900 0L817 0Z" fill="#83c5be" stroke="#83c5be"></path><path d="M808 600L900 551.3L772 554.3Z" fill="#cde7ec" stroke="#cde7ec"></path><path d="M808 600L900 600L900 551.3Z" fill="#b7dde1" stroke="#b7dde1"></path></g></svg>