<svg id="visual" viewBox="0 0 900 600" width="900" height="600" xmlns="http://www.w3.org/2000/svg" xmlns:xlink="http://www.w3.org/1999/xlink" version="1.1"><g stroke-width="1" stroke-linejoin="bevel"><path d="M431 331.9L452 385.6L514 304.9Z" fill="#e59c81" stroke="#e59c81"></path><path d="M608 249.1L554 262.1L657 338.9Z" fill="#f8c7b6" stroke="#f8c7b6"></path><path d="M364 272.1L360 309.9L431 331.9Z" fill="#e29578" stroke="#e29578"></path><path d="M446 218.1L431 331.9L514 304.9Z" fill="#e9a389" stroke="#e9a389"></path><path d="M431 331.9L304 390.6L452 385.6Z" fill="#facec0" stroke="#facec0"></path><path d="M554 262.1L446 218.1L514 304.9Z" fill="#ffddd2" stroke="#ffddd2"></path><path d="M452 385.6L557 452.6L514 304.9Z" fill="#e59c81" stroke="#e59c81"></path><path d="M446 218.1L364 272.1L431 331.9Z" fill="#e29578" stroke="#e29578"></path><path d="M544 158.4L419 201.4L446 218.1Z" fill="#f8c7b6" stroke="#f8c7b6"></path><path d="M446 218.1L419 201.4L364 272.1Z" fill="#f5c0ad" stroke="#f5c0ad"></path><path d="M657 338.9L554 262.1L514 304.9Z" fill="#fdd6c9" stroke="#fdd6c9"></path><path d="M554 262.1L544 158.4L446 218.1Z" fill="#e59c81" stroke="#e59c81"></path><path d="M336 455.6L384 477.3L452 385.6Z" fill="#e9a389" stroke="#e9a389"></path><path d="M452 385.6L384 477.3L557 452.6Z" fill="#ffddd2" stroke="#ffddd2"></path><path d="M384 477.3L555 497.3L557 452.6Z" fill="#e59c81" stroke="#e59c81"></path><path d="M557 452.6L657 338.9L514 304.9Z" fill="#e9a389" stroke="#e9a389"></path><path d="M664 437.6L657 338.9L557 452.6Z" fill="#ecab92" stroke="#ecab92"></path><path d="M276 336.9L304 390.6L360 309.9Z" fill="#e59c81" stroke="#e59c81"></path><path d="M360 309.9L304 390.6L431 331.9Z" fill="#e59c81" stroke="#e59c81"></path><path d="M304 390.6L336 455.6L452 385.6Z" fill="#f5c0ad" stroke="#f5c0ad"></path><path d="M597 163.4L544 158.4L554 262.1Z" fill="#f5c0ad" stroke="#f5c0ad"></path><path d="M549 600L590 514.3L555 497.3Z" fill="#e59c81" stroke="#e59c81"></path><path d="M555 497.3L590 514.3L557 452.6Z" fill="#f8c7b6" stroke="#f8c7b6"></path><path d="M260 232.1L276 336.9L364 272.1Z" fill="#e59c81" stroke="#e59c81"></path><path d="M364 272.1L276 336.9L360 309.9Z" fill="#f8c7b6" stroke="#f8c7b6"></path><path d="M218 459.6L289 546.3L336 455.6Z" fill="#e9a389" stroke="#e9a389"></path><path d="M590 514.3L664 437.6L557 452.6Z" fill="#fdd6c9" stroke="#fdd6c9"></path><path d="M377 105.7L338 194.4L419 201.4Z" fill="#f5c0ad" stroke="#f5c0ad"></path><path d="M419 201.4L338 194.4L364 272.1Z" fill="#fdd6c9" stroke="#fdd6c9"></path><path d="M608 249.1L597 163.4L554 262.1Z" fill="#f8c7b6" stroke="#f8c7b6"></path><path d="M742 224.1L597 163.4L608 249.1Z" fill="#fdd6c9" stroke="#fdd6c9"></path><path d="M289 546.3L413 548.3L384 477.3Z" fill="#e9a389" stroke="#e9a389"></path><path d="M384 477.3L413 548.3L555 497.3Z" fill="#f5c0ad" stroke="#f5c0ad"></path><path d="M664 437.6L712 355.9L657 338.9Z" fill="#fdd6c9" stroke="#fdd6c9"></path><path d="M657 338.9L742 224.1L608 249.1Z" fill="#ffddd2" stroke="#ffddd2"></path><path d="M338 194.4L260 232.1L364 272.1Z" fill="#e29578" stroke="#e29578"></path><path d="M694 483.3L706 452.6L664 437.6Z" fill="#ecab92" stroke="#ecab92"></path><path d="M664 437.6L706 452.6L712 355.9Z" fill="#e29578" stroke="#e29578"></path><path d="M590 514.3L694 483.3L664 437.6Z" fill="#f5c0ad" stroke="#f5c0ad"></path><path d="M414 88.7L377 105.7L419 201.4Z" fill="#facec0" stroke="#facec0"></path><path d="M338 194.4L256 129.4L260 232.1Z" fill="#efb29b" stroke="#efb29b"></path><path d="M414 88.7L419 201.4L544 158.4Z" fill="#e29578" stroke="#e29578"></path><path d="M542 72.7L414 88.7L544 158.4Z" fill="#facec0" stroke="#facec0"></path><path d="M413 548.3L549 600L555 497.3Z" fill="#e59c81" stroke="#e59c81"></path><path d="M590 514.3L598 600L694 483.3Z" fill="#e29578" stroke="#e29578"></path><path d="M336 600L407 600L413 548.3Z" fill="#ecab92" stroke="#ecab92"></path><path d="M413 548.3L407 600L549 600Z" fill="#f8c7b6" stroke="#f8c7b6"></path><path d="M289 546.3L384 477.3L336 455.6Z" fill="#facec0" stroke="#facec0"></path><path d="M597 163.4L542 72.7L544 158.4Z" fill="#efb29b" stroke="#efb29b"></path><path d="M218 459.6L336 455.6L304 390.6Z" fill="#f5c0ad" stroke="#f5c0ad"></path><path d="M218 459.6L304 390.6L276 336.9Z" fill="#e59c81" stroke="#e59c81"></path><path d="M260 232.1L199 331.9L276 336.9Z" fill="#facec0" stroke="#facec0"></path><path d="M549 600L598 600L590 514.3Z" fill="#f2b9a4" stroke="#f2b9a4"></path><path d="M199 331.9L218 459.6L276 336.9Z" fill="#f2b9a4" stroke="#f2b9a4"></path><path d="M754 197.4L742 224.1L796 258.1Z" fill="#ffddd2" stroke="#ffddd2"></path><path d="M712 355.9L742 224.1L657 338.9Z" fill="#e9a389" stroke="#e9a389"></path><path d="M597 163.4L660 49.7L542 72.7Z" fill="#ffddd2" stroke="#ffddd2"></path><path d="M289 546.3L336 600L413 548.3Z" fill="#ecab92" stroke="#ecab92"></path><path d="M327 0L377 105.7L414 88.7Z" fill="#e9a389" stroke="#e9a389"></path><path d="M327 0L301 98.7L377 105.7Z" fill="#ffddd2" stroke="#ffddd2"></path><path d="M377 105.7L301 98.7L338 194.4Z" fill="#efb29b" stroke="#efb29b"></path><path d="M260 232.1L194 237.1L199 331.9Z" fill="#facec0" stroke="#facec0"></path><path d="M256 129.4L194 237.1L260 232.1Z" fill="#e29578" stroke="#e29578"></path><path d="M796 258.1L742 224.1L712 355.9Z" fill="#f5c0ad" stroke="#f5c0ad"></path><path d="M742 224.1L754 197.4L597 163.4Z" fill="#e59c81" stroke="#e59c81"></path><path d="M301 98.7L256 129.4L338 194.4Z" fill="#f8c7b6" stroke="#f8c7b6"></path><path d="M821 310.9L796 258.1L712 355.9Z" fill="#facec0" stroke="#facec0"></path><path d="M821 310.9L712 355.9L841 407.6Z" fill="#ffddd2" stroke="#ffddd2"></path><path d="M122 476.3L188 506.3L218 459.6Z" fill="#e29578" stroke="#e29578"></path><path d="M218 459.6L188 506.3L289 546.3Z" fill="#ffddd2" stroke="#ffddd2"></path><path d="M289 546.3L261 600L336 600Z" fill="#fdd6c9" stroke="#fdd6c9"></path><path d="M122 476.3L218 459.6L89 363.9Z" fill="#e9a389" stroke="#e9a389"></path><path d="M188 506.3L261 600L289 546.3Z" fill="#e29578" stroke="#e29578"></path><path d="M841 407.6L712 355.9L706 452.6Z" fill="#fdd6c9" stroke="#fdd6c9"></path><path d="M755 89.7L597 163.4L754 197.4Z" fill="#e9a389" stroke="#e9a389"></path><path d="M755 89.7L660 49.7L597 163.4Z" fill="#e9a389" stroke="#e9a389"></path><path d="M542 72.7L433 0L414 88.7Z" fill="#ecab92" stroke="#ecab92"></path><path d="M568 0L433 0L542 72.7Z" fill="#e59c81" stroke="#e59c81"></path><path d="M189 0L158 63.7L256 129.4Z" fill="#e59c81" stroke="#e59c81"></path><path d="M660 49.7L568 0L542 72.7Z" fill="#ffddd2" stroke="#ffddd2"></path><path d="M749 600L793 528.3L694 483.3Z" fill="#e29578" stroke="#e29578"></path><path d="M694 483.3L793 528.3L706 452.6Z" fill="#ffddd2" stroke="#ffddd2"></path><path d="M900 242.1L796 163.4L796 258.1Z" fill="#e59c81" stroke="#e59c81"></path><path d="M796 258.1L796 163.4L754 197.4Z" fill="#ecab92" stroke="#ecab92"></path><path d="M793 528.3L841 407.6L706 452.6Z" fill="#f5c0ad" stroke="#f5c0ad"></path><path d="M821 310.9L900 242.1L796 258.1Z" fill="#f2b9a4" stroke="#f2b9a4"></path><path d="M598 600L749 600L694 483.3Z" fill="#efb29b" stroke="#efb29b"></path><path d="M796 163.4L755 89.7L754 197.4Z" fill="#e29578" stroke="#e29578"></path><path d="M660 49.7L633 0L568 0Z" fill="#facec0" stroke="#facec0"></path><path d="M714 0L633 0L660 49.7Z" fill="#e29578" stroke="#e29578"></path><path d="M433 0L327 0L414 88.7Z" fill="#e59c81" stroke="#e59c81"></path><path d="M145 137.4L117 211.4L194 237.1Z" fill="#fdd6c9" stroke="#fdd6c9"></path><path d="M89 363.9L218 459.6L199 331.9Z" fill="#f8c7b6" stroke="#f8c7b6"></path><path d="M188 506.3L183 600L261 600Z" fill="#fdd6c9" stroke="#fdd6c9"></path><path d="M327 0L308 0L301 98.7Z" fill="#f2b9a4" stroke="#f2b9a4"></path><path d="M145 137.4L194 237.1L256 129.4Z" fill="#e29578" stroke="#e29578"></path><path d="M194 237.1L80 274.1L199 331.9Z" fill="#efb29b" stroke="#efb29b"></path><path d="M80 274.1L89 363.9L199 331.9Z" fill="#e59c81" stroke="#e59c81"></path><path d="M114 600L183 600L188 506.3Z" fill="#e9a389" stroke="#e9a389"></path><path d="M120 116.7L145 137.4L158 63.7Z" fill="#ffddd2" stroke="#ffddd2"></path><path d="M749 600L781 600L793 528.3Z" fill="#f8c7b6" stroke="#f8c7b6"></path><path d="M900 497.3L900 400.6L841 407.6Z" fill="#facec0" stroke="#facec0"></path><path d="M796 163.4L781 71.7L755 89.7Z" fill="#ecab92" stroke="#ecab92"></path><path d="M755 89.7L714 0L660 49.7Z" fill="#ecab92" stroke="#ecab92"></path><path d="M900 72.7L781 71.7L796 163.4Z" fill="#facec0" stroke="#facec0"></path><path d="M0 291.1L80 274.1L0 195.4Z" fill="#e59c81" stroke="#e59c81"></path><path d="M117 211.4L80 274.1L194 237.1Z" fill="#e29578" stroke="#e29578"></path><path d="M781 71.7L714 0L755 89.7Z" fill="#ecab92" stroke="#ecab92"></path><path d="M900 400.6L900 319.9L841 407.6Z" fill="#e9a389" stroke="#e9a389"></path><path d="M841 407.6L900 319.9L821 310.9Z" fill="#e9a389" stroke="#e9a389"></path><path d="M89 363.9L67 427.6L122 476.3Z" fill="#fdd6c9" stroke="#fdd6c9"></path><path d="M122 476.3L114 600L188 506.3Z" fill="#efb29b" stroke="#efb29b"></path><path d="M0 386.6L67 427.6L89 363.9Z" fill="#e9a389" stroke="#e9a389"></path><path d="M900 497.3L841 407.6L793 528.3Z" fill="#efb29b" stroke="#efb29b"></path><path d="M145 137.4L120 116.7L117 211.4Z" fill="#ffddd2" stroke="#ffddd2"></path><path d="M158 63.7L145 137.4L256 129.4Z" fill="#e59c81" stroke="#e59c81"></path><path d="M189 0L256 129.4L301 98.7Z" fill="#fdd6c9" stroke="#fdd6c9"></path><path d="M900 319.9L900 242.1L821 310.9Z" fill="#facec0" stroke="#facec0"></path><path d="M900 600L900 497.3L793 528.3Z" fill="#e9a389" stroke="#e9a389"></path><path d="M0 502.3L114 600L122 476.3Z" fill="#e29578" stroke="#e29578"></path><path d="M308 0L189 0L301 98.7Z" fill="#e29578" stroke="#e29578"></path><path d="M0 65.7L0 195.4L120 116.7Z" fill="#ffddd2" stroke="#ffddd2"></path><path d="M900 242.1L900 172.4L796 163.4Z" fill="#f8c7b6" stroke="#f8c7b6"></path><path d="M781 71.7L786 0L714 0Z" fill="#e9a389" stroke="#e9a389"></path><path d="M900 72.7L786 0L781 71.7Z" fill="#e9a389" stroke="#e9a389"></path><path d="M0 291.1L0 325.9L80 274.1Z" fill="#efb29b" stroke="#efb29b"></path><path d="M80 274.1L0 325.9L89 363.9Z" fill="#f5c0ad" stroke="#f5c0ad"></path><path d="M67 427.6L0 502.3L122 476.3Z" fill="#fdd6c9" stroke="#fdd6c9"></path><path d="M0 325.9L0 386.6L89 363.9Z" fill="#facec0" stroke="#facec0"></path><path d="M0 195.4L80 274.1L117 211.4Z" fill="#ecab92" stroke="#ecab92"></path><path d="M0 195.4L117 211.4L120 116.7Z" fill="#ecab92" stroke="#ecab92"></path><path d="M781 600L900 600L793 528.3Z" fill="#ecab92" stroke="#ecab92"></path><path d="M900 172.4L900 72.7L796 163.4Z" fill="#f2b9a4" stroke="#f2b9a4"></path><path d="M88 0L120 116.7L158 63.7Z" fill="#ecab92" stroke="#ecab92"></path><path d="M0 386.6L0 502.3L67 427.6Z" fill="#e29578" stroke="#e29578"></path><path d="M189 0L88 0L158 63.7Z" fill="#e29578" stroke="#e29578"></path><path d="M900 72.7L900 0L786 0Z" fill="#fdd6c9" stroke="#fdd6c9"></path><path d="M0 502.3L0 600L114 600Z" fill="#f5c0ad" stroke="#f5c0ad"></path><path d="M88 0L0 65.7L120 116.7Z" fill="#efb29b" stroke="#efb29b"></path><path d="M88 0L0 0L0 65.7Z" fill="#e9a389" stroke="#e9a389"></path></g></svg>