<svg id="visual" viewBox="0 0 900 600" width="900" height="600" xmlns="http://www.w3.org/2000/svg" xmlns:xlink="http://www.w3.org/1999/xlink" version="1.1"><g stroke-width="1" stroke-linejoin="bevel"><path d="M411 308.9L409 279.1L328 296.1Z" fill="#e4a080" stroke="#e4a080"></path><path d="M328 296.1L389 369.9L411 308.9Z" fill="#efdbc3" stroke="#efdbc3"></path><path d="M328 296.1L287 412.6L389 369.9Z" fill="#e7b493" stroke="#e7b493"></path><path d="M346 150.4L273 216.1L328 296.1Z" fill="#efdbc3" stroke="#efdbc3"></path><path d="M328 296.1L273 216.1L263 311.9Z" fill="#e7b493" stroke="#e7b493"></path><path d="M287 412.6L396 424.6L389 369.9Z" fill="#faf6ed" stroke="#faf6ed"></path><path d="M389 369.9L534 310.9L411 308.9Z" fill="#e5aa89" stroke="#e5aa89"></path><path d="M534 310.9L453 190.4L409 279.1Z" fill="#e7b493" stroke="#e7b493"></path><path d="M409 279.1L346 150.4L328 296.1Z" fill="#e4a080" stroke="#e4a080"></path><path d="M534 310.9L409 279.1L411 308.9Z" fill="#e5aa89" stroke="#e5aa89"></path><path d="M263 311.9L287 412.6L328 296.1Z" fill="#efdbc3" stroke="#efdbc3"></path><path d="M453 190.4L346 150.4L409 279.1Z" fill="#e4a080" stroke="#e4a080"></path><path d="M346 150.4L298 163.4L273 216.1Z" fill="#ecd2b6" stroke="#ecd2b6"></path><path d="M273 216.1L211 299.1L263 311.9Z" fill="#e5aa89" stroke="#e5aa89"></path><path d="M263 311.9L209 366.9L287 412.6Z" fill="#ecd2b6" stroke="#ecd2b6"></path><path d="M211 198.4L211 299.1L273 216.1Z" fill="#efdbc3" stroke="#efdbc3"></path><path d="M447 452.6L534 310.9L389 369.9Z" fill="#faf6ed" stroke="#faf6ed"></path><path d="M418 472.3L447 452.6L396 424.6Z" fill="#e29578" stroke="#e29578"></path><path d="M396 424.6L447 452.6L389 369.9Z" fill="#e5aa89" stroke="#e5aa89"></path><path d="M211 299.1L209 366.9L263 311.9Z" fill="#e8be9e" stroke="#e8be9e"></path><path d="M332 506.3L418 472.3L396 424.6Z" fill="#efdbc3" stroke="#efdbc3"></path><path d="M453 190.4L390 114.7L346 150.4Z" fill="#e8be9e" stroke="#e8be9e"></path><path d="M346 150.4L245 106.7L298 163.4Z" fill="#f5eddf" stroke="#f5eddf"></path><path d="M245 106.7L211 198.4L298 163.4Z" fill="#e5aa89" stroke="#e5aa89"></path><path d="M298 163.4L211 198.4L273 216.1Z" fill="#e8be9e" stroke="#e8be9e"></path><path d="M72 339.9L161 435.6L209 366.9Z" fill="#faf6ed" stroke="#faf6ed"></path><path d="M626 350.9L570 265.1L534 310.9Z" fill="#faf6ed" stroke="#faf6ed"></path><path d="M534 310.9L570 265.1L453 190.4Z" fill="#e29578" stroke="#e29578"></path><path d="M453 190.4L431 64.7L390 114.7Z" fill="#e29578" stroke="#e29578"></path><path d="M570 265.1L534 163.4L453 190.4Z" fill="#faf6ed" stroke="#faf6ed"></path><path d="M250 487.3L332 506.3L287 412.6Z" fill="#e29578" stroke="#e29578"></path><path d="M287 412.6L332 506.3L396 424.6Z" fill="#e5aa89" stroke="#e5aa89"></path><path d="M209 366.9L250 487.3L287 412.6Z" fill="#ecd2b6" stroke="#ecd2b6"></path><path d="M390 114.7L245 106.7L346 150.4Z" fill="#efdbc3" stroke="#efdbc3"></path><path d="M598 91.7L519 119.7L534 163.4Z" fill="#f5eddf" stroke="#f5eddf"></path><path d="M534 163.4L519 119.7L453 190.4Z" fill="#eac8aa" stroke="#eac8aa"></path><path d="M390 114.7L379 0L245 106.7Z" fill="#f2e4d1" stroke="#f2e4d1"></path><path d="M519 119.7L431 64.7L453 190.4Z" fill="#e8be9e" stroke="#e8be9e"></path><path d="M537 546.3L568 451.6L447 452.6Z" fill="#e7b493" stroke="#e7b493"></path><path d="M447 452.6L568 451.6L534 310.9Z" fill="#e7b493" stroke="#e7b493"></path><path d="M594 463.6L568 451.6L603 487.3Z" fill="#e7b493" stroke="#e7b493"></path><path d="M72 339.9L209 366.9L211 299.1Z" fill="#e4a080" stroke="#e4a080"></path><path d="M209 366.9L161 435.6L250 487.3Z" fill="#e8be9e" stroke="#e8be9e"></path><path d="M568 451.6L626 350.9L534 310.9Z" fill="#faf6ed" stroke="#faf6ed"></path><path d="M570 265.1L617 208.4L534 163.4Z" fill="#e8be9e" stroke="#e8be9e"></path><path d="M658 287.1L617 208.4L570 265.1Z" fill="#faf6ed" stroke="#faf6ed"></path><path d="M537 546.3L447 452.6L418 472.3Z" fill="#e4a080" stroke="#e4a080"></path><path d="M568 451.6L594 463.6L626 350.9Z" fill="#f5eddf" stroke="#f5eddf"></path><path d="M626 350.9L658 287.1L570 265.1Z" fill="#faf6ed" stroke="#faf6ed"></path><path d="M731 307.9L658 287.1L626 350.9Z" fill="#faf6ed" stroke="#faf6ed"></path><path d="M50 199.4L82 272.1L211 198.4Z" fill="#e7b493" stroke="#e7b493"></path><path d="M211 198.4L82 272.1L211 299.1Z" fill="#e29578" stroke="#e29578"></path><path d="M259 0L192 66.7L245 106.7Z" fill="#eac8aa" stroke="#eac8aa"></path><path d="M245 106.7L127 101.7L211 198.4Z" fill="#faf6ed" stroke="#faf6ed"></path><path d="M426 0L379 0L431 64.7Z" fill="#e29578" stroke="#e29578"></path><path d="M431 64.7L379 0L390 114.7Z" fill="#e7b493" stroke="#e7b493"></path><path d="M161 435.6L140 485.3L250 487.3Z" fill="#f5eddf" stroke="#f5eddf"></path><path d="M307 600L317 600L332 506.3Z" fill="#f2e4d1" stroke="#f2e4d1"></path><path d="M71 428.6L140 485.3L161 435.6Z" fill="#e29578" stroke="#e29578"></path><path d="M441 600L537 546.3L418 472.3Z" fill="#e29578" stroke="#e29578"></path><path d="M441 600L418 472.3L332 506.3Z" fill="#eac8aa" stroke="#eac8aa"></path><path d="M537 546.3L603 487.3L568 451.6Z" fill="#ecd2b6" stroke="#ecd2b6"></path><path d="M594 463.6L689 411.6L626 350.9Z" fill="#e7b493" stroke="#e7b493"></path><path d="M82 272.1L72 339.9L211 299.1Z" fill="#e4a080" stroke="#e4a080"></path><path d="M520 0L426 0L431 64.7Z" fill="#ecd2b6" stroke="#ecd2b6"></path><path d="M520 0L431 64.7L519 119.7Z" fill="#e7b493" stroke="#e7b493"></path><path d="M704 78.7L598 91.7L617 208.4Z" fill="#efdbc3" stroke="#efdbc3"></path><path d="M617 208.4L598 91.7L534 163.4Z" fill="#e8be9e" stroke="#e8be9e"></path><path d="M307 600L332 506.3L250 487.3Z" fill="#f5eddf" stroke="#f5eddf"></path><path d="M149 600L307 600L250 487.3Z" fill="#e4a080" stroke="#e4a080"></path><path d="M317 600L441 600L332 506.3Z" fill="#ecd2b6" stroke="#ecd2b6"></path><path d="M192 66.7L127 101.7L245 106.7Z" fill="#ecd2b6" stroke="#ecd2b6"></path><path d="M379 0L259 0L245 106.7Z" fill="#faf6ed" stroke="#faf6ed"></path><path d="M192 66.7L132 0L127 101.7Z" fill="#e8be9e" stroke="#e8be9e"></path><path d="M72 339.9L71 428.6L161 435.6Z" fill="#ecd2b6" stroke="#ecd2b6"></path><path d="M598 91.7L520 0L519 119.7Z" fill="#f5eddf" stroke="#f5eddf"></path><path d="M127 101.7L50 199.4L211 198.4Z" fill="#f2e4d1" stroke="#f2e4d1"></path><path d="M82 272.1L0 334.9L72 339.9Z" fill="#faf6ed" stroke="#faf6ed"></path><path d="M72 339.9L0 393.6L71 428.6Z" fill="#eac8aa" stroke="#eac8aa"></path><path d="M683 483.3L594 463.6L603 487.3Z" fill="#e8be9e" stroke="#e8be9e"></path><path d="M683 483.3L689 411.6L594 463.6Z" fill="#e4a080" stroke="#e4a080"></path><path d="M259 0L195 0L192 66.7Z" fill="#f2e4d1" stroke="#f2e4d1"></path><path d="M0 183.4L0 248.1L50 199.4Z" fill="#e7b493" stroke="#e7b493"></path><path d="M441 600L536 600L537 546.3Z" fill="#ecd2b6" stroke="#ecd2b6"></path><path d="M537 546.3L647 600L603 487.3Z" fill="#e5aa89" stroke="#e5aa89"></path><path d="M689 411.6L731 307.9L626 350.9Z" fill="#ecd2b6" stroke="#ecd2b6"></path><path d="M658 287.1L735 226.1L617 208.4Z" fill="#e8be9e" stroke="#e8be9e"></path><path d="M647 600L683 483.3L603 487.3Z" fill="#e8be9e" stroke="#e8be9e"></path><path d="M689 411.6L802 308.9L731 307.9Z" fill="#efdbc3" stroke="#efdbc3"></path><path d="M731 307.9L735 226.1L658 287.1Z" fill="#f2e4d1" stroke="#f2e4d1"></path><path d="M598 91.7L600 0L520 0Z" fill="#e29578" stroke="#e29578"></path><path d="M0 248.1L0 334.9L82 272.1Z" fill="#f2e4d1" stroke="#f2e4d1"></path><path d="M0 183.4L50 199.4L0 124.7Z" fill="#f2e4d1" stroke="#f2e4d1"></path><path d="M50 199.4L0 248.1L82 272.1Z" fill="#e7b493" stroke="#e7b493"></path><path d="M681 0L600 0L598 91.7Z" fill="#faf6ed" stroke="#faf6ed"></path><path d="M88 548.3L149 600L140 485.3Z" fill="#e5aa89" stroke="#e5aa89"></path><path d="M140 485.3L149 600L250 487.3Z" fill="#e4a080" stroke="#e4a080"></path><path d="M88 548.3L140 485.3L71 428.6Z" fill="#eac8aa" stroke="#eac8aa"></path><path d="M0 523.3L88 548.3L71 428.6Z" fill="#ecd2b6" stroke="#ecd2b6"></path><path d="M195 0L132 0L192 66.7Z" fill="#faf6ed" stroke="#faf6ed"></path><path d="M0 334.9L0 393.6L72 339.9Z" fill="#eac8aa" stroke="#eac8aa"></path><path d="M0 124.7L50 199.4L127 101.7Z" fill="#f2e4d1" stroke="#f2e4d1"></path><path d="M807 296.1L756 213.4L735 226.1Z" fill="#eac8aa" stroke="#eac8aa"></path><path d="M735 226.1L704 78.7L617 208.4Z" fill="#f5eddf" stroke="#f5eddf"></path><path d="M756 213.4L704 78.7L735 226.1Z" fill="#e7b493" stroke="#e7b493"></path><path d="M0 0L0 124.7L127 101.7Z" fill="#e4a080" stroke="#e4a080"></path><path d="M536 600L647 600L537 546.3Z" fill="#e7b493" stroke="#e7b493"></path><path d="M0 600L85 600L88 548.3Z" fill="#ecd2b6" stroke="#ecd2b6"></path><path d="M88 548.3L85 600L149 600Z" fill="#e5aa89" stroke="#e5aa89"></path><path d="M704 78.7L681 0L598 91.7Z" fill="#e4a080" stroke="#e4a080"></path><path d="M772 67.7L681 0L704 78.7Z" fill="#efdbc3" stroke="#efdbc3"></path><path d="M850 432.6L802 308.9L689 411.6Z" fill="#e4a080" stroke="#e4a080"></path><path d="M731 307.9L807 296.1L735 226.1Z" fill="#efdbc3" stroke="#efdbc3"></path><path d="M756 213.4L800 143.4L704 78.7Z" fill="#e8be9e" stroke="#e8be9e"></path><path d="M850 432.6L689 411.6L683 483.3Z" fill="#eac8aa" stroke="#eac8aa"></path><path d="M0 393.6L0 523.3L71 428.6Z" fill="#f5eddf" stroke="#f5eddf"></path><path d="M802 308.9L807 296.1L731 307.9Z" fill="#ecd2b6" stroke="#ecd2b6"></path><path d="M900 268.1L800 143.4L756 213.4Z" fill="#ecd2b6" stroke="#ecd2b6"></path><path d="M800 143.4L772 67.7L704 78.7Z" fill="#e7b493" stroke="#e7b493"></path><path d="M647 600L720 600L683 483.3Z" fill="#e8be9e" stroke="#e8be9e"></path><path d="M900 329.9L900 268.1L807 296.1Z" fill="#e5aa89" stroke="#e5aa89"></path><path d="M132 0L0 0L127 101.7Z" fill="#eac8aa" stroke="#eac8aa"></path><path d="M0 523.3L0 600L88 548.3Z" fill="#eac8aa" stroke="#eac8aa"></path><path d="M814 551.3L850 432.6L683 483.3Z" fill="#f2e4d1" stroke="#f2e4d1"></path><path d="M807 296.1L900 268.1L756 213.4Z" fill="#f2e4d1" stroke="#f2e4d1"></path><path d="M720 600L814 551.3L683 483.3Z" fill="#e4a080" stroke="#e4a080"></path><path d="M900 329.9L807 296.1L802 308.9Z" fill="#faf6ed" stroke="#faf6ed"></path><path d="M900 108.7L833 0L772 67.7Z" fill="#faf6ed" stroke="#faf6ed"></path><path d="M900 329.9L802 308.9L900 386.6Z" fill="#e29578" stroke="#e29578"></path><path d="M900 386.6L802 308.9L850 432.6Z" fill="#e4a080" stroke="#e4a080"></path><path d="M720 600L812 600L814 551.3Z" fill="#f2e4d1" stroke="#f2e4d1"></path><path d="M900 485.3L900 386.6L850 432.6Z" fill="#e7b493" stroke="#e7b493"></path><path d="M900 485.3L850 432.6L814 551.3Z" fill="#e7b493" stroke="#e7b493"></path><path d="M900 108.7L772 67.7L800 143.4Z" fill="#e5aa89" stroke="#e5aa89"></path><path d="M772 67.7L833 0L681 0Z" fill="#e8be9e" stroke="#e8be9e"></path><path d="M900 268.1L900 132.4L800 143.4Z" fill="#e4a080" stroke="#e4a080"></path><path d="M900 132.4L900 108.7L800 143.4Z" fill="#efdbc3" stroke="#efdbc3"></path><path d="M900 600L900 485.3L814 551.3Z" fill="#e4a080" stroke="#e4a080"></path><path d="M900 108.7L900 0L833 0Z" fill="#e7b493" stroke="#e7b493"></path><path d="M812 600L900 600L814 551.3Z" fill="#f2e4d1" stroke="#f2e4d1"></path></g></svg>