<svg id="visual" viewBox="0 0 900 600" width="900" height="600" xmlns="http://www.w3.org/2000/svg" xmlns:xlink="http://www.w3.org/1999/xlink" version="1.1"><g stroke-width="1" stroke-linejoin="bevel"><path d="M471 345.9L380 340.9L428 408.6Z" fill="#b0cbd2" stroke="#b0cbd2"></path><path d="M380 340.9L383 459.6L428 408.6Z" fill="#edf6f9" stroke="#edf6f9"></path><path d="M383 459.6L513 437.6L428 408.6Z" fill="#87afb8" stroke="#87afb8"></path><path d="M428 408.6L513 437.6L471 345.9Z" fill="#006d77" stroke="#006d77"></path><path d="M412 229.1L329 276.1L380 340.9Z" fill="#9bbdc5" stroke="#9bbdc5"></path><path d="M380 340.9L263 434.6L383 459.6Z" fill="#72a1ab" stroke="#72a1ab"></path><path d="M471 345.9L412 229.1L380 340.9Z" fill="#5d949e" stroke="#5d949e"></path><path d="M513 437.6L580 332.9L471 345.9Z" fill="#c4d9df" stroke="#c4d9df"></path><path d="M471 345.9L567 233.1L412 229.1Z" fill="#468791" stroke="#468791"></path><path d="M241 325.9L263 434.6L380 340.9Z" fill="#d9e7ec" stroke="#d9e7ec"></path><path d="M283 173.4L265 269.1L329 276.1Z" fill="#d9e7ec" stroke="#d9e7ec"></path><path d="M329 276.1L241 325.9L380 340.9Z" fill="#87afb8" stroke="#87afb8"></path><path d="M265 269.1L241 325.9L329 276.1Z" fill="#2d7a84" stroke="#2d7a84"></path><path d="M513 437.6L615 369.9L580 332.9Z" fill="#2d7a84" stroke="#2d7a84"></path><path d="M655 196.4L567 233.1L672 218.1Z" fill="#468791" stroke="#468791"></path><path d="M580 332.9L567 233.1L471 345.9Z" fill="#006d77" stroke="#006d77"></path><path d="M363 552.3L461 554.3L383 459.6Z" fill="#72a1ab" stroke="#72a1ab"></path><path d="M383 459.6L461 554.3L513 437.6Z" fill="#006d77" stroke="#006d77"></path><path d="M513 437.6L635 388.6L615 369.9Z" fill="#5d949e" stroke="#5d949e"></path><path d="M263 434.6L363 552.3L383 459.6Z" fill="#87afb8" stroke="#87afb8"></path><path d="M567 233.1L481 165.4L412 229.1Z" fill="#72a1ab" stroke="#72a1ab"></path><path d="M412 229.1L283 173.4L329 276.1Z" fill="#87afb8" stroke="#87afb8"></path><path d="M557 548.3L635 388.6L513 437.6Z" fill="#72a1ab" stroke="#72a1ab"></path><path d="M672 218.1L567 233.1L580 332.9Z" fill="#b0cbd2" stroke="#b0cbd2"></path><path d="M128 338.9L206 350.9L142 246.1Z" fill="#2d7a84" stroke="#2d7a84"></path><path d="M241 325.9L206 350.9L263 434.6Z" fill="#b0cbd2" stroke="#b0cbd2"></path><path d="M655 196.4L573 193.4L567 233.1Z" fill="#72a1ab" stroke="#72a1ab"></path><path d="M567 233.1L573 193.4L481 165.4Z" fill="#d9e7ec" stroke="#d9e7ec"></path><path d="M461 554.3L557 548.3L513 437.6Z" fill="#d9e7ec" stroke="#d9e7ec"></path><path d="M321 128.4L283 173.4L412 229.1Z" fill="#c4d9df" stroke="#c4d9df"></path><path d="M142 246.1L206 350.9L241 325.9Z" fill="#b0cbd2" stroke="#b0cbd2"></path><path d="M476 116.7L370 123.7L481 165.4Z" fill="#d9e7ec" stroke="#d9e7ec"></path><path d="M481 165.4L370 123.7L412 229.1Z" fill="#006d77" stroke="#006d77"></path><path d="M363 552.3L463 600L461 554.3Z" fill="#9bbdc5" stroke="#9bbdc5"></path><path d="M461 554.3L527 600L557 548.3Z" fill="#87afb8" stroke="#87afb8"></path><path d="M553 88.7L476 116.7L481 165.4Z" fill="#87afb8" stroke="#87afb8"></path><path d="M263 434.6L256 545.3L363 552.3Z" fill="#87afb8" stroke="#87afb8"></path><path d="M363 552.3L335 600L463 600Z" fill="#edf6f9" stroke="#edf6f9"></path><path d="M162 463.6L256 545.3L263 434.6Z" fill="#c4d9df" stroke="#c4d9df"></path><path d="M370 123.7L321 128.4L412 229.1Z" fill="#9bbdc5" stroke="#9bbdc5"></path><path d="M256 545.3L335 600L363 552.3Z" fill="#5d949e" stroke="#5d949e"></path><path d="M463 600L527 600L461 554.3Z" fill="#87afb8" stroke="#87afb8"></path><path d="M256 545.3L283 600L335 600Z" fill="#87afb8" stroke="#87afb8"></path><path d="M206 350.9L162 463.6L263 434.6Z" fill="#edf6f9" stroke="#edf6f9"></path><path d="M256 545.3L177 600L283 600Z" fill="#9bbdc5" stroke="#9bbdc5"></path><path d="M672 218.1L580 332.9L703 283.1Z" fill="#edf6f9" stroke="#edf6f9"></path><path d="M573 193.4L553 88.7L481 165.4Z" fill="#468791" stroke="#468791"></path><path d="M703 283.1L580 332.9L615 369.9Z" fill="#edf6f9" stroke="#edf6f9"></path><path d="M275 94.7L203 176.4L283 173.4Z" fill="#006d77" stroke="#006d77"></path><path d="M283 173.4L203 176.4L265 269.1Z" fill="#b0cbd2" stroke="#b0cbd2"></path><path d="M206 350.9L124 396.6L162 463.6Z" fill="#5d949e" stroke="#5d949e"></path><path d="M722 333.9L703 283.1L615 369.9Z" fill="#72a1ab" stroke="#72a1ab"></path><path d="M722 333.9L615 369.9L635 388.6Z" fill="#87afb8" stroke="#87afb8"></path><path d="M142 246.1L241 325.9L265 269.1Z" fill="#c4d9df" stroke="#c4d9df"></path><path d="M744 416.6L722 333.9L635 388.6Z" fill="#87afb8" stroke="#87afb8"></path><path d="M656 550.3L635 388.6L557 548.3Z" fill="#d9e7ec" stroke="#d9e7ec"></path><path d="M647 600L656 550.3L557 548.3Z" fill="#72a1ab" stroke="#72a1ab"></path><path d="M616 61.7L553 88.7L573 193.4Z" fill="#006d77" stroke="#006d77"></path><path d="M385 0L321 128.4L370 123.7Z" fill="#87afb8" stroke="#87afb8"></path><path d="M385 0L275 94.7L321 128.4Z" fill="#edf6f9" stroke="#edf6f9"></path><path d="M128 338.9L124 396.6L206 350.9Z" fill="#468791" stroke="#468791"></path><path d="M321 128.4L275 94.7L283 173.4Z" fill="#5d949e" stroke="#5d949e"></path><path d="M385 0L370 123.7L476 116.7Z" fill="#d9e7ec" stroke="#d9e7ec"></path><path d="M203 176.4L142 246.1L265 269.1Z" fill="#87afb8" stroke="#87afb8"></path><path d="M95 541.3L178 539.3L162 463.6Z" fill="#006d77" stroke="#006d77"></path><path d="M162 463.6L178 539.3L256 545.3Z" fill="#72a1ab" stroke="#72a1ab"></path><path d="M737 522.3L744 416.6L635 388.6Z" fill="#c4d9df" stroke="#c4d9df"></path><path d="M527 600L647 600L557 548.3Z" fill="#edf6f9" stroke="#edf6f9"></path><path d="M656 550.3L737 522.3L635 388.6Z" fill="#5d949e" stroke="#5d949e"></path><path d="M74 161.4L100 276.1L142 246.1Z" fill="#c4d9df" stroke="#c4d9df"></path><path d="M142 246.1L100 276.1L128 338.9Z" fill="#468791" stroke="#468791"></path><path d="M128 338.9L0 384.9L124 396.6Z" fill="#edf6f9" stroke="#edf6f9"></path><path d="M74 161.4L142 246.1L203 176.4Z" fill="#5d949e" stroke="#5d949e"></path><path d="M99 600L177 600L178 539.3Z" fill="#72a1ab" stroke="#72a1ab"></path><path d="M178 539.3L177 600L256 545.3Z" fill="#2d7a84" stroke="#2d7a84"></path><path d="M691 600L737 522.3L656 550.3Z" fill="#d9e7ec" stroke="#d9e7ec"></path><path d="M655 196.4L616 61.7L573 193.4Z" fill="#b0cbd2" stroke="#b0cbd2"></path><path d="M484 0L385 0L476 116.7Z" fill="#9bbdc5" stroke="#9bbdc5"></path><path d="M730 170.4L616 61.7L655 196.4Z" fill="#87afb8" stroke="#87afb8"></path><path d="M730 170.4L655 196.4L672 218.1Z" fill="#72a1ab" stroke="#72a1ab"></path><path d="M647 600L691 600L656 550.3Z" fill="#87afb8" stroke="#87afb8"></path><path d="M770 162.4L730 170.4L703 283.1Z" fill="#468791" stroke="#468791"></path><path d="M703 283.1L730 170.4L672 218.1Z" fill="#b0cbd2" stroke="#b0cbd2"></path><path d="M770 162.4L703 283.1L852 234.1Z" fill="#c4d9df" stroke="#c4d9df"></path><path d="M484 0L476 116.7L553 88.7Z" fill="#72a1ab" stroke="#72a1ab"></path><path d="M556 0L484 0L553 88.7Z" fill="#87afb8" stroke="#87afb8"></path><path d="M737 522.3L778 463.6L744 416.6Z" fill="#9bbdc5" stroke="#9bbdc5"></path><path d="M744 416.6L834 375.9L722 333.9Z" fill="#edf6f9" stroke="#edf6f9"></path><path d="M825 490.3L778 463.6L737 522.3Z" fill="#006d77" stroke="#006d77"></path><path d="M0 468.6L95 541.3L124 396.6Z" fill="#72a1ab" stroke="#72a1ab"></path><path d="M124 396.6L95 541.3L162 463.6Z" fill="#72a1ab" stroke="#72a1ab"></path><path d="M260 0L201 57.7L275 94.7Z" fill="#006d77" stroke="#006d77"></path><path d="M275 94.7L201 57.7L203 176.4Z" fill="#5d949e" stroke="#5d949e"></path><path d="M598 0L556 0L616 61.7Z" fill="#c4d9df" stroke="#c4d9df"></path><path d="M616 61.7L556 0L553 88.7Z" fill="#edf6f9" stroke="#edf6f9"></path><path d="M385 0L260 0L275 94.7Z" fill="#87afb8" stroke="#87afb8"></path><path d="M852 234.1L703 283.1L722 333.9Z" fill="#b0cbd2" stroke="#b0cbd2"></path><path d="M730 170.4L750 64.7L616 61.7Z" fill="#edf6f9" stroke="#edf6f9"></path><path d="M705 0L598 0L616 61.7Z" fill="#edf6f9" stroke="#edf6f9"></path><path d="M75 95.7L74 161.4L203 176.4Z" fill="#edf6f9" stroke="#edf6f9"></path><path d="M100 276.1L0 384.9L128 338.9Z" fill="#edf6f9" stroke="#edf6f9"></path><path d="M75 95.7L203 176.4L201 57.7Z" fill="#468791" stroke="#468791"></path><path d="M95 541.3L99 600L178 539.3Z" fill="#2d7a84" stroke="#2d7a84"></path><path d="M825 490.3L834 375.9L778 463.6Z" fill="#72a1ab" stroke="#72a1ab"></path><path d="M778 463.6L834 375.9L744 416.6Z" fill="#9bbdc5" stroke="#9bbdc5"></path><path d="M792 600L825 490.3L737 522.3Z" fill="#006d77" stroke="#006d77"></path><path d="M260 0L206 0L201 57.7Z" fill="#72a1ab" stroke="#72a1ab"></path><path d="M0 230.1L0 384.9L100 276.1Z" fill="#006d77" stroke="#006d77"></path><path d="M95 541.3L0 600L99 600Z" fill="#9bbdc5" stroke="#9bbdc5"></path><path d="M770 162.4L768 94.7L730 170.4Z" fill="#2d7a84" stroke="#2d7a84"></path><path d="M900 62.7L768 94.7L770 162.4Z" fill="#2d7a84" stroke="#2d7a84"></path><path d="M0 384.9L0 468.6L124 396.6Z" fill="#72a1ab" stroke="#72a1ab"></path><path d="M79 0L75 95.7L201 57.7Z" fill="#72a1ab" stroke="#72a1ab"></path><path d="M74 161.4L0 230.1L100 276.1Z" fill="#2d7a84" stroke="#2d7a84"></path><path d="M691 600L792 600L737 522.3Z" fill="#72a1ab" stroke="#72a1ab"></path><path d="M768 94.7L750 64.7L730 170.4Z" fill="#006d77" stroke="#006d77"></path><path d="M0 200.4L0 230.1L74 161.4Z" fill="#d9e7ec" stroke="#d9e7ec"></path><path d="M900 324.9L852 234.1L834 375.9Z" fill="#5d949e" stroke="#5d949e"></path><path d="M834 375.9L852 234.1L722 333.9Z" fill="#5d949e" stroke="#5d949e"></path><path d="M768 94.7L789 0L750 64.7Z" fill="#c4d9df" stroke="#c4d9df"></path><path d="M0 63.7L0 200.4L74 161.4Z" fill="#468791" stroke="#468791"></path><path d="M750 64.7L705 0L616 61.7Z" fill="#edf6f9" stroke="#edf6f9"></path><path d="M0 468.6L0 531.3L95 541.3Z" fill="#87afb8" stroke="#87afb8"></path><path d="M900 533.3L900 390.6L825 490.3Z" fill="#b0cbd2" stroke="#b0cbd2"></path><path d="M825 490.3L900 390.6L834 375.9Z" fill="#2d7a84" stroke="#2d7a84"></path><path d="M900 390.6L900 324.9L834 375.9Z" fill="#2d7a84" stroke="#2d7a84"></path><path d="M0 531.3L0 600L95 541.3Z" fill="#c4d9df" stroke="#c4d9df"></path><path d="M900 324.9L900 244.1L852 234.1Z" fill="#72a1ab" stroke="#72a1ab"></path><path d="M852 234.1L900 201.4L770 162.4Z" fill="#d9e7ec" stroke="#d9e7ec"></path><path d="M750 64.7L789 0L705 0Z" fill="#c4d9df" stroke="#c4d9df"></path><path d="M206 0L79 0L201 57.7Z" fill="#87afb8" stroke="#87afb8"></path><path d="M75 95.7L0 63.7L74 161.4Z" fill="#edf6f9" stroke="#edf6f9"></path><path d="M900 244.1L900 201.4L852 234.1Z" fill="#2d7a84" stroke="#2d7a84"></path><path d="M792 600L900 533.3L825 490.3Z" fill="#72a1ab" stroke="#72a1ab"></path><path d="M900 62.7L789 0L768 94.7Z" fill="#006d77" stroke="#006d77"></path><path d="M79 0L0 63.7L75 95.7Z" fill="#72a1ab" stroke="#72a1ab"></path><path d="M792 600L900 600L900 533.3Z" fill="#b0cbd2" stroke="#b0cbd2"></path><path d="M79 0L0 0L0 63.7Z" fill="#468791" stroke="#468791"></path><path d="M900 201.4L900 62.7L770 162.4Z" fill="#87afb8" stroke="#87afb8"></path><path d="M900 62.7L900 0L789 0Z" fill="#5d949e" stroke="#5d949e"></path></g></svg>