<svg id="visual" viewBox="0 0 900 600" width="900" height="600" xmlns="http://www.w3.org/2000/svg" xmlns:xlink="http://www.w3.org/1999/xlink" version="1.1"><g stroke-width="1" stroke-linejoin="bevel"><path d="M448 306.9L518 343.9L481 274.1Z" fill="#63aaa8" stroke="#63aaa8"></path><path d="M518 343.9L534 225.1L481 274.1Z" fill="#4d989a" stroke="#4d989a"></path><path d="M534 225.1L527 213.4L481 274.1Z" fill="#63aaa8" stroke="#63aaa8"></path><path d="M481 274.1L377 224.1L448 306.9Z" fill="#83c5be" stroke="#83c5be"></path><path d="M448 306.9L465 431.6L518 343.9Z" fill="#78bcb7" stroke="#78bcb7"></path><path d="M377 224.1L386 378.9L448 306.9Z" fill="#6db3af" stroke="#6db3af"></path><path d="M448 306.9L386 378.9L465 431.6Z" fill="#78bcb7" stroke="#78bcb7"></path><path d="M527 213.4L420 191.4L481 274.1Z" fill="#63aaa8" stroke="#63aaa8"></path><path d="M420 191.4L377 224.1L481 274.1Z" fill="#83c5be" stroke="#83c5be"></path><path d="M465 431.6L534 452.6L518 343.9Z" fill="#36878c" stroke="#36878c"></path><path d="M518 343.9L635 313.9L534 225.1Z" fill="#19757e" stroke="#19757e"></path><path d="M670 390.6L635 313.9L518 343.9Z" fill="#83c5be" stroke="#83c5be"></path><path d="M534 225.1L589 162.4L527 213.4Z" fill="#4d989a" stroke="#4d989a"></path><path d="M635 313.9L610 227.1L534 225.1Z" fill="#36878c" stroke="#36878c"></path><path d="M458 73.7L388 98.7L420 191.4Z" fill="#297e85" stroke="#297e85"></path><path d="M276 390.6L359 427.6L386 378.9Z" fill="#4d989a" stroke="#4d989a"></path><path d="M386 378.9L359 427.6L465 431.6Z" fill="#006d77" stroke="#006d77"></path><path d="M465 431.6L419 494.3L534 452.6Z" fill="#63aaa8" stroke="#63aaa8"></path><path d="M610 227.1L589 162.4L534 225.1Z" fill="#78bcb7" stroke="#78bcb7"></path><path d="M359 427.6L419 494.3L465 431.6Z" fill="#36878c" stroke="#36878c"></path><path d="M534 452.6L670 390.6L518 343.9Z" fill="#6db3af" stroke="#6db3af"></path><path d="M635 313.9L685 326.9L610 227.1Z" fill="#006d77" stroke="#006d77"></path><path d="M721 131.4L609 122.7L589 162.4Z" fill="#63aaa8" stroke="#63aaa8"></path><path d="M377 224.1L292 319.9L386 378.9Z" fill="#58a1a1" stroke="#58a1a1"></path><path d="M670 390.6L685 326.9L635 313.9Z" fill="#78bcb7" stroke="#78bcb7"></path><path d="M420 191.4L368 151.4L377 224.1Z" fill="#006d77" stroke="#006d77"></path><path d="M377 224.1L268 239.1L292 319.9Z" fill="#428f93" stroke="#428f93"></path><path d="M388 98.7L368 151.4L420 191.4Z" fill="#297e85" stroke="#297e85"></path><path d="M613 530.3L698 389.6L670 390.6Z" fill="#428f93" stroke="#428f93"></path><path d="M670 390.6L698 389.6L685 326.9Z" fill="#4d989a" stroke="#4d989a"></path><path d="M292 319.9L276 390.6L386 378.9Z" fill="#78bcb7" stroke="#78bcb7"></path><path d="M359 427.6L332 484.3L419 494.3Z" fill="#4d989a" stroke="#4d989a"></path><path d="M721 131.4L589 162.4L610 227.1Z" fill="#36878c" stroke="#36878c"></path><path d="M458 73.7L420 191.4L527 213.4Z" fill="#006d77" stroke="#006d77"></path><path d="M276 390.6L332 484.3L359 427.6Z" fill="#4d989a" stroke="#4d989a"></path><path d="M368 151.4L268 239.1L377 224.1Z" fill="#83c5be" stroke="#83c5be"></path><path d="M137 347.9L165 449.6L276 390.6Z" fill="#6db3af" stroke="#6db3af"></path><path d="M419 494.3L553 542.3L534 452.6Z" fill="#36878c" stroke="#36878c"></path><path d="M534 452.6L613 530.3L670 390.6Z" fill="#58a1a1" stroke="#58a1a1"></path><path d="M460 600L553 542.3L419 494.3Z" fill="#36878c" stroke="#36878c"></path><path d="M458 73.7L527 213.4L503 53.7Z" fill="#78bcb7" stroke="#78bcb7"></path><path d="M368 151.4L237 132.4L268 239.1Z" fill="#19757e" stroke="#19757e"></path><path d="M503 53.7L527 213.4L589 162.4Z" fill="#6db3af" stroke="#6db3af"></path><path d="M553 542.3L613 530.3L534 452.6Z" fill="#83c5be" stroke="#83c5be"></path><path d="M609 122.7L503 53.7L589 162.4Z" fill="#297e85" stroke="#297e85"></path><path d="M302 0L310 99.7L388 98.7Z" fill="#36878c" stroke="#36878c"></path><path d="M772 218.1L749 216.1L685 326.9Z" fill="#63aaa8" stroke="#63aaa8"></path><path d="M685 326.9L749 216.1L610 227.1Z" fill="#006d77" stroke="#006d77"></path><path d="M401 0L388 98.7L458 73.7Z" fill="#6db3af" stroke="#6db3af"></path><path d="M388 98.7L310 99.7L368 151.4Z" fill="#19757e" stroke="#19757e"></path><path d="M202 496.3L299 525.3L332 484.3Z" fill="#297e85" stroke="#297e85"></path><path d="M332 484.3L395 600L419 494.3Z" fill="#83c5be" stroke="#83c5be"></path><path d="M395 600L460 600L419 494.3Z" fill="#78bcb7" stroke="#78bcb7"></path><path d="M553 542.3L590 600L613 530.3Z" fill="#78bcb7" stroke="#78bcb7"></path><path d="M460 600L561 600L553 542.3Z" fill="#36878c" stroke="#36878c"></path><path d="M749 216.1L721 131.4L610 227.1Z" fill="#36878c" stroke="#36878c"></path><path d="M609 122.7L567 0L503 53.7Z" fill="#428f93" stroke="#428f93"></path><path d="M836 340.9L772 218.1L685 326.9Z" fill="#006d77" stroke="#006d77"></path><path d="M749 216.1L746 126.7L721 131.4Z" fill="#63aaa8" stroke="#63aaa8"></path><path d="M299 525.3L395 600L332 484.3Z" fill="#36878c" stroke="#36878c"></path><path d="M561 600L590 600L553 542.3Z" fill="#58a1a1" stroke="#58a1a1"></path><path d="M851 404.6L836 340.9L698 389.6Z" fill="#36878c" stroke="#36878c"></path><path d="M310 99.7L237 132.4L368 151.4Z" fill="#78bcb7" stroke="#78bcb7"></path><path d="M165 449.6L202 496.3L276 390.6Z" fill="#19757e" stroke="#19757e"></path><path d="M567 0L447 0L503 53.7Z" fill="#4d989a" stroke="#4d989a"></path><path d="M503 53.7L447 0L458 73.7Z" fill="#006d77" stroke="#006d77"></path><path d="M310 99.7L222 0L237 132.4Z" fill="#78bcb7" stroke="#78bcb7"></path><path d="M772 218.1L746 126.7L749 216.1Z" fill="#78bcb7" stroke="#78bcb7"></path><path d="M624 0L567 0L609 122.7Z" fill="#4d989a" stroke="#4d989a"></path><path d="M624 0L609 122.7L721 131.4Z" fill="#297e85" stroke="#297e85"></path><path d="M447 0L401 0L458 73.7Z" fill="#36878c" stroke="#36878c"></path><path d="M836 340.9L809 205.4L772 218.1Z" fill="#428f93" stroke="#428f93"></path><path d="M772 218.1L809 205.4L746 126.7Z" fill="#83c5be" stroke="#83c5be"></path><path d="M836 340.9L685 326.9L698 389.6Z" fill="#19757e" stroke="#19757e"></path><path d="M276 390.6L292 319.9L137 347.9Z" fill="#36878c" stroke="#36878c"></path><path d="M276 390.6L202 496.3L332 484.3Z" fill="#428f93" stroke="#428f93"></path><path d="M299 525.3L277 600L395 600Z" fill="#4d989a" stroke="#4d989a"></path><path d="M753 0L624 0L721 131.4Z" fill="#19757e" stroke="#19757e"></path><path d="M745 555.3L698 389.6L613 530.3Z" fill="#297e85" stroke="#297e85"></path><path d="M137 347.9L292 319.9L268 239.1Z" fill="#4d989a" stroke="#4d989a"></path><path d="M154 96.7L171 165.4L237 132.4Z" fill="#428f93" stroke="#428f93"></path><path d="M237 132.4L171 165.4L268 239.1Z" fill="#4d989a" stroke="#4d989a"></path><path d="M699 600L745 555.3L613 530.3Z" fill="#297e85" stroke="#297e85"></path><path d="M139 237.1L137 347.9L268 239.1Z" fill="#58a1a1" stroke="#58a1a1"></path><path d="M590 600L699 600L613 530.3Z" fill="#78bcb7" stroke="#78bcb7"></path><path d="M170 600L277 600L202 496.3Z" fill="#58a1a1" stroke="#58a1a1"></path><path d="M202 496.3L277 600L299 525.3Z" fill="#4d989a" stroke="#4d989a"></path><path d="M171 165.4L139 237.1L268 239.1Z" fill="#006d77" stroke="#006d77"></path><path d="M842 600L767 544.3L745 555.3Z" fill="#19757e" stroke="#19757e"></path><path d="M745 555.3L767 544.3L698 389.6Z" fill="#36878c" stroke="#36878c"></path><path d="M401 0L302 0L388 98.7Z" fill="#6db3af" stroke="#6db3af"></path><path d="M767 544.3L851 404.6L698 389.6Z" fill="#63aaa8" stroke="#63aaa8"></path><path d="M836 340.9L900 297.1L809 205.4Z" fill="#63aaa8" stroke="#63aaa8"></path><path d="M119 143.4L120 219.1L171 165.4Z" fill="#6db3af" stroke="#6db3af"></path><path d="M171 165.4L120 219.1L139 237.1Z" fill="#19757e" stroke="#19757e"></path><path d="M139 237.1L55 301.9L137 347.9Z" fill="#006d77" stroke="#006d77"></path><path d="M137 347.9L112 432.6L165 449.6Z" fill="#36878c" stroke="#36878c"></path><path d="M126 600L170 600L202 496.3Z" fill="#78bcb7" stroke="#78bcb7"></path><path d="M0 361.9L112 432.6L137 347.9Z" fill="#78bcb7" stroke="#78bcb7"></path><path d="M222 0L154 96.7L237 132.4Z" fill="#4d989a" stroke="#4d989a"></path><path d="M154 96.7L119 143.4L171 165.4Z" fill="#4d989a" stroke="#4d989a"></path><path d="M120 219.1L55 301.9L139 237.1Z" fill="#19757e" stroke="#19757e"></path><path d="M822 59.7L753 0L746 126.7Z" fill="#6db3af" stroke="#6db3af"></path><path d="M746 126.7L753 0L721 131.4Z" fill="#78bcb7" stroke="#78bcb7"></path><path d="M900 351.9L900 297.1L836 340.9Z" fill="#6db3af" stroke="#6db3af"></path><path d="M809 205.4L822 59.7L746 126.7Z" fill="#428f93" stroke="#428f93"></path><path d="M302 0L222 0L310 99.7Z" fill="#6db3af" stroke="#6db3af"></path><path d="M154 96.7L74 126.7L119 143.4Z" fill="#006d77" stroke="#006d77"></path><path d="M900 391.6L900 351.9L851 404.6Z" fill="#83c5be" stroke="#83c5be"></path><path d="M851 404.6L900 351.9L836 340.9Z" fill="#19757e" stroke="#19757e"></path><path d="M900 498.3L900 391.6L851 404.6Z" fill="#36878c" stroke="#36878c"></path><path d="M900 84.7L822 59.7L809 205.4Z" fill="#428f93" stroke="#428f93"></path><path d="M900 297.1L900 200.4L809 205.4Z" fill="#36878c" stroke="#36878c"></path><path d="M126 600L202 496.3L79 527.3Z" fill="#58a1a1" stroke="#58a1a1"></path><path d="M0 242.1L55 301.9L120 219.1Z" fill="#36878c" stroke="#36878c"></path><path d="M79 527.3L202 496.3L165 449.6Z" fill="#428f93" stroke="#428f93"></path><path d="M767 544.3L900 498.3L851 404.6Z" fill="#4d989a" stroke="#4d989a"></path><path d="M842 600L900 498.3L767 544.3Z" fill="#58a1a1" stroke="#58a1a1"></path><path d="M699 600L842 600L745 555.3Z" fill="#78bcb7" stroke="#78bcb7"></path><path d="M118 0L74 126.7L154 96.7Z" fill="#4d989a" stroke="#4d989a"></path><path d="M119 143.4L74 126.7L120 219.1Z" fill="#006d77" stroke="#006d77"></path><path d="M900 0L819 0L822 59.7Z" fill="#78bcb7" stroke="#78bcb7"></path><path d="M822 59.7L819 0L753 0Z" fill="#58a1a1" stroke="#58a1a1"></path><path d="M79 527.3L165 449.6L112 432.6Z" fill="#6db3af" stroke="#6db3af"></path><path d="M0 501.3L79 527.3L112 432.6Z" fill="#63aaa8" stroke="#63aaa8"></path><path d="M900 200.4L900 84.7L809 205.4Z" fill="#428f93" stroke="#428f93"></path><path d="M222 0L118 0L154 96.7Z" fill="#19757e" stroke="#19757e"></path><path d="M55 301.9L0 361.9L137 347.9Z" fill="#428f93" stroke="#428f93"></path><path d="M0 242.1L0 361.9L55 301.9Z" fill="#78bcb7" stroke="#78bcb7"></path><path d="M0 131.4L0 242.1L74 126.7Z" fill="#63aaa8" stroke="#63aaa8"></path><path d="M74 126.7L0 242.1L120 219.1Z" fill="#78bcb7" stroke="#78bcb7"></path><path d="M0 361.9L0 389.6L112 432.6Z" fill="#83c5be" stroke="#83c5be"></path><path d="M842 600L900 600L900 498.3Z" fill="#58a1a1" stroke="#58a1a1"></path><path d="M900 84.7L900 0L822 59.7Z" fill="#83c5be" stroke="#83c5be"></path><path d="M0 117.7L0 131.4L74 126.7Z" fill="#58a1a1" stroke="#58a1a1"></path><path d="M0 389.6L0 501.3L112 432.6Z" fill="#4d989a" stroke="#4d989a"></path><path d="M79 527.3L0 600L126 600Z" fill="#78bcb7" stroke="#78bcb7"></path><path d="M0 0L0 117.7L74 126.7Z" fill="#83c5be" stroke="#83c5be"></path><path d="M0 501.3L0 600L79 527.3Z" fill="#4d989a" stroke="#4d989a"></path><path d="M118 0L0 0L74 126.7Z" fill="#63aaa8" stroke="#63aaa8"></path></g></svg>